<?xml version="1.0" encoding="UTF-8" standalone="no"?>
<!-- Created with Inkscape (http://www.inkscape.org/) -->

<svg
   xmlns:dc="http://purl.org/dc/elements/1.1/"
   xmlns:cc="http://creativecommons.org/ns#"
   xmlns:rdf="http://www.w3.org/1999/02/22-rdf-syntax-ns#"
   xmlns:svg="http://www.w3.org/2000/svg"
   xmlns="http://www.w3.org/2000/svg"
   xmlns:sodipodi="http://sodipodi.sourceforge.net/DTD/sodipodi-0.dtd"
   xmlns:inkscape="http://www.inkscape.org/namespaces/inkscape"
   width="32"
   height="25"
   viewBox="0 0 32 25"
   version="1.1"
   id="svg8"
   inkscape:version="0.92.3 (2405546, 2018-03-11)"
   sodipodi:docname="placeholder.svg">
  <defs
     id="defs2" />
  <sodipodi:namedview
     id="base"
     pagecolor="#ffffff"
     bordercolor="#666666"
     borderopacity="1.0"
     inkscape:pageopacity="0.0"
     inkscape:pageshadow="2"
     inkscape:zoom="1"
     inkscape:cx="-222.60095"
     inkscape:cy="106.68298"
     inkscape:document-units="px"
     inkscape:current-layer="layer1"
     showgrid="false"
     units="px"
     inkscape:window-width="1920"
     inkscape:window-height="1017"
     inkscape:window-x="-8"
     inkscape:window-y="-8"
     inkscape:window-maximized="1">
    <inkscape:grid
       type="xygrid"
       id="grid815"
       empspacing="2"
       spacingx="16"
       spacingy="16" />
  </sodipodi:namedview>
  <metadata
     id="metadata5">
    <rdf:RDF>
      <cc:Work
         rdf:about="">
        <dc:format>image/svg+xml</dc:format>
        <dc:type
           rdf:resource="http://purl.org/dc/dcmitype/StillImage" />
        <dc:title></dc:title>
      </cc:Work>
    </rdf:RDF>
  </metadata>
  <g
     inkscape:label="Layer 1"
     inkscape:groupmode="layer"
     id="layer1"
     transform="translate(0,-1097.5197)">
    <g
       transform="matrix(0.1041304,0,0,0.1041304,6.9594848e-7,1093.9584)"
       id="_x31_1-DSLR_Camera"
       style="fill:#909090;fill-opacity:1;stroke:none;stroke-width:9.60334396">
      <path
         inkscape:connector-curvature="0"
         d="M 284.909,66.146 H 203.564 L 187.138,38.551 C 185.531,35.853 182.624,34.2 179.484,34.2 h -51.662 c -3.14,0 -6.048,1.653 -7.654,4.351 L 103.742,66.146 H 77.049 v -6.082 c 0,-4.919 -3.988,-8.907 -8.907,-8.907 H 35.185 c -4.92,0 -8.907,3.988 -8.907,8.907 v 6.082 h -3.88 C 10.027,66.146 0,76.174 0,88.543 v 162.166 c 0,12.37 10.027,22.398 22.397,22.398 h 262.512 c 12.37,0 22.398,-10.028 22.398,-22.398 V 88.543 C 307.308,76.174 297.279,66.146 284.909,66.146 Z M 153.653,233.379 c -35.21,0 -63.753,-28.543 -63.753,-63.754 0,-35.209 28.543,-63.753 63.753,-63.753 35.21,0 63.753,28.544 63.753,63.753 0,35.211 -28.543,63.754 -63.753,63.754 z M 270.935,112.322 h -27.91 c -4.919,0 -8.907,-3.988 -8.907,-8.908 0,-4.92 3.988,-8.908 8.907,-8.908 h 27.91 c 4.921,0 8.908,3.988 8.908,8.908 0,4.92 -3.988,8.908 -8.908,8.908 z"
         id="path2"
         style="fill:#909090;fill-opacity:1;stroke:none;stroke-width:9.60334396" />
      <circle
         cx="153.653"
         cy="169.625"
         r="44.537998"
         id="circle4"
         style="fill:#909090;fill-opacity:1;stroke:none;stroke-width:9.60334396" />
    </g>
  </g>
</svg>
