<svg xmlns="http://www.w3.org/2000/svg" viewBox="0 0 32 32" role="img">
    <symbol id="icon-notification-info" viewBox="0 0 32 32">
        <path d="M32 16a16 16 0 0 1-16 16A16 16 0 0 1 0 16 16 16 0 0 1 16 0a16 16 0 0 1 16 16z"/>
        <path fill="#fff" d="M18.01 12.2V26h-4.126V12.2zm.478-3.778q0 .492-.2.931-.199.426-.545.759-.346.32-.812.519-.452.186-.97.186-.507 0-.946-.186-.439-.2-.785-.52-.332-.332-.532-.758-.186-.439-.186-.931 0-.506.186-.945.2-.44.532-.772.346-.332.785-.519.44-.186.945-.186.519 0 .971.186.466.187.812.52.346.332.546.771.2.44.2.945z"/>
    </symbol>

    <symbol id="icon-seen" viewBox="0 0 32 32">
        <path d="M29.171 15.536A13.172 8.707 0 0 1 16 24.242a13.172 8.707 0 0 1-13.172-8.707A13.172 8.707 0 0 1 16 6.827a13.172 8.707 0 0 1 13.172 8.707z" fill="#fff"/>
        <path d="M24 16a8 8 0 0 1-8 8 8 8 0 0 1-8-8 8 8 0 0 1 8-8 8 8 0 0 1 8 8z" fill="#b8b8b8"/>
        <path d="M31.729 15.152c-.284-.4-7.003-9.819-15.73-9.819C7.275 5.333.554 14.747.273 15.15a1.46 1.46 0 0 0 0 1.7c.28.402 7.002 9.818 15.727 9.818 8.73 0 15.45-9.419 15.73-9.82.36-.517.36-1.18 0-1.697zm-6.824 4.268c-2.13 1.874-5.404 4.11-8.905 4.11-5.52 0-10.45-5.402-12.18-7.531C5.55 13.869 10.48 8.47 16 8.47c5.527 0 10.457 5.401 12.186 7.529a28.898 28.898 0 0 1-3.276 3.418" fill="#606060"/>
        <path d="M19 16a3 3 0 0 1-3 3 3 3 0 0 1-3-3 3 3 0 0 1 3-3 3 3 0 0 1 3 3z" fill="#262626"/>
        <path d="M20 13.5a1.5 1.5 0 0 1-1.5 1.5 1.5 1.5 0 0 1-1.5-1.5 1.5 1.5 0 0 1 1.5-1.5 1.5 1.5 0 0 1 1.5 1.5z" fill="#fff"/>
    </symbol>

    <symbol id="icon-instock" viewBox="0 0 32 32">
        <path d="M6 12a3 3 0 0 1-3 3 3 3 0 0 1-3-3 3 3 0 0 1 3-3 3 3 0 0 1 3 3zM15 12a3 3 0 0 1-3 3 3 3 0 0 1-3-3 3 3 0 0 1 3-3 3 3 0 0 1 3 3zM24 12a3 3 0 0 1-3 3 3 3 0 0 1-3-3 3 3 0 0 1 3-3 3 3 0 0 1 3 3z"/>
    </symbol>

    <symbol id="icon-runningout" viewBox="0 0 32 32">
        <path d="M10.5 12a3 3 0 0 1-3 3 3 3 0 0 1-3-3 3 3 0 0 1 3-3 3 3 0 0 1 3 3zM19.5 12a3 3 0 0 1-3 3 3 3 0 0 1-3-3 3 3 0 0 1 3-3 3 3 0 0 1 3 3z"/>
    </symbol>

    <symbol id="icon-outofstock" viewBox="0 0 32 32">
        <path d="M15 12a3 3 0 0 1-3 3 3 3 0 0 1-3-3 3 3 0 0 1 3-3 3 3 0 0 1 3 3z"/>
    </symbol>

    <symbol id="icon-phone" viewBox="0 0 32 32">
          <path d="M32 25.284q0 .61-.244 1.589-.244.976-.488 1.546-.448 1.14-2.767 2.44Q26.385 32 24.309 32q-.65 0-1.22-.08-.567-.08-1.3-.286-.733-.204-1.059-.326l-2.4-.852q-2.199-.815-3.947-1.913-2.935-1.792-6.027-4.881-3.091-3.097-4.879-6.028-1.1-1.754-1.873-3.953l-.414-1.14q-.326-.936-.488-1.26-.16-.326-.328-1.06L.09 8.92Q-.03 8.347.01 7.74q0-2.12 1.18-4.233 1.26-2.32 2.4-2.77.57-.247 1.545-.49Q6.111 0 6.721 0q.33 0 .492.08.406.124 1.22 1.752.243.413.65 1.22.413.821.82 1.431.407.612.691 1.224.08.08.408.569.32.492.486.82.16.32.16.648 0 .444-.648 1.14-.656.688-1.43 1.22-.772.527-1.384 1.22-.607.691-.647 1.021 0 .2.12.524l.16.446q.04.12.325.568.284.449.284.409 1.71 3.13 3.948 5.37 2.24 2.241 5.329 3.95.04 0 .408.24.366.246.57.326l.445.204q.24.12.524.08.406 0 1.02-.606.608-.61 1.22-1.42.608-.82 1.26-1.429.652-.614 1.14-.654.28 0 .607.16.324.164.812.49.488.324.57.406l2.646 1.507q.771.448 1.26.692 1.587.776 1.709 1.18.08.164.08.49z"/>
    </symbol>

    <symbol id="icon-website" viewBox="0 0 32 32">
        <path d="M31.962 14.933C31.437 6.946 25.054.561 17.067.036V0h-2.134v.036C6.946.561.561 6.946.036 14.933H0v2.134h.036c.525 7.987 6.91 14.37 14.897 14.895V32h2.134v-.038c7.987-.525 14.37-6.908 14.895-14.895H32v-2.134zM10.016 3.488c-1.03 1.37-1.886 3.087-2.509 5.045H4.311a13.94 13.94 0 0 1 5.705-5.045zm-6.82 7.179h3.75a25.335 25.335 0 0 0-.525 4.266H2.174a13.747 13.747 0 0 1 1.022-4.266zm-1.022 6.4H6.42c.058 1.487.24 2.918.525 4.266h-3.75a13.747 13.747 0 0 1-1.022-4.266zm2.137 6.4h3.194c.623 1.958 1.478 3.675 2.511 5.045a13.925 13.925 0 0 1-5.705-5.045zm10.622 6.263c-2.193-.587-4.08-2.942-5.226-6.263h5.226zm0-8.397H9.107c-.3-1.329-.49-2.764-.552-4.266h6.378zm0-6.4H8.555c.062-1.502.251-2.937.552-4.266h5.826zm0-6.4H9.707c1.145-3.321 3.033-5.676 5.226-6.261zm12.756 0h-3.192c-.625-1.958-1.478-3.675-2.513-5.045a13.953 13.953 0 0 1 5.705 5.045zM17.067 2.272c2.19.585 4.08 2.94 5.226 6.261h-5.226zm0 8.395h5.824c.303 1.329.488 2.764.554 4.266h-6.378zm0 6.4h6.378a23.648 23.648 0 0 1-.554 4.266h-5.824zm0 12.663v-6.263h5.226c-1.145 3.321-3.035 5.676-5.226 6.263zm4.917-1.218c1.03-1.372 1.888-3.087 2.513-5.045h3.192a13.938 13.938 0 0 1-5.705 5.045zm6.82-7.179h-3.75c.286-1.348.467-2.78.525-4.266h4.245a13.685 13.685 0 0 1-1.02 4.266zm-3.225-6.4a25.335 25.335 0 0 0-.525-4.266h3.75c.555 1.329.91 2.764 1.022 4.266z"/>
    </symbol>

    <symbol id="icon-email" viewBox="0 0 32 32">
        <path d="M2.276 4.771h27.448L16 17.841 2.276 4.769zm20.44 11.16L32 7.191v18.344l-9.28-9.606zM0 25.535V7.187l9.354 8.776zm20.948-7.944l9.32 9.64h-28.5l9.356-9.532L16 22.279l4.948-4.692z"/>
    </symbol>

    <symbol id="icon-facebook" viewBox="0 0 32 32">
        <path d="M27.688 0H4.312A4.312 4.312 0 0 0 0 4.312v23.376A4.312 4.312 0 0 0 4.312 32h11.529l.02-11.435H12.89a.7.7 0 0 1-.701-.698l-.014-3.686a.701.701 0 0 1 .7-.704h2.966v-3.562c0-4.133 2.524-6.383 6.211-6.383h3.026a.7.7 0 0 1 .7.7v3.109a.7.7 0 0 1-.7.7l-1.856.001c-2.006 0-2.394.953-2.394 2.352v3.083h4.406a.7.7 0 0 1 .696.784l-.437 3.686a.701.701 0 0 1-.696.618h-3.95L20.829 32h6.86A4.312 4.312 0 0 0 32 27.688V4.312A4.312 4.312 0 0 0 27.688 0z"/>
    </symbol>

    <symbol id="icon-instagram" viewBox="0 0 32 32">
        <path d="M22.466 0H9.533C4.276 0 0 4.276 0 9.533v12.933c0 5.256 4.276 9.533 9.533 9.533h12.933c5.256 0 9.533-4.277 9.533-9.533V9.533C31.999 4.276 27.722 0 22.466 0zm6.313 22.466a6.314 6.314 0 0 1-6.313 6.313H9.533a6.314 6.314 0 0 1-6.314-6.313V9.533a6.313 6.313 0 0 1 6.314-6.314h12.933a6.313 6.313 0 0 1 6.313 6.314z"/>
        <path d="M16 7.723c-4.564 0-8.277 3.713-8.277 8.276 0 4.564 3.713 8.276 8.276 8.276 4.564 0 8.276-3.712 8.276-8.276 0-4.563-3.712-8.276-8.276-8.276zm0 13.333a5.057 5.057 0 1 1 0-10.114 5.057 5.057 0 0 1 0 10.114zM26.274 7.785a1.983 1.983 0 0 1-1.983 1.984 1.983 1.983 0 0 1-1.983-1.984 1.983 1.983 0 0 1 1.983-1.983 1.983 1.983 0 0 1 1.983 1.983z"/>
    </symbol>

    <symbol id="icon-pinterest" viewBox="0 0 32 32">
        <path d="M32 16a16 16 0 0 1-16 16A16 16 0 0 1 0 16 16 16 0 0 1 16 0a16 16 0 0 1 16 16z"/>
        <path fill="#fff" d="M17.291 21.425c-1.21-.093-1.717-.693-2.666-1.269-.521 2.736-1.159 5.358-3.046 6.728-.583-4.135.855-7.24 1.523-10.536-1.138-1.917.137-5.775 2.539-4.824 2.955 1.169-2.56 7.127 1.143 7.87 3.865.778 5.443-6.706 3.046-9.14-3.463-3.514-10.08-.08-9.267 4.951.198 1.23 1.47 1.603.508 3.3-2.217-.49-2.878-2.239-2.793-4.57.137-3.814 3.428-6.485 6.728-6.855 4.174-.467 8.092 1.533 8.633 5.46.608 4.43-1.884 9.23-6.348 8.885z"/>
    </symbol>

    <symbol id="icon-googleplus" viewBox="0 0 32 32">
        <path d="M32 16a16 16 0 0 1-16 16A16 16 0 0 1 0 16 16 16 0 0 1 16 0a16 16 0 0 1 16 16z"/>
        <path fill="#fff" d="M5.57 16.716c-.129-3.402 2.851-6.545 6.256-6.586 1.736-.148 3.424.526 4.738 1.625a29.933 29.933 0 0 1-1.673 1.726c-1.156-.702-2.548-1.238-3.9-.762-2.18.62-3.5 3.194-2.693 5.326.668 2.227 3.377 3.45 5.5 2.514 1.1-.394 1.824-1.408 2.142-2.498-1.26-.025-2.52-.01-3.78-.044-.003-.75-.006-1.496-.003-2.246 2.1-.003 4.205-.01 6.309.01.13 1.836-.142 3.802-1.336 5.276-1.635 2.104-4.655 2.721-7.112 1.896-2.608-.857-4.504-3.484-4.447-6.237zM22.561 13.881h1.874c.003.627.01 1.257.013 1.884.626.006 1.256.01 1.883.012v1.878l-1.883.009c-.007.63-.01 1.257-.013 1.887-.627-.003-1.254 0-1.877 0-.006-.63-.006-1.257-.013-1.884-.627-.007-1.257-.01-1.883-.013v-1.877c.626-.003 1.253-.006 1.883-.013.003-.626.01-1.256.016-1.883z"/>
    </symbol>

    <symbol id="icon-whatsapp" viewBox="0 0 32 32">
        <path d="M.076 32l2.25-8.217a15.823 15.823 0 0 1-2.117-7.928C.213 7.113 7.327 0 16.067 0a15.756 15.756 0 0 1 11.217 4.65 15.765 15.765 0 0 1 4.64 11.22c-.004 8.742-7.117 15.855-15.857 15.855a15.867 15.867 0 0 1-7.584-1.93zm8.796-5.076c2.235 1.327 4.368 2.121 7.19 2.123 7.263 0 13.18-5.912 13.185-13.18.002-7.283-5.887-13.187-13.175-13.19-7.27 0-13.183 5.912-13.185 13.179-.002 2.967.868 5.188 2.328 7.512l-1.332 4.864zm15.183-7.285c-.1-.166-.363-.264-.76-.463-.396-.199-2.344-1.157-2.708-1.29-.363-.131-.627-.198-.892.2-.264.395-1.024 1.289-1.255 1.553-.23.264-.463.297-.859.098-.396-.198-1.673-.616-3.186-1.966-1.178-1.051-1.974-2.348-2.204-2.746-.231-.396-.024-.61.173-.808.179-.177.396-.462.595-.694.201-.23.266-.395.4-.66.132-.264.066-.496-.034-.695-.1-.197-.892-2.148-1.221-2.941-.323-.772-.65-.668-.892-.68l-.76-.014c-.264 0-.693.099-1.056.496-.363.398-1.387 1.355-1.387 3.306 0 1.95 1.42 3.834 1.618 4.098.198.264 2.793 4.267 6.768 5.983.945.408 1.684.652 2.258.835.95.301 1.814.258 2.496.157.762-.113 2.344-.959 2.675-1.884.33-.927.33-1.72.23-1.885z"/>
    </symbol>

    <symbol id="icon-arrow" viewBox="0 0 32 32">
        <path d="M8 12.5l2-1 6 6 6-6 2 1-8 8z"/>
    </symbol>

    <symbol id="icon-arrow-small" viewBox="0 0 32 32">
        <path d="M10 13.333l1.5-.75 4.5 4.5 4.5-4.5 1.5.75-6 6z"/>
    </symbol>

    <symbol id="icon-filter" viewBox="0 0 32 32">
        <path d="M 3.919922,4.691405 C 6.945003,8.475895 9.9730162,12.258045 13,16.041015 v 11.26758 l 6,-3 v -8.26758 l 9.080078,-11.34961 z m 4.1621092,2 H 23.917969 L 17,15.339845 v 7.73242 l -2,1 v -8.73242 z" />
    </symbol>

    <symbol id="icon-paypal" viewBox="0 0 32 32">
        <path d="M10.144 30.915l.555-3.522-1.236-.03H3.564l4.1-25.993a.335.335 0 0 1 .333-.284h9.947c3.302 0 5.58.687 6.77 2.043.558.637.913 1.301 1.085 2.033.18.768.184 1.685.007 2.804l-.012.081v.717l.558.316c.47.25.843.535 1.129.861.477.544.786 1.236.916 2.055.135.843.09 1.847-.13 2.982-.255 1.307-.666 2.445-1.222 3.376a6.942 6.942 0 0 1-1.935 2.12c-.738.524-1.615.922-2.607 1.176-.96.25-2.056.377-3.257.377h-.774c-.554 0-1.092.2-1.514.557a2.343 2.343 0 0 0-.789 1.408l-.058.317-.98 6.209-.044.228c-.012.072-.032.108-.062.132a.164.164 0 0 1-.102.037z" fill="#253b80"/>
        <path d="M26.88 8.13c-.03.19-.064.384-.102.583-1.312 6.735-5.8 9.062-11.531 9.062h-2.918c-.701 0-1.292.509-1.401 1.2l-1.494 9.476-.423 2.686a.747.747 0 0 0 .737.863h5.175c.613 0 1.134-.445 1.23-1.05l.051-.263.975-6.184.063-.34a1.245 1.245 0 0 1 1.23-1.051h.774c5.014 0 8.94-2.036 10.087-7.928.48-2.461.232-4.516-1.037-5.962A4.949 4.949 0 0 0 26.88 8.13z" fill="#179bd7"/>
        <path d="M25.507 7.583a10.346 10.346 0 0 0-1.275-.283 16.207 16.207 0 0 0-2.573-.188h-7.796a1.243 1.243 0 0 0-1.229 1.052L10.976 18.67l-.048.306c.11-.691.7-1.2 1.4-1.2h2.919c5.731 0 10.22-2.328 11.53-9.062.04-.199.073-.393.103-.583a6.992 6.992 0 0 0-1.079-.455 9.591 9.591 0 0 0-.294-.092z" fill="#222d65"/><path d="M12.634 8.164a1.24 1.24 0 0 1 1.23-1.05h7.795c.924 0 1.786.06 2.573.187a10.346 10.346 0 0 1 1.57.374c.387.129.747.28 1.079.455.39-2.489-.004-4.183-1.35-5.718C24.049.723 21.372 0 17.946 0H7.998c-.7 0-1.297.509-1.405 1.201L2.45 27.463c-.082.52.32.988.843.988h6.14l1.543-9.782z" fill="#253b80"/>
    </symbol>

    <symbol id="icon-flag-nl" viewBox="0 0 32 32">
        <path d="M4 7h24v6H4z" fill="#ae1c28"/>
        <path d="M4 19h24v6H4z" fill="#21468b"/>
        <path d="M4 13h24v6H4z" fill="#fff"/>
    </symbol>

    <symbol id="icon-flag-be" viewBox="0 0 32 32">
        <path d="M4 25h8V7H4z" fill="#000"/>
        <path d="M12 25h8V7h-8z" fill="#ffd90c"/>
        <path d="M20 25h8V7h-8z" fill="#f31830"/>
    </symbol>

    <symbol id="icon-flag-de" viewBox="0 0 32 32">
        <path d="M4 13h24v6H4z" fill="#f00"/>
        <path d="M4 19h24v6H4z" fill="#ffe600"/>
        <path d="M4 7h24v6H4z" fill="#000"/>
    </symbol>

    <symbol id="icon-flag-fr" viewBox="0 0 32 32">
        <path d="M12 25h8V7h-8z" fill="#fff"/>
        <path d="M4 25h8V7H4z" fill="#00267f"/>
        <path d="M20 25h8V7h-8z" fill="#f31830"/>
    </symbol>

    <symbol id="icon-flag-es" viewBox="0 0 32 32">
        <path d="M4 7h24v18H4z" fill="#c60b1e"/>
        <path d="M4 11.5h24v9H4z" fill="#ffc400"/>
    </symbol>

    <symbol id="icon-flag-uk" viewBox="0 0 32 32">
        <path d="M4 7h24v18H4z" fill="#006"/>
        <path d="M13 7v5.488l-9-4.5v4.024L5.977 13H4v6h1.977L4 19.988v4.024l9-4.5V25h6v-5.488l9 4.5v-4.024L26.023 19H28v-6h-1.977L28 12.012V7.988l-9 4.5V7z" fill="#fff"/>
        <path d="M14.2 7v7.2H4v3.6h10.2V25h3.6v-7.2H28v-3.6H17.8V7z" fill="#c00"/>
        <path d="M28 8.658L19.316 13H22l6-3zM4 10v1.342L7.316 13H10zm6 9l-6 3v1.342L12.684 19zm12 0l6 3v-1.342L24.684 19z" fill="#c00"/>
    </symbol>

    <symbol id="icon-tracktrace" viewBox="0 0 32 32">
        <path d="M21.493 19.11l-1.547-3.073v3.072zm10.427 5.996h-6.79c-.378 0-.725-.214-.895-.552l-1.733-3.441h-3.558a1.001 1.001 0 01-1.001-1.002v-6.984h-5.091c-.365 0-.701-.198-.878-.517L7.435 4.38a1.002 1.002 0 01.586-1.442c17.569-5.34 25.487 3.567 18.337 9.46l4.154 8.613c.162.336-1.699.06-2.054-.082-.34-.137-.453-.505-.627-.864l-3.62-7.505c-.2-.415-.09-.914.267-1.207 1.233-1.018 3.462-2.438 2.267-4.667-1.311-2.444-6.758-4.7-16.95-2.175l3.648 6.613h5.654c.379 0 .725.213.895.55l5.755 11.428h4.164c.399 0 .779-.057 1.05.19.284.256 1.333 1.814.96 1.814M0 30.703h3.96v-15.36H0zm11.306 0h2.003v-15.36h-2.003zm-6.01 0H6.63v-15.36H5.296zm2.721-15.36H9.97v15.36H8.017z"/>
    </symbol>

    <symbol id="icon-cross" viewBox="0 0 32 32">
        <path d="M8.5 4L4 8.5l7.5 7.5L4 23.5 8.5 28l7.5-7.5 7.5 7.5 4.5-4.5-7.5-7.5L28 8.5 23.5 4l-7.5 7.5z"/>
    </symbol>

    <symbol id="icon-energylabel-aplus">
        <path d="M0 4h24l8 12.125L24 28H0z" fill="#009036"/>
        <path d="M18.879 22.8h-2.446q-.41 0-.681-.187-.261-.196-.364-.495l-.803-2.37h-5.17l-.803 2.37q-.093.261-.364.476-.27.205-.663.205H5.121l5.264-13.598h3.23zm-8.736-5.2h3.714l-1.25-3.723q-.122-.355-.29-.831-.158-.485-.317-1.045-.15.569-.308 1.054-.159.486-.299.84z" fill="#fff"/>
        <path d="M21.533 6.56V9.2H24v1.48h-2.467v2.654h-1.68v-2.653H17.4V9.2h2.453V6.56z" fill="#fff"/></svg>
    </symbol>

    <symbol id="icon-energylabel-a">
        <path fill="#009036" d="M0 0h24l8 12.125L24 24H0z"/>
        <path fill="#fff" d="M18.879 18.8h-2.446q-.41 0-.681-.187-.261-.196-.364-.495l-.803-2.37h-5.17l-.803 2.37q-.093.261-.364.476-.27.205-.663.205H5.121l5.264-13.598h3.23zm-8.736-5.2h3.714l-1.25-3.723q-.122-.355-.29-.831-.158-.485-.317-1.045-.15.569-.308 1.054-.159.486-.299.84z"/>
    </symbol>

    <symbol id="icon-energylabel-b">
        <path d="M0 4h24l8 12.125L24 28H0z" fill="#58ab27"/>
        <path d="M6.736 22.8V9.2h5.003q1.409 0 2.398.262.99.261 1.615.737t.905 1.158q.29.681.29 1.521 0 .457-.131.887-.13.42-.41.793-.28.373-.72.681-.438.299-1.054.523 1.344.327 1.988 1.064.644.728.644 1.876 0 .868-.336 1.615-.336.746-.99 1.306-.643.551-1.595.868-.952.308-2.175.308zm3.155-5.769v3.388h2.221q.625 0 1.017-.158.402-.159.626-.411.224-.252.308-.57.084-.317.084-.643 0-.374-.103-.672-.093-.299-.336-.504-.233-.206-.625-.318-.392-.112-.99-.112zm0-2.109h1.642q.523 0 .943-.075.42-.074.71-.261.298-.187.447-.513.159-.327.159-.822 0-.485-.121-.802-.122-.327-.374-.523t-.644-.28q-.382-.084-.914-.084H9.89z" fill="#fff"/>
    </symbol>

    <symbol id="icon-energylabel-c">
        <path d="M0 4h24l8 12.125L24 28H0z" fill="#b1c800"/>
        <path d="M16.032 19.28q.112 0 .224.047.112.038.215.14l1.25 1.316q-.821 1.074-2.062 1.624-1.232.542-2.922.542-1.549 0-2.781-.523-1.223-.532-2.081-1.456-.85-.933-1.307-2.203-.457-1.278-.457-2.772 0-1.521.522-2.79.523-1.279 1.456-2.203.943-.924 2.25-1.437 1.306-.514 2.884-.514.765 0 1.437.14.681.131 1.27.374.587.233 1.082.569.495.327.877.728l-1.064 1.428q-.102.13-.242.243-.14.102-.392.102-.168 0-.318-.074-.149-.075-.317-.178-.168-.112-.373-.233-.196-.13-.476-.233-.271-.112-.644-.187-.364-.075-.859-.075-.859 0-1.568.308-.71.299-1.223.868-.504.56-.793 1.363-.28.803-.28 1.801 0 1.046.28 1.858.29.812.775 1.372.494.55 1.148.84.653.289 1.4.289.429 0 .784-.037.354-.047.653-.15.308-.102.579-.261.28-.168.56-.41.112-.094.242-.15.131-.065.271-.065z" fill="#fff"/>
    </symbol>

    <symbol id="icon-energylabel-d">
        <path d="M0 4h24l8 12.125L24 28H0z" fill="#ffec00"/>
        <path d="M18.17 15.995q0 1.475-.514 2.726-.504 1.241-1.428 2.156-.924.905-2.23 1.418-1.298.504-2.885.504H5.831V9.201h5.282q1.587 0 2.884.513 1.307.513 2.231 1.419.924.905 1.428 2.156.513 1.241.513 2.706zm-3.23 0q0-1.008-.261-1.82-.262-.812-.756-1.372-.486-.569-1.195-.868-.71-.308-1.615-.308H9.004v8.746h2.11q.905 0 1.614-.299.71-.308 1.195-.868.494-.57.756-1.381.261-.812.261-1.83z"/>
    </symbol>

    <symbol id="icon-energylabel-e">
    </symbol>

    <symbol id="icon-energylabel-f">
    </symbol>

    <symbol id="icon-energylabel-g">
    </symbol>
</svg>
