<svg xmlns="http://www.w3.org/2000/svg" style="display: none;">
    <symbol id="cart" viewBox="0 0 32 32">
        <path d="M4.81 5.73h2.137c.815-.014 1.434.458 1.698.88.235.352.312.66.34.79l.422 1.675h18.106c.147 0 .283.064.376.177.092.112.13.26.1.403l-1.834 9.287c-.046.228-.246.392-.478.392h-13.74l.455 1.84h12.335c.448 0 .81.363.81.81 0 .45-.362.812-.81.812h-.856c.455.356.748.908.748 1.53 0 1.073-.87 1.943-1.942 1.943-1.073 0-1.943-.87-1.943-1.944 0-.622.293-1.174.748-1.53h-6.805c.454.356.748.908.748 1.53 0 1.073-.87 1.943-1.943 1.943-1.072 0-1.942-.87-1.942-1.944 0-.622.294-1.174.75-1.53h-.532c-.373 0-.7-.255-.788-.617L7.407 7.78l-.01-.05c-.006-.028-.054-.17-.12-.246-.08-.074-.096-.12-.33-.13H4.81c-.446 0-.81-.364-.81-.812 0-.448.364-.81.81-.81zm11.38 4.317h-2.958l.25 2.234h2.768l-.06-2.233zm10.73 0H23.7l-.194 2.234h2.974l.44-2.233zm-.56 2.845h-2.907l-.194 2.228h2.66l.44-2.228zm-1.08 5.47l.518-2.63h-2.592l-.23 2.63h2.303zm-2.193-8.315h-2.855l-.06 2.234h2.72l.195-2.233zm-.247 2.845h-2.684l-.06 2.228h2.55l.194-2.228zm-.476 5.47l.23-2.63H20.08l-.07 2.63h2.354zm-5.34 0H19.4l.07-2.63h-2.516l.07 2.63zm-.087-3.242h2.55l.058-2.228h-2.667l.06 2.228zm-.076-2.84h2.702l.06-2.233H16.8l.06 2.234zm-2.693 6.082h2.245l-.07-2.63h-2.47l.295 2.63zm2.16-3.242l-.06-2.228H13.55l.25 2.228h2.524zm-4.628 3.242h1.852l-.296-2.63H11.05l.65 2.63zm-.8-3.242h2.287l-.25-2.228H10.35l.55 2.228zm-.7-2.84h2.668l-.25-2.233h-2.97l.55 2.234"/>
    </symbol>

    <symbol id="user" viewBox="0 0 32 32">
        <path d="M22.79 21.668Q28 23.506 28 24.783v2.706H4v-2.71q0-1.28 5.21-3.118 2.4-.868 3.267-1.762.868-.892.868-2.424 0-.56-.562-1.25t-.817-1.864q-.05-.306-.23-.46-.18-.153-.357-.204-.18-.05-.36-.435-.18-.383-.23-1.098 0-.408.13-.664.122-.253.23-.304l.1-.102q-.208-1.277-.31-2.247-.1-1.378 1.046-2.86Q13.14 4.51 16 4.51t4.034 1.48q1.175 1.482 1.02 2.86l-.304 2.25q.46.204.46 1.072-.053.715-.23 1.098-.18.383-.36.434-.177.05-.356.204-.18.154-.23.46-.204 1.225-.79 1.89-.59.663-.59 1.225 0 1.533.895 2.426.89.89 3.24 1.76z" />
    </symbol>
</svg>
