<svg xmlns="http://www.w3.org/2000/svg" viewBox="0 0 32 32" role="img">
    <symbol id="icon-notification-info" viewBox="0 0 32 32">
        <path d="M32 16a16 16 0 0 1-16 16A16 16 0 0 1 0 16 16 16 0 0 1 16 0a16 16 0 0 1 16 16z"/>
        <path fill="#fff" d="M18.01 12.2V26h-4.126V12.2zm.478-3.778q0 .492-.2.931-.199.426-.545.759-.346.32-.812.519-.452.186-.97.186-.507 0-.946-.186-.439-.2-.785-.52-.332-.332-.532-.758-.186-.439-.186-.931 0-.506.186-.945.2-.44.532-.772.346-.332.785-.519.44-.186.945-.186.519 0 .971.186.466.187.812.52.346.332.546.771.2.44.2.945z"/>
    </symbol>

    <symbol id="icon-seen" viewBox="0 0 32 32">
        <path d="M29.171 15.536A13.172 8.707 0 0 1 16 24.242a13.172 8.707 0 0 1-13.172-8.707A13.172 8.707 0 0 1 16 6.827a13.172 8.707 0 0 1 13.172 8.707z" fill="#fff"/>
        <path d="M24 16a8 8 0 0 1-8 8 8 8 0 0 1-8-8 8 8 0 0 1 8-8 8 8 0 0 1 8 8z" fill="#b8b8b8"/>
        <path d="M31.729 15.152c-.284-.4-7.003-9.819-15.73-9.819C7.275 5.333.554 14.747.273 15.15a1.46 1.46 0 0 0 0 1.7c.28.402 7.002 9.818 15.727 9.818 8.73 0 15.45-9.419 15.73-9.82.36-.517.36-1.18 0-1.697zm-6.824 4.268c-2.13 1.874-5.404 4.11-8.905 4.11-5.52 0-10.45-5.402-12.18-7.531C5.55 13.869 10.48 8.47 16 8.47c5.527 0 10.457 5.401 12.186 7.529a28.898 28.898 0 0 1-3.276 3.418" fill="#606060"/>
        <path d="M19 16a3 3 0 0 1-3 3 3 3 0 0 1-3-3 3 3 0 0 1 3-3 3 3 0 0 1 3 3z" fill="#262626"/>
        <path d="M20 13.5a1.5 1.5 0 0 1-1.5 1.5 1.5 1.5 0 0 1-1.5-1.5 1.5 1.5 0 0 1 1.5-1.5 1.5 1.5 0 0 1 1.5 1.5z" fill="#fff"/>
    </symbol>

    <symbol id="icon-instock" viewBox="0 0 32 32">
        <path d="M6 12a3 3 0 0 1-3 3 3 3 0 0 1-3-3 3 3 0 0 1 3-3 3 3 0 0 1 3 3zM15 12a3 3 0 0 1-3 3 3 3 0 0 1-3-3 3 3 0 0 1 3-3 3 3 0 0 1 3 3zM24 12a3 3 0 0 1-3 3 3 3 0 0 1-3-3 3 3 0 0 1 3-3 3 3 0 0 1 3 3z"/>
    </symbol>

    <symbol id="icon-runningout" viewBox="0 0 32 32">
        <path d="M10.5 12a3 3 0 0 1-3 3 3 3 0 0 1-3-3 3 3 0 0 1 3-3 3 3 0 0 1 3 3zM19.5 12a3 3 0 0 1-3 3 3 3 0 0 1-3-3 3 3 0 0 1 3-3 3 3 0 0 1 3 3z"/>
    </symbol>

    <symbol id="icon-outofstock" viewBox="0 0 32 32">
        <path d="M15 12a3 3 0 0 1-3 3 3 3 0 0 1-3-3 3 3 0 0 1 3-3 3 3 0 0 1 3 3z"/>
    </symbol>

    <symbol id="icon-phone" viewBox="0 0 32 32">
          <path d="M32 25.284q0 .61-.244 1.589-.244.976-.488 1.546-.448 1.14-2.767 2.44Q26.385 32 24.309 32q-.65 0-1.22-.08-.567-.08-1.3-.286-.733-.204-1.059-.326l-2.4-.852q-2.199-.815-3.947-1.913-2.935-1.792-6.027-4.881-3.091-3.097-4.879-6.028-1.1-1.754-1.873-3.953l-.414-1.14q-.326-.936-.488-1.26-.16-.326-.328-1.06L.09 8.92Q-.03 8.347.01 7.74q0-2.12 1.18-4.233 1.26-2.32 2.4-2.77.57-.247 1.545-.49Q6.111 0 6.721 0q.33 0 .492.08.406.124 1.22 1.752.243.413.65 1.22.413.821.82 1.431.407.612.691 1.224.08.08.408.569.32.492.486.82.16.32.16.648 0 .444-.648 1.14-.656.688-1.43 1.22-.772.527-1.384 1.22-.607.691-.647 1.021 0 .2.12.524l.16.446q.04.12.325.568.284.449.284.409 1.71 3.13 3.948 5.37 2.24 2.241 5.329 3.95.04 0 .408.24.366.246.57.326l.445.204q.24.12.524.08.406 0 1.02-.606.608-.61 1.22-1.42.608-.82 1.26-1.429.652-.614 1.14-.654.28 0 .607.16.324.164.812.49.488.324.57.406l2.646 1.507q.771.448 1.26.692 1.587.776 1.709 1.18.08.164.08.49z"/>
    </symbol>

    <symbol id="icon-website" viewBox="0 0 32 32">
        <path d="M31.962 14.933C31.437 6.946 25.054.561 17.067.036V0h-2.134v.036C6.946.561.561 6.946.036 14.933H0v2.134h.036c.525 7.987 6.91 14.37 14.897 14.895V32h2.134v-.038c7.987-.525 14.37-6.908 14.895-14.895H32v-2.134zM10.016 3.488c-1.03 1.37-1.886 3.087-2.509 5.045H4.311a13.94 13.94 0 0 1 5.705-5.045zm-6.82 7.179h3.75a25.335 25.335 0 0 0-.525 4.266H2.174a13.747 13.747 0 0 1 1.022-4.266zm-1.022 6.4H6.42c.058 1.487.24 2.918.525 4.266h-3.75a13.747 13.747 0 0 1-1.022-4.266zm2.137 6.4h3.194c.623 1.958 1.478 3.675 2.511 5.045a13.925 13.925 0 0 1-5.705-5.045zm10.622 6.263c-2.193-.587-4.08-2.942-5.226-6.263h5.226zm0-8.397H9.107c-.3-1.329-.49-2.764-.552-4.266h6.378zm0-6.4H8.555c.062-1.502.251-2.937.552-4.266h5.826zm0-6.4H9.707c1.145-3.321 3.033-5.676 5.226-6.261zm12.756 0h-3.192c-.625-1.958-1.478-3.675-2.513-5.045a13.953 13.953 0 0 1 5.705 5.045zM17.067 2.272c2.19.585 4.08 2.94 5.226 6.261h-5.226zm0 8.395h5.824c.303 1.329.488 2.764.554 4.266h-6.378zm0 6.4h6.378a23.648 23.648 0 0 1-.554 4.266h-5.824zm0 12.663v-6.263h5.226c-1.145 3.321-3.035 5.676-5.226 6.263zm4.917-1.218c1.03-1.372 1.888-3.087 2.513-5.045h3.192a13.938 13.938 0 0 1-5.705 5.045zm6.82-7.179h-3.75c.286-1.348.467-2.78.525-4.266h4.245a13.685 13.685 0 0 1-1.02 4.266zm-3.225-6.4a25.335 25.335 0 0 0-.525-4.266h3.75c.555 1.329.91 2.764 1.022 4.266z"/>
    </symbol>

    <symbol id="icon-email" viewBox="0 0 32 32">
        <path d="M2.276 4.771h27.448L16 17.841 2.276 4.769zm20.44 11.16L32 7.191v18.344l-9.28-9.606zM0 25.535V7.187l9.354 8.776zm20.948-7.944l9.32 9.64h-28.5l9.356-9.532L16 22.279l4.948-4.692z"/>
    </symbol>

    <symbol id="icon-facebook" viewBox="0 0 32 32">
        <path d="M27.688 0H4.312A4.312 4.312 0 0 0 0 4.312v23.376A4.312 4.312 0 0 0 4.312 32h11.529l.02-11.435H12.89a.7.7 0 0 1-.701-.698l-.014-3.686a.701.701 0 0 1 .7-.704h2.966v-3.562c0-4.133 2.524-6.383 6.211-6.383h3.026a.7.7 0 0 1 .7.7v3.109a.7.7 0 0 1-.7.7l-1.856.001c-2.006 0-2.394.953-2.394 2.352v3.083h4.406a.7.7 0 0 1 .696.784l-.437 3.686a.701.701 0 0 1-.696.618h-3.95L20.829 32h6.86A4.312 4.312 0 0 0 32 27.688V4.312A4.312 4.312 0 0 0 27.688 0z"/>
    </symbol>

    <symbol id="icon-instagram" viewBox="0 0 32 32">
        <path d="M22.466 0H9.533C4.276 0 0 4.276 0 9.533v12.933c0 5.256 4.276 9.533 9.533 9.533h12.933c5.256 0 9.533-4.277 9.533-9.533V9.533C31.999 4.276 27.722 0 22.466 0zm6.313 22.466a6.314 6.314 0 0 1-6.313 6.313H9.533a6.314 6.314 0 0 1-6.314-6.313V9.533a6.313 6.313 0 0 1 6.314-6.314h12.933a6.313 6.313 0 0 1 6.313 6.314z"/>
        <path d="M16 7.723c-4.564 0-8.277 3.713-8.277 8.276 0 4.564 3.713 8.276 8.276 8.276 4.564 0 8.276-3.712 8.276-8.276 0-4.563-3.712-8.276-8.276-8.276zm0 13.333a5.057 5.057 0 1 1 0-10.114 5.057 5.057 0 0 1 0 10.114zM26.274 7.785a1.983 1.983 0 0 1-1.983 1.984 1.983 1.983 0 0 1-1.983-1.984 1.983 1.983 0 0 1 1.983-1.983 1.983 1.983 0 0 1 1.983 1.983z"/>
    </symbol>

    <symbol id="icon-pinterest" viewBox="0 0 32 32">
        <path d="M32 16a16 16 0 0 1-16 16A16 16 0 0 1 0 16 16 16 0 0 1 16 0a16 16 0 0 1 16 16z"/>
        <path fill="#fff" d="M17.291 21.425c-1.21-.093-1.717-.693-2.666-1.269-.521 2.736-1.159 5.358-3.046 6.728-.583-4.135.855-7.24 1.523-10.536-1.138-1.917.137-5.775 2.539-4.824 2.955 1.169-2.56 7.127 1.143 7.87 3.865.778 5.443-6.706 3.046-9.14-3.463-3.514-10.08-.08-9.267 4.951.198 1.23 1.47 1.603.508 3.3-2.217-.49-2.878-2.239-2.793-4.57.137-3.814 3.428-6.485 6.728-6.855 4.174-.467 8.092 1.533 8.633 5.46.608 4.43-1.884 9.23-6.348 8.885z"/>
    </symbol>

    <symbol id="icon-googleplus" viewBox="0 0 32 32">
        <path d="M32 16a16 16 0 0 1-16 16A16 16 0 0 1 0 16 16 16 0 0 1 16 0a16 16 0 0 1 16 16z"/>
        <path fill="#fff" d="M5.57 16.716c-.129-3.402 2.851-6.545 6.256-6.586 1.736-.148 3.424.526 4.738 1.625a29.933 29.933 0 0 1-1.673 1.726c-1.156-.702-2.548-1.238-3.9-.762-2.18.62-3.5 3.194-2.693 5.326.668 2.227 3.377 3.45 5.5 2.514 1.1-.394 1.824-1.408 2.142-2.498-1.26-.025-2.52-.01-3.78-.044-.003-.75-.006-1.496-.003-2.246 2.1-.003 4.205-.01 6.309.01.13 1.836-.142 3.802-1.336 5.276-1.635 2.104-4.655 2.721-7.112 1.896-2.608-.857-4.504-3.484-4.447-6.237zM22.561 13.881h1.874c.003.627.01 1.257.013 1.884.626.006 1.256.01 1.883.012v1.878l-1.883.009c-.007.63-.01 1.257-.013 1.887-.627-.003-1.254 0-1.877 0-.006-.63-.006-1.257-.013-1.884-.627-.007-1.257-.01-1.883-.013v-1.877c.626-.003 1.253-.006 1.883-.013.003-.626.01-1.256.016-1.883z"/>
    </symbol>

    <symbol id="icon-whatsapp" viewBox="0 0 32 32">
        <path d="M.076 32l2.25-8.217a15.823 15.823 0 0 1-2.117-7.928C.213 7.113 7.327 0 16.067 0a15.756 15.756 0 0 1 11.217 4.65 15.765 15.765 0 0 1 4.64 11.22c-.004 8.742-7.117 15.855-15.857 15.855a15.867 15.867 0 0 1-7.584-1.93zm8.796-5.076c2.235 1.327 4.368 2.121 7.19 2.123 7.263 0 13.18-5.912 13.185-13.18.002-7.283-5.887-13.187-13.175-13.19-7.27 0-13.183 5.912-13.185 13.179-.002 2.967.868 5.188 2.328 7.512l-1.332 4.864zm15.183-7.285c-.1-.166-.363-.264-.76-.463-.396-.199-2.344-1.157-2.708-1.29-.363-.131-.627-.198-.892.2-.264.395-1.024 1.289-1.255 1.553-.23.264-.463.297-.859.098-.396-.198-1.673-.616-3.186-1.966-1.178-1.051-1.974-2.348-2.204-2.746-.231-.396-.024-.61.173-.808.179-.177.396-.462.595-.694.201-.23.266-.395.4-.66.132-.264.066-.496-.034-.695-.1-.197-.892-2.148-1.221-2.941-.323-.772-.65-.668-.892-.68l-.76-.014c-.264 0-.693.099-1.056.496-.363.398-1.387 1.355-1.387 3.306 0 1.95 1.42 3.834 1.618 4.098.198.264 2.793 4.267 6.768 5.983.945.408 1.684.652 2.258.835.95.301 1.814.258 2.496.157.762-.113 2.344-.959 2.675-1.884.33-.927.33-1.72.23-1.885z"/>
    </symbol>

    <symbol id="icon-arrow" viewBox="0 0 32 32">
        <path d="M8 12.5l2-1 6 6 6-6 2 1-8 8z"/>
    </symbol>

    <symbol id="icon-arrow-small" viewBox="0 0 32 32">
        <path d="M10 13.333l1.5-.75 4.5 4.5 4.5-4.5 1.5.75-6 6z"/>
    </symbol>

    <symbol id="icon-filter" viewBox="0 0 32 32">
        <path d="M 3.919922,4.691405 C 6.945003,8.475895 9.9730162,12.258045 13,16.041015 v 11.26758 l 6,-3 v -8.26758 l 9.080078,-11.34961 z m 4.1621092,2 H 23.917969 L 17,15.339845 v 7.73242 l -2,1 v -8.73242 z" />
    </symbol>

    <symbol id="icon-paypal" viewBox="0 0 32 32">
        <path d="M10.144 30.915l.555-3.522-1.236-.03H3.564l4.1-25.993a.335.335 0 0 1 .333-.284h9.947c3.302 0 5.58.687 6.77 2.043.558.637.913 1.301 1.085 2.033.18.768.184 1.685.007 2.804l-.012.081v.717l.558.316c.47.25.843.535 1.129.861.477.544.786 1.236.916 2.055.135.843.09 1.847-.13 2.982-.255 1.307-.666 2.445-1.222 3.376a6.942 6.942 0 0 1-1.935 2.12c-.738.524-1.615.922-2.607 1.176-.96.25-2.056.377-3.257.377h-.774c-.554 0-1.092.2-1.514.557a2.343 2.343 0 0 0-.789 1.408l-.058.317-.98 6.209-.044.228c-.012.072-.032.108-.062.132a.164.164 0 0 1-.102.037z" fill="#253b80"/>
        <path d="M26.88 8.13c-.03.19-.064.384-.102.583-1.312 6.735-5.8 9.062-11.531 9.062h-2.918c-.701 0-1.292.509-1.401 1.2l-1.494 9.476-.423 2.686a.747.747 0 0 0 .737.863h5.175c.613 0 1.134-.445 1.23-1.05l.051-.263.975-6.184.063-.34a1.245 1.245 0 0 1 1.23-1.051h.774c5.014 0 8.94-2.036 10.087-7.928.48-2.461.232-4.516-1.037-5.962A4.949 4.949 0 0 0 26.88 8.13z" fill="#179bd7"/>
        <path d="M25.507 7.583a10.346 10.346 0 0 0-1.275-.283 16.207 16.207 0 0 0-2.573-.188h-7.796a1.243 1.243 0 0 0-1.229 1.052L10.976 18.67l-.048.306c.11-.691.7-1.2 1.4-1.2h2.919c5.731 0 10.22-2.328 11.53-9.062.04-.199.073-.393.103-.583a6.992 6.992 0 0 0-1.079-.455 9.591 9.591 0 0 0-.294-.092z" fill="#222d65"/><path d="M12.634 8.164a1.24 1.24 0 0 1 1.23-1.05h7.795c.924 0 1.786.06 2.573.187a10.346 10.346 0 0 1 1.57.374c.387.129.747.28 1.079.455.39-2.489-.004-4.183-1.35-5.718C24.049.723 21.372 0 17.946 0H7.998c-.7 0-1.297.509-1.405 1.201L2.45 27.463c-.082.52.32.988.843.988h6.14l1.543-9.782z" fill="#253b80"/>
    </symbol>

    <symbol id="icon-flag-nl" viewBox="0 0 32 32">
        <path d="M4 7h24v6H4z" fill="#ae1c28"/>
        <path d="M4 19h24v6H4z" fill="#21468b"/>
        <path d="M4 13h24v6H4z" fill="#fff"/>
    </symbol>

    <symbol id="icon-flag-be" viewBox="0 0 32 32">
        <path d="M4 25h8V7H4z" fill="#000"/>
        <path d="M12 25h8V7h-8z" fill="#ffd90c"/>
        <path d="M20 25h8V7h-8z" fill="#f31830"/>
    </symbol>

    <symbol id="icon-flag-de" viewBox="0 0 32 32">
        <path d="M4 13h24v6H4z" fill="#f00"/>
        <path d="M4 19h24v6H4z" fill="#ffe600"/>
        <path d="M4 7h24v6H4z" fill="#000"/>
    </symbol>

    <symbol id="icon-flag-fr" viewBox="0 0 32 32">
        <path d="M12 25h8V7h-8z" fill="#fff"/>
        <path d="M4 25h8V7H4z" fill="#00267f"/>
        <path d="M20 25h8V7h-8z" fill="#f31830"/>
    </symbol>

    <symbol id="icon-flag-es" viewBox="0 0 32 32">
        <path d="M4 7h24v18H4z" fill="#c60b1e"/>
        <path d="M4 11.5h24v9H4z" fill="#ffc400"/>
    </symbol>

    <symbol id="icon-flag-uk" viewBox="0 0 32 32">
        <path d="M4 7h24v18H4z" fill="#006"/>
        <path d="M13 7v5.488l-9-4.5v4.024L5.977 13H4v6h1.977L4 19.988v4.024l9-4.5V25h6v-5.488l9 4.5v-4.024L26.023 19H28v-6h-1.977L28 12.012V7.988l-9 4.5V7z" fill="#fff"/>
        <path d="M14.2 7v7.2H4v3.6h10.2V25h3.6v-7.2H28v-3.6H17.8V7z" fill="#c00"/>
        <path d="M28 8.658L19.316 13H22l6-3zM4 10v1.342L7.316 13H10zm6 9l-6 3v1.342L12.684 19zm12 0l6 3v-1.342L24.684 19z" fill="#c00"/>
    </symbol>

    <symbol id="icon-tracktrace" viewBox="0 0 32 32">
        <path d="M21.493 19.11l-1.547-3.073v3.072zm10.427 5.996h-6.79c-.378 0-.725-.214-.895-.552l-1.733-3.441h-3.558a1.001 1.001 0 01-1.001-1.002v-6.984h-5.091c-.365 0-.701-.198-.878-.517L7.435 4.38a1.002 1.002 0 01.586-1.442c17.569-5.34 25.487 3.567 18.337 9.46l4.154 8.613c.162.336-1.699.06-2.054-.082-.34-.137-.453-.505-.627-.864l-3.62-7.505c-.2-.415-.09-.914.267-1.207 1.233-1.018 3.462-2.438 2.267-4.667-1.311-2.444-6.758-4.7-16.95-2.175l3.648 6.613h5.654c.379 0 .725.213.895.55l5.755 11.428h4.164c.399 0 .779-.057 1.05.19.284.256 1.333 1.814.96 1.814M0 30.703h3.96v-15.36H0zm11.306 0h2.003v-15.36h-2.003zm-6.01 0H6.63v-15.36H5.296zm2.721-15.36H9.97v15.36H8.017z"/>
    </symbol>

    <symbol id="icon-cross" viewBox="0 0 32 32">
        <path d="M8.5 4L4 8.5l7.5 7.5L4 23.5 8.5 28l7.5-7.5 7.5 7.5 4.5-4.5-7.5-7.5L28 8.5 23.5 4l-7.5 7.5z"/>
    </symbol>

    <symbol id="icon-dimtowarm" viewBox="0 0 24 24">
        <path d="M12 3A12 12 0 000 15h2a8 8 0 018-8 8 8 0 018 8h6A12 12 0 0012 3z"/>
        <path d="M3 7.063A12 12 0 000 15h2a8 8 0 011-3.873V7.062z" fill="#ee2025"/>
        <path d="M5 5.256a12 12 0 00-3 3.113V15a8 8 0 013-6.244v-3.5z" fill="#ee342d"/>
        <path d="M7 4.092a12 12 0 00-3 1.963v3.654a8 8 0 013-2.123V4.092z" fill="#f04634"/>
        <path d="M9 3.383a12 12 0 00-3 1.226V8.07a8 8 0 013-1.006V3.383z" fill="#f2583c"/>
        <path d="M11 3.043a12 12 0 00-3 .643v3.568A8 8 0 0110 7a8 8 0 011 .063v-4.02z" fill="#f46c44"/>
        <path d="M12 3a12 12 0 00-2 .168V7a8 8 0 013 .584V3.043A12 12 0 0012 3z" fill="#f57f4c"/>
        <path d="M12 3v4.254a8 8 0 013 1.502V3.38A12 12 0 0012 3z" fill="#f69254"/>
        <path d="M14 3.168v4.904a8 8 0 013 3.053V4.092a12 12 0 00-3-.924z" fill="#f8a45c"/>
        <path d="M16 3.688v6.021A8 8 0 0118 15h1V5.254a12 12 0 00-3-1.566z" fill="#fab864"/>
        <path d="M18 4.61V15h3V7.062a12 12 0 00-3-2.453z" fill="#faca6c"/>
        <path d="M20 6.057V15h3v-4.795a12 12 0 00-3-4.148z" fill="#fcde74"/>
        <path d="M22 8.37V15h2a12 12 0 00-2-6.63z" fill="#fef07c"/>
        <circle cy="15" cx="10" r="5" fill="#fff"/>
        <!--<path d="M13 9.804A6 6 0 004.804 12 6 6 0 007 20.196 6 6 0 0015.196 18 6 6 0 0013 9.804zm-.231 2.31A4 4 0 0113.464 17 4 4 0 018 18.464 4 4 0 016.536 13a4 4 0 014.49-1.866l-1.43 2.478 1.731 1z" fill="#484848"/>-->
    </symbol>

    <symbol id="icon-dimtowarm-3steps" viewBox="0 0 24 24">
        <circle cx="10" cy="15" r="5" fill="#fff"/>
        <path d="M13 9.804A6 6 0 004.804 12 6 6 0 007 20.196 6 6 0 0015.196 18 6 6 0 0013 9.804zm-.231 2.31A4 4 0 0113.464 17 4 4 0 018 18.464 4 4 0 016.536 13a4 4 0 014.49-1.866l-1.43 2.478 1.731 1z" fill="#484848"/>
        <path d="M6 4.607A12 12 0 000 15h2a8 8 0 014-6.926z" fill="#ee2025"/><path d="M18 4.61V14h-.064A8 8 0 0118 15h6a12 12 0 00-6-10.39z" fill="#fef07c"/>
        <path d="M12 3a12 12 0 00-3 .38v3.684A8 8 0 0110 7a8 8 0 015 1.756V3.383A12 12 0 0012 3z" fill="#f69254"/>
    </symbol>

    <symbol id="icon-dimmable" viewBox="0 0 24 24">
        <circle r="5" cx="10" cy="15" fill="#fff"/>
        <path d="M13 9.804A6 6 0 004.804 12 6 6 0 007 20.196 6 6 0 0015.196 18 6 6 0 0013 9.804zm-.231 2.31A4 4 0 0113.464 17 4 4 0 018 18.464 4 4 0 016.536 13a4 4 0 014.49-1.866l-1.43 2.478 1.731 1z" fill="#484848"/>
        <path d="M11.936 2.887a12 12 0 00-12 12A12 12 0 00-.062 15H2a8 8 0 018-8 8 8 0 018 8h5.934a12 12 0 00.002-.113 12 12 0 00-12-12z" fill="#484848"/>
    </symbol>

    <symbol id="icon-dimmable3steps" viewBox="0 0 24 24">
        <circle r="5" cy="15" cx="10" fill="#fff"/>
        <path d="M13 9.804A6 6 0 004.804 12 6 6 0 007 20.196 6 6 0 0015.196 18 6 6 0 0013 9.804zm-.231 2.31A4 4 0 0113.464 17 4 4 0 018 18.464 4 4 0 016.536 13a4 4 0 014.49-1.866l-1.43 2.478 1.731 1z" fill="#484848"/>
        <path d="M6 4.607A12 12 0 000 15h2a8 8 0 014-6.926z" fill="#484848"/>
        <path d="M18 4.61V14h-.064A8 8 0 0118 15h6a12 12 0 00-6-10.39z" fill="#484848"/>
        <path d="M12 3a12 12 0 00-3 .38v3.684A8 8 0 0110 7a8 8 0 015 1.756V3.383A12 12 0 0012 3z" fill="#484848"/>
    </symbol>

    <symbol id="icon-rgb" viewBox="0 0 24 24">
        <path d="M12 9.392a7.68 7.68 0 012.331 2.51 7.68 7.68 0 011.007 3.273 7.68 7.68 0 004.321-6.35 7.68 7.68 0 00-3.348-.764A7.68 7.68 0 0012 9.392z" fill="#f0f"/>
        <path d="M7.69 8.061a7.68 7.68 0 00-.085.001 7.68 7.68 0 00-3.264.763 7.68 7.68 0 004.577 6.467 7.68 7.68 0 01-.256-.118 7.68 7.68 0 011.007-3.273A7.68 7.68 0 0112 9.392a7.68 7.68 0 00-4.309-1.33z" fill="#ff0"/>
        <path d="M8.661 15.175A7.68 7.68 0 0012 22.09a7.68 7.68 0 003.313-7.196 7.68 7.68 0 01.025.28 7.68 7.68 0 01-3.337.764 7.68 7.68 0 01-3.34-.763z" fill="#0ff"/>
        <path d="M4.341 8.825a7.68 7.68 0 00-.501.266 7.68 7.68 0 00-2.811 10.49 7.68 7.68 0 0010.49 2.811 7.68 7.68 0 00.482-.302 7.68 7.68 0 01-3.339-6.916 7.68 7.68 0 01-4.32-6.35z" fill="#0f0"/>
        <path d="M12 .579a7.68 7.68 0 00-7.68 7.68 7.68 7.68 0 00.021.566 7.68 7.68 0 017.66.567 7.68 7.68 0 017.659-.566 7.68 7.68 0 00.02-.568A7.68 7.68 0 0012 .578z" fill="red"/>
        <path d="M19.66 8.826a7.68 7.68 0 01-4.322 6.349A7.68 7.68 0 0112 22.09a7.68 7.68 0 00.48.302 7.68 7.68 0 0010.491-2.81 7.68 7.68 0 00-2.81-10.491 7.68 7.68 0 00-.502-.265z" fill="#00f"/>
        <path d="M12 9.393a7.68 7.68 0 00-3.338 5.78A7.68 7.68 0 0012 15.94a7.68 7.68 0 003.338-.765A7.68 7.68 0 0012 9.393z" fill="#fff"/>
    </symbol>

    <symbol id="icon-sensor" viewBox="0 0 24 24">
        <path fill="#484848" d="M.75 0A.748.748 0 000 .75v22.5c0 .415.335.75.75.75s.75-.335.75-.75v-6.066A6 6 0 004.5 12a6 6 0 00-3-5.18V.75A.748.748 0 00.75 0zM14.454 1.393a15 15 0 000 21.214l1.06-1.061a13.5 13.5 0 010-19.092zm2.121 2.122a12 12 0 000 16.97l1.061-1.06a10.5 10.5 0 010-14.85zm2.122 2.121a9 9 0 000 12.728l1.06-1.06a7.5 7.5 0 010-10.607zm2.121 2.121a6 6 0 000 8.486l1.06-1.061a4.5 4.5 0 010-6.364zm2.121 2.122a3 3 0 000 4.242L24 13.061a1.5 1.5 0 010-2.122z"/>
    </symbol>

    <symbol id="icon-speaker" viewBox="0 0 24 24">
        <path fill="#000000" d="M11 7.5v9.791A3.992 3.992 0 009.5 17C7.567 17 6 18.343 6 20s1.567 3 3.5 3 3.5-1.343 3.5-3V9l8-2v7.291A3.992 3.992 0 0019.5 14c-1.933 0-3.5 1.343-3.5 3s1.567 3 3.5 3 3.5-1.343 3.5-3V4.5zM4.5 2.006v8.09A3.007 3.007 0 003.75 10C2.231 10 1 11.12 1 12.5S2.231 15 3.75 15s2.75-1.12 2.75-2.5V3l3 3 1-1-2.988-2.988C6.5 1 6.502 1 5.482 1 4.5 1 4.5 1 4.5 2.006z"/>
    </symbol>

    <symbol id="icon-energylabel-aplusplus" viewBox="0 0 40 32">
        <path d="M0 0h32l8 16.125L32 32H0z" fill="#009036"/>
        <path d="M21.105 25h-3.237q-.543 0-.902-.247-.346-.26-.481-.655l-1.063-3.138H8.578l-1.063 3.138q-.123.346-.481.63-.359.272-.878.272H2.895L9.863 7h4.274zM9.542 18.119h4.916l-1.655-4.93q-.16-.469-.383-1.1-.21-.642-.42-1.383-.198.754-.408 1.396-.21.643-.395 1.112z" fill="#fff"/>
        <path d="M21.866 4.24v2.773h2.59v1.554h-2.59v2.786h-1.764V8.567h-2.576V7.013h2.576V4.24zM29.987 4.24v2.773h2.59v1.554h-2.59v2.786h-1.764V8.567h-2.576V7.013h2.576V4.24z" fill="#fff"/>
    </symbol>

    <symbol id="icon-energylabel-aplus" viewBox="0 0 40 32">
        <path d="M0 0h32l8 16.125L32 32H0z" fill="#58ab27"/>
        <path d="M23.43 25h-3.237q-.544 0-.902-.247-.346-.26-.482-.655l-1.062-3.138h-6.844L9.84 24.098q-.123.346-.482.63Q9 25 8.481 25H5.22l6.967-18h4.275zm-11.564-6.881h4.917l-1.655-4.93q-.16-.469-.383-1.1-.21-.642-.42-1.383-.198.754-.408 1.396-.21.643-.395 1.112z" fill="#fff"/>
        <path d="M24.19 4.24v2.773h2.59v1.554h-2.59v2.786h-1.764V8.567H19.85V7.013h2.576V4.24z" fill="#fff"/>
    </symbol>

    <symbol id="icon-energylabel-a" viewBox="0 0 40 32">
        <path d="M0 0h32l8 16.125L32 32H0z" fill="#b1c800"/>
        <path d="M25.105 25h-3.237q-.543 0-.902-.247-.346-.26-.481-.655l-1.063-3.138h-6.844l-1.063 3.138q-.123.346-.481.63-.359.272-.878.272H6.895l6.968-18h4.274zm-11.563-6.881h4.916l-1.655-4.93q-.16-.469-.383-1.1-.21-.642-.42-1.383-.198.754-.408 1.396-.21.643-.395 1.112z" fill="#fff"/>
    </symbol>

    <symbol id="icon-energylabel-b" viewBox="0 0 40 32">
        <path d="M0 0h32l8 16.125L32 32H0z" fill="#ffec00"/>
        <path d="M9.032 25V7h6.622q1.866 0 3.175.346 1.31.346 2.137.976.828.63 1.199 1.532.383.902.383 2.014 0 .605-.173 1.173-.173.556-.544 1.05-.37.494-.951.902-.58.395-1.396.692 1.779.432 2.631 1.408.853.964.853 2.484 0 1.148-.445 2.137-.445.988-1.31 1.73-.852.728-2.112 1.148-1.26.408-2.879.408zm4.176-7.635v4.485h2.94q.828 0 1.347-.21.531-.21.828-.544.296-.333.407-.754.111-.42.111-.852 0-.494-.135-.89-.124-.395-.445-.667-.309-.271-.828-.42-.519-.148-1.31-.148zm0-2.792h2.174q.692 0 1.248-.099t.939-.346q.395-.247.593-.68.21-.432.21-1.086 0-.643-.16-1.063-.161-.432-.495-.692-.333-.259-.852-.37-.507-.111-1.21-.111h-2.447z" fill="#484848"/>
    </symbol>

    <symbol id="icon-energylabel-c" viewBox="0 0 40 32">
        <path d="M0 0h32l8 16.125L32 32H0z" fill="#fecc00"/>
        <path d="M21.222 20.25q.145 0 .29.06.145.048.278.18l1.62 1.705q-1.063 1.39-2.671 2.104-1.596.701-3.784.701-2.007 0-3.602-.677-1.584-.689-2.696-1.886-1.1-1.209-1.693-2.853-.592-1.656-.592-3.59 0-1.97.677-3.615.677-1.656 1.886-2.852 1.22-1.197 2.913-1.862Q15.541 7 17.584 7q.99 0 1.861.181.883.17 1.644.484.762.302 1.403.737.64.423 1.136.943l-1.378 1.85q-.133.169-.314.314-.182.133-.508.133-.218 0-.411-.097-.194-.096-.411-.23-.218-.144-.484-.302-.254-.169-.616-.302-.35-.145-.834-.242-.472-.096-1.113-.096-1.112 0-2.03.399-.92.386-1.584 1.124-.653.725-1.028 1.765-.362 1.04-.362 2.333 0 1.354.362 2.406.375 1.051 1.004 1.777.64.713 1.487 1.088.846.374 1.813.374.556 0 1.015-.048.46-.06.847-.193.399-.133.75-.339.362-.217.724-.532.145-.12.315-.193.169-.085.35-.085z" fill="#484848"/>
    </symbol>

    <symbol id="icon-energylabel-d" viewBox="0 0 40 32">
        <path d="M0 0h32l8 16.125L32 32H0z" fill="#f29400"/>
        <path d="M24.166 15.994q0 1.952-.68 3.607-.667 1.643-1.89 2.854-1.223 1.198-2.952 1.878-1.717.667-3.818.667H7.834V7h6.992q2.1 0 3.818.68 1.73.679 2.952 1.877 1.223 1.199 1.89 2.854.68 1.643.68 3.583zm-4.274 0q0-1.334-.346-2.41-.346-1.074-1.001-1.815-.642-.754-1.581-1.15-.94-.407-2.138-.407h-2.792v11.576h2.792q1.199 0 2.138-.395.939-.408 1.581-1.15.655-.753 1-1.828.347-1.075.347-2.421z" fill="#484848"/>
    </symbol>

    <symbol id="icon-energylabel-e" viewBox="0 0 40 32">
        <path d="M0 0h32l8 16.125L32 32H0z" fill="#e2001a"/>
        <path d="M21.794 7v3.212h-7.388v4.2h5.659v3.089h-5.659v4.287h7.388V25H10.206V7z" fill="#fff"/>
    </symbol>
</svg>
