<?xml version="1.0" encoding="UTF-8" standalone="no"?>
<svg
   xmlns:dc="http://purl.org/dc/elements/1.1/"
   xmlns:cc="http://creativecommons.org/ns#"
   xmlns:rdf="http://www.w3.org/1999/02/22-rdf-syntax-ns#"
   xmlns:svg="http://www.w3.org/2000/svg"
   xmlns="http://www.w3.org/2000/svg"
   xmlns:sodipodi="http://sodipodi.sourceforge.net/DTD/sodipodi-0.dtd"
   xmlns:inkscape="http://www.inkscape.org/namespaces/inkscape"
   viewBox="0 0 175 48"
   id="svg2"
   version="1.1"
   inkscape:version="0.91 r13725"
   sodipodi:docname="logo-rietveld-small.svg"
   width="175"
   height="48">
  <metadata
     id="metadata64">
    <rdf:RDF>
      <cc:Work
         rdf:about="">
        <dc:format>image/svg+xml</dc:format>
        <dc:type
           rdf:resource="http://purl.org/dc/dcmitype/StillImage" />
        <dc:title />
      </cc:Work>
    </rdf:RDF>
  </metadata>
  <defs
     id="defs62" />
  <sodipodi:namedview
     pagecolor="#ffffff"
     bordercolor="#666666"
     borderopacity="1"
     objecttolerance="10"
     gridtolerance="10"
     guidetolerance="10"
     inkscape:pageopacity="0"
     inkscape:pageshadow="2"
     inkscape:window-width="1920"
     inkscape:window-height="1017"
     id="namedview60"
     showgrid="false"
     inkscape:zoom="3.6863999"
     inkscape:cx="69.091691"
     inkscape:cy="14.135126"
     inkscape:window-x="1912"
     inkscape:window-y="-8"
     inkscape:window-maximized="1"
     inkscape:current-layer="svg2" />
  <g
     id="g6"
     style="fill-rule:evenodd"
     transform="matrix(0.03805167,0,0,0.03806446,-7.4402428,-5.316463)">
    <path
       d="m 195.53,148.94 316.33,0 0,1237.67 -316.33,0 0,-1237.67"
       id="path8"
       inkscape:connector-curvature="0"
       style="fill:#ed1c23" />
    <path
       d="m 567.75,1070.6 2085.89,0 0,316.45 -2085.89,0 0,-316.45"
       id="path10"
       inkscape:connector-curvature="0"
       style="fill:#fecb09" />
    <path
       d="m 2709.5,1071.01 2085.04,0 0,316.05 -2085.04,0 0,-316.05"
       id="path12"
       inkscape:connector-curvature="0"
       style="fill:#00adef" />
  </g>
  <g
     id="g14"
     style="fill:#ffffff"
     transform="matrix(0.03805167,0,0,0.03806446,-7.4402428,-5.316463)">
    <path
       d="m 4108,1135.03 c -9.972,0 -18,6.69 -18,15 l 0,158 c 0,8.31 8.03,15 18,15 l 18,0 60,0 c 8.309,-0.126 15,-6.413 15,-15 0,-8.587 -6.69,-15 -15,-15 l -60.34,0 -0.598,-53 60.935,0 c 8.31,0 15,-6.413 15,-15 0,-8.587 -6.691,-14.874 -15,-15 l -61.28,0 -0.508,-45 61.783,0 c 8.31,0 15,-6.413 15,-15 0,-8.587 -6.691,-14.874 -15,-15 l -62.12,0 -3.879,0 -12,0"
       id="path16"
       inkscape:connector-curvature="0" />
    <path
       d="m 4424,1134.52 c -9.972,0 -18,5.69 -18,14 l 0,158 c 0,8.31 8.03,15 18,15 9.972,0 18,-6.69 18,-15 l 0,-98.49 c 17.04,23.36 61.55,82.87 79.4,106.82 1.779,2.387 5.38,8.455 10.599,8.669 9.963,0.41 18,-6.69 18,-15 l 0,-158 c 0,-8.31 -8.03,-15 -18,-15 -9.972,0 -18,6.69 -18,15 l 0,102.05 c -9.939,-13.521 -58.03,-80.16 -78.74,-108.43 -4.452,-6.077 -6.89,-9.388 -11.264,-9.617"
       id="path18"
       inkscape:connector-curvature="0" />
    <path
       d="m 3751,1134.52 c -9.972,0 -18,5.69 -18,14 l 0,158 c 0,8.31 8.03,15 18,15 9.972,0 18,-6.69 18,-15 l 0,-98.49 c 17.04,23.36 61.55,82.87 79.4,106.82 1.779,2.387 5.38,8.455 10.599,8.669 9.963,0.41 18,-6.69 18,-15 l 0,-158 c 0,-8.31 -8.03,-15 -18,-15 -9.972,0 -18,6.69 -18,15 l 0,102.05 c -9.939,-13.521 -58.03,-80.16 -78.74,-108.43 -4.452,-6.077 -6.89,-9.388 -11.264,-9.617"
       id="path20"
       inkscape:connector-curvature="0" />
    <path
       d="m 3440.5,1132.03 c -49.43,0 -89.5,27.678 -89.5,97 0,66.07 40.07,97 89.5,97 49.43,0 89.5,-30.928 89.5,-97 0,-69.07 -40.07,-97 -89.5,-97 m 0,31 c 28.995,0 52.5,16.299 52.5,66 0,48.45 -23.505,66 -52.5,66 -28.995,0 -52.5,-20.799 -52.5,-66 0,-49.701 23.505,-66 52.5,-66"
       id="path22"
       inkscape:connector-curvature="0" />
    <path
       d="m 2972.75,1135.29 c 0,0 12.75,-0.5 14.5,10.5 1.75,11 18.75,119 18.75,119 l 30.25,-116.5 c 0,0 3.248,-13.452 17.25,-13 15.5,0.5 17,14 17,14 l 32.75,115.5 17.75,-117.25 c 0,0 0.5,-12 14,-12.5 13.5,-0.5 15.75,9.25 15.25,12.75 -0.5,3.5 -24,157.5 -24,157.5 0,0 -3,17.25 -20.5,17.5 -17.5,0.25 -20,-14.75 -20,-14.75 l -31.75,-115.75 -33.25,120.75 c 0,0 -4.999,10.201 -17.25,10 -15.25,-0.25 -20,-10.25 -21.5,-16.5 -3.114,-12.973 -24,-156.75 -24,-156.75 0,0 -2,-14 14.75,-14.5"
       id="path24"
       inkscape:connector-curvature="0"
       style="fill-rule:evenodd" />
  </g>
  <rect
     width="1.3698601"
     height="7.1561179"
     x="40.580959"
     y="37.880222"
     rx="0.68493003"
     ry="0.57096684"
     id="rect26" />
  <path
     d="m 29.355719,37.937322 c -0.379452,0 -0.68493,0.254651 -0.68493,0.570967 l 0,5.833378 c 0,0.305657 0.285387,0.61474 0.646878,0.635562 l 0,0.002 0.03805,0 0.684931,0 1.788428,0 c 0.316209,0 0.570775,-0.244108 0.570775,-0.570968 0,-0.326858 -0.254604,-0.56617 -0.570775,-0.570967 l -1.788428,0 0,-5.329023 c 0.0018,-0.316316 -0.305556,-0.570966 -0.684931,-0.570966"
     id="path28"
     inkscape:connector-curvature="0" />
  <path
     d="m 63.64027,37.880225 c -0.379451,0 -0.684931,0.254652 -0.684931,0.570967 l 0,6.014185 c 0,0.316315 0.305556,0.570967 0.684931,0.570967 0.379451,0 0.68493,-0.254652 0.68493,-0.570967 l 0,-2.55032 2.815823,0 0,2.55032 c 0,0.316315 0.305556,0.570967 0.68493,0.570967 0.379452,0 0.68493,-0.254652 0.68493,-0.570967 l 0,-6.014185 c 0,-0.316315 -0.305555,-0.570967 -0.68493,-0.570967 -0.379451,0 -0.68493,0.254652 -0.68493,0.570967 l 0,2.321932 -2.815823,0 0,-2.321932 c 0,-0.316315 -0.305555,-0.570967 -0.68493,-0.570967"
     id="path30"
     inkscape:connector-curvature="0" />
  <path
     d="m 75.626538,37.880225 c -0.316207,0 -0.570768,0.254652 -0.570768,0.570967 0,0.316316 0.254561,0.570967 0.570768,0.570967 l 1.103509,0 0,5.443218 c 0,0.316315 0.305552,0.570967 0.684928,0.570967 0.379453,0 0.684927,-0.254652 0.684927,-0.570967 l 0,-5.443218 1.134134,0 c 0.316207,0 0.570768,-0.254651 0.570768,-0.570967 0,-0.316315 -0.254561,-0.570967 -0.570768,-0.570967 l -1.819061,0 -1.788437,0"
     id="path32"
     inkscape:connector-curvature="0" />
  <path
     d="m 53.15247,37.785445 c -3.020162,-0.02896 -3.732107,2.310285 -3.732107,3.704813 0,2.516061 1.808442,3.646956 3.843599,3.640866 0.676329,-0.002 1.6968,-0.109055 2.40905,-0.992721 0.448591,-0.456394 -0.387024,-1.111863 -0.845128,-0.718086 -0.598247,0.360698 -0.731162,0.539564 -1.672674,0.539564 -1.292464,0 -2.259508,-1.056823 -2.259508,-2.554125 0,-1.483981 0.940104,-2.473505 2.232568,-2.473505 0.662288,0 1.121496,0.392863 1.564303,0.581739 0.464344,0.279583 1.215979,-0.354799 0.663849,-0.866195 -0.383561,-0.549613 -1.639647,-0.842747 -1.904105,-0.851882 -0.102435,-0.0036 -0.202168,-0.0092 -0.299581,-0.0102"
     id="path34"
     inkscape:connector-curvature="0" />
  <g
     style="fill:#ffffff;fill-opacity:1;fill-rule:evenodd"
     id="g38"
     transform="matrix(0.03805167,0,0,0.03806446,-7.4402428,-5.316463)">
    <path
       inkscape:connector-curvature="0"
       id="path40"
       d="m 767.02,687.43 c 29.453,39.904 60.34,83.35 86.03,117.02 43.993,61.27 79.91,100.12 143.55,201.8 -0.717,-0.129 -1.443,-0.252 -2.162,-0.38 0.573,0.5 1.168,1.01 1.792,1.531 -64.808,0 -129.63,0 -194.44,0 0,-0.312 0,-0.624 0,-0.936 -0.092,0.026 -0.186,0.048 -0.278,0.073 -18.625,-23.725 -116.66,-147.39 -223.53,-317.95 l -0.534,0 0,-121.31 167.43,0 0,-0.344 c 59.18,-3.01 105,-64.844 111.23,-143.57 0.74,-73.26 -58.989,-124.22 -111.23,-133.06 l 0,-0.358 -2.286,0 c -3.833,-0.561 -7.622,-0.9 -11.335,-0.992 -1.161,0.007 -2.312,0.041 -3.458,0.089 l -150.35,0 0,-140.07 166.3,0 c 3.661,-0.206 7.354,-0.318 11.07,-0.325 128.66,-0.116 230.74,120.75 231.16,269.58 -0.615,144.21 -95.72,261.79 -218.96,269.21"
       style="fill:#ffffff;fill-opacity:1" />
    <path
       inkscape:connector-curvature="0"
       id="path42"
       d="m 1070.92,363.06 158.42,0 0,651.6 -158.42,0 0,-651.6"
       style="fill:#ffffff;fill-opacity:1" />
  </g>
  <path
     style="fill:#ed1c23;fill-rule:evenodd"
     inkscape:connector-curvature="0"
     id="path44"
     d="m 33.314996,0 5.999606,0 0,6.368184 -5.999606,0 0,-6.368184" />
  <g
     style="fill:#ffffff;fill-opacity:1;fill-rule:evenodd"
     id="g46"
     transform="matrix(0.03805167,0,0,0.03806446,-7.4402428,-5.316463)">
    <path
       inkscape:connector-curvature="0"
       id="path48"
       d="m 1997.5,753.91 -210.04,0 0,0.129 c -99.55,0 -199.11,-10e-5 -298.66,-10e-5 17.11,82.33 91.63,144.29 180.97,144.29 67.54,0 126.59,-35.413 158.79,-88.26 l 153.67,0 c -47.603,130.58 -170.6,223.59 -314.84,223.59 -185.53,0 -335.92,-153.86 -335.92,-343.64 0,-189.79 150.4,-343.65 335.92,-343.65 185.53,0 335.93,153.86 335.93,343.65 0,21.835 -2.01,43.19 -5.82,63.891 m -327.73,-281.47 c -95.14,0 -173.47,70.28 -183.56,160.58 122.37,0 244.74,0 367.12,0 -10.09,-90.3 -88.41,-160.58 -183.56,-160.58"
       style="fill:#ffffff;fill-opacity:1" />
    <path
       inkscape:connector-curvature="0"
       id="path50"
       d="m 2374.3,502.69 -93.4,0 0,511.98 -157.87,0 0,-511.98 -74.43,0 0,-139.46 74.43,0 0,-214.29 157.87,0 0,214.29 93.4,0 0,139.46"
       style="fill:#ffffff;fill-opacity:1" />
    <path
       inkscape:connector-curvature="0"
       id="path52"
       d="m 3745.5,754.91 -210.04,0 0,0.129 c -99.55,-10e-5 -199.11,-10e-5 -298.66,-10e-5 17.11,82.33 91.63,144.29 180.97,144.29 67.53,0 126.59,-35.413 158.79,-88.26 l 153.67,0 c -47.602,130.58 -170.59,223.59 -314.84,223.59 -185.53,0 -335.93,-153.86 -335.93,-343.64 0,-189.79 150.4,-343.65 335.93,-343.65 185.53,0 335.93,153.86 335.93,343.65 0,21.835 -2.01,43.19 -5.82,63.891 m -327.73,-281.47 c -95.14,0 -173.47,70.28 -183.56,160.58 122.37,0 244.74,0 367.12,0 -10.09,-90.3 -88.41,-160.58 -183.56,-160.58"
       style="fill:#ffffff;fill-opacity:1" />
    <path
       inkscape:connector-curvature="0"
       id="path54"
       d="m 3845.73,139.93 157.52,0 0,875.2 -157.52,0 0,-875.2"
       style="fill:#ffffff;fill-opacity:1" />
    <path
       inkscape:connector-curvature="0"
       id="path56"
       d="m 4627.85,1015.13 0,-45.34 c -54.998,40.21 -122.34,63.87 -195.09,63.87 -185.53,0 -335.93,-153.86 -335.93,-343.64 0,-189.79 150.4,-343.65 335.93,-343.65 72.75,0 140.09,23.665 195.09,63.87 l 0,-270.31 157.52,0 0,875.2 -157.52,0 M 4437.92,481.65 c -104.9,0 -189.95,93.44 -189.95,208.7 0,115.26 85.04,208.7 189.95,208.7 104.9,0 189.95,-93.44 189.95,-208.7 0,-115.26 -85.04,-208.7 -189.95,-208.7"
       style="fill:#ffffff;fill-opacity:1" />
    <path
       inkscape:connector-curvature="0"
       id="path58"
       d="m 2441.29,361.76 160.51,0 159.91,497.87 158.65,-497.15 158.04,0 -239,655.9 -155.92,0.725 z"
       style="fill:#ffffff;fill-opacity:1" />
  </g>
</svg>
