<svg xmlns="http://www.w3.org/2000/svg" viewBox="0 0 512 512"><path fill="#ffe271" d="M267.13 22.516L244.87.256C108.65 6.085 0 118.345 0 256c0 133.518 102.222 243.143 232.67 254.93l34.46-488.414z"/><path fill="#fece0b" d="M512 256C512 118.345 403.35 6.085 267.13.255L256 256 38.957 317.217 232.67 510.93c7.685.695 15.463 1.07 23.33 1.07 141.385 0 256-114.616 256-256z"/><path fill="#2e2e2e" d="M244.87.255V139.33h22.26V.255C263.44.097 259.73 0 256 0c-3.73 0-7.438.097-11.13.255z"/><path fill="#616161" d="M256 66.783l-22.26 111.304 89.042-44.522c0-36.883-29.9-66.782-66.782-66.782z"/><path fill="#949494" d="M189.217 133.565L256 178.087V66.783c-36.883 0-66.783 29.9-66.783 66.782z"/><path fill="#ffeda4" d="M256 239.304l-25.97 78.87L256 395.13c43.03 0 77.913-34.883 77.913-77.913S299.03 239.304 256 239.304z"/><path fill="#FFF" d="M178.087 317.217c0 43.03 34.883 77.913 77.913 77.913V239.304c-43.03 0-77.913 34.883-77.913 77.913z"/><path fill="#2e2e2e" d="M449.424 294.957c-8.908-75.44-60.925-137.676-130.74-161.39H256l-11.13 172.52 204.554-11.13z"/><path fill="#474747" d="M256 306.087V133.565h-62.682C123.5 157.28 71.485 219.518 62.578 294.955L256 306.088z"/><path fill="#2e2e2e" d="M178.087 217.043h22.26v22.26h-22.26zM211.478 250.435h22.26v22.26h-22.26z"/><path fill="#474747" d="M256 294.957l-22.26 11.13 22.26 11.13h217.043v-22.26"/><path fill="#616161" d="M38.957 294.957H256v22.26H38.957z"/></svg>