<svg xmlns="http://www.w3.org/2000/svg" viewBox="0 0 512 512"><path fill="#bdedff" d="M0 256c0 141.384 114.615 256 256 256V0C114.615 0 0 114.616 0 256z"/><path fill="#8adeff" d="M256 0v512c141.385 0 256-114.616 256-256C512 114.616 397.385 0 256 0z"/><path fill="#0087bd" d="M256 44.522V467.48c116.61 0 211.478-94.87 211.478-211.48 0-116.61-94.868-211.478-211.478-211.478z"/><path fill="#00acf0" d="M44.522 256c0 116.61 94.868 211.478 211.478 211.478V44.522C139.39 44.522 44.522 139.39 44.522 256z"/><path fill="#fff" d="M222.61 144.696c0 18.442 14.948 33.39 33.39 33.39v-66.782c-18.442 0-33.39 14.95-33.39 33.392z"/><path fill="#bdedff" d="M256 111.304v66.783c18.442 0 33.39-14.95 33.39-33.39 0-18.443-14.948-33.393-33.39-33.393z"/><path fill="#fff" d="M256 222.61h-33.39v178.086H256z"/><path fill="#bdedff" d="M256 222.61h33.39v178.086H256z"/></svg>