<svg xmlns="http://www.w3.org/2000/svg" viewBox="0 0 459.994 459.994"><path fill="#f57b7f" d="M230.004 0c-127.026 0-230 102.974-230 230 0 115.604 85.29 211.287 196.376 227.56l261.018-262.296C440.65 84.72 345.22 0 230.004 0z"/><path fill="#f14c51" d="M392.638 392.634c53.773-53.773 75.34-127.546 64.728-197.373L361.29 99.186 99.66 360.815l96.723 96.723c69.496 10.212 142.77-11.418 196.255-64.904z"/><path fill="#68080b" d="M230.337 414.667L210.863 219.93l204.474 9.737c0 102.012-82.987 185-185 185z"/><path fill="#970c10" d="M230.337 44.667c102.013 0 185 82.987 185 185H210.863l19.474-185z"/><path fill="#970c10" d="M230.337 229.667v185c-102.013 0-185-82.987-185-185l92.5-29.21 92.5 29.21z"/><path fill="#ed1c23" d="M230.337 44.667v185h-185c0-102.013 82.987-185 185-185z"/><path fill="#970c10" d="M230.337 384.667L214.02 221.51l171.317 8.157c0 85.47-69.53 155-155 155z"/><path fill="#ed1c23" d="M230.337 74.667c85.47 0 155 69.53 155 155H214.02l16.317-155z"/><path fill="#ed1c23" d="M230.337 229.667v155c-85.47 0-155-69.53-155-155l77.5-24.474 77.5 24.474z"/><path fill="#f14c51" d="M230.337 74.667v155h-155c0-85.47 69.53-155 155-155z"/><path fill="#fcdadb" d="M230.337 113.328c27.9 0 60.52 32.62 60.52 60.52 0 42.71-50.99 59.08-50.99 84.2 0 10.14-10 37.96-10 37.96h-20v-37.96c0-19.41 14.14-33.02 26.61-45.04 14.72-14.19 24.38-24.58 24.38-39.16 0-16.83-13.69-30.52-30.52-30.52s-30.52 13.69-30.52 30.52h-20c-9.685-36.68 22.62-60.52 50.52-60.52z"/><path fill="#fff" d="M300.857 173.848c0 32.67-21.17 53.07-36.63 67.97-5.09 4.9-13.59 13.09-14.36 16.36v37.83h-20v-37.96c0-25.12 50.99-41.49 50.99-84.2 0-27.9-22.62-50.52-50.52-50.52-27.9 0-50.52 22.62-50.52 50.52h-20c0-38.88 31.64-70.52 70.52-70.52 38.88 0 70.52 31.64 70.52 70.52z"/><circle cx="229.871" cy="336.005" r="20" fill="#fff"/></svg>