<?xml version="1.0" encoding="UTF-8" standalone="no"?>
<svg
   xmlns:dc="http://purl.org/dc/elements/1.1/"
   xmlns:cc="http://creativecommons.org/ns#"
   xmlns:rdf="http://www.w3.org/1999/02/22-rdf-syntax-ns#"
   xmlns:svg="http://www.w3.org/2000/svg"
   xmlns="http://www.w3.org/2000/svg"
   xmlns:xlink="http://www.w3.org/1999/xlink"
   xmlns:sodipodi="http://sodipodi.sourceforge.net/DTD/sodipodi-0.dtd"
   xmlns:inkscape="http://www.inkscape.org/namespaces/inkscape"
   id="svg2"
   version="1.1"
   viewBox="0 0 180 20"
   inkscape:version="0.91 r13725"
   sodipodi:docname="ekomi-new.svg"
   width="180"
   height="20">
  <metadata
     id="metadata4185">
    <rdf:RDF>
      <cc:Work
         rdf:about="">
        <dc:format>image/svg+xml</dc:format>
        <dc:type
           rdf:resource="http://purl.org/dc/dcmitype/StillImage" />
        <dc:title></dc:title>
      </cc:Work>
    </rdf:RDF>
  </metadata>
  <sodipodi:namedview
     pagecolor="#ffffff"
     bordercolor="#666666"
     borderopacity="1"
     objecttolerance="10"
     gridtolerance="10"
     guidetolerance="10"
     inkscape:pageopacity="0"
     inkscape:pageshadow="2"
     inkscape:window-width="1920"
     inkscape:window-height="1027"
     id="namedview4183"
     showgrid="true"
     inkscape:zoom="5.0851509"
     inkscape:cx="87.166748"
     inkscape:cy="22.063886"
     inkscape:window-x="-8"
     inkscape:window-y="-8"
     inkscape:window-maximized="1"
     inkscape:current-layer="svg2">
    <inkscape:grid
       type="xygrid"
       id="grid4202" />
  </sodipodi:namedview>
  <defs
     id="defs4">
    <linearGradient
       id="Yellow">
      <stop
         id="stop4161"
         stop-color="#fcc304"
         offset="0" />
      <stop
         id="stop4167"
         stop-color="#fcc304"
         offset=".5" />
      <stop
         id="stop4165"
         stop-color="#fce388"
         offset=".56" />
      <stop
         id="stop4163"
         stop-color="#fcf4cc"
         stop-opacity=".12549"
         offset="1" />
    </linearGradient>
    <linearGradient
       id="linearGradient4157"
       y2="81.911003"
       xlink:href="#Yellow"
       gradientUnits="userSpaceOnUse"
       x2="23.448999"
       y1="108.64"
       x1="50.106998" />
    <linearGradient
       id="linearGradient4157-2-9-0-7"
       y2="81.911003"
       gradientUnits="userSpaceOnUse"
       x2="23.448999"
       y1="108.64"
       x1="50.106998">
      <stop
         id="stop4190"
         stop-color="#bcbabc"
         offset="0" />
      <stop
         id="stop4192"
         stop-color="#bcbabc"
         offset=".5" />
      <stop
         id="stop4194"
         stop-color="#e4e7e5"
         offset=".56" />
      <stop
         id="stop4196"
         stop-color="#e4e7e5"
         stop-opacity=".12549"
         offset="1" />
    </linearGradient>
    <clipPath
       id="clipPath4209"
       clipPathUnits="userSpaceOnUse">
      <rect
         id="rect4211"
         transform="matrix(0.98768916,-0.15642929,0.15642929,0.98768916,0,0)"
         height="37.456001"
         width="23.597"
         y="78.415001"
         x="1.0134" />
    </clipPath>
    <clipPath
       id="clipPath4214"
       clipPathUnits="userSpaceOnUse">
      <rect
         id="rect4216"
         transform="matrix(0.98768916,-0.15642929,0.15642929,0.98768916,0,0)"
         height="37.456001"
         width="15.731"
         y="78.415001"
         x="24.611" />
    </clipPath>
    <linearGradient
       id="linearGradient4259"
       y2="1015.4"
       gradientUnits="userSpaceOnUse"
       x2="127"
       gradientTransform="matrix(0.96639,0,0,1,0.033613,-952.36)"
       y1="952.35999"
       x1="127">
      <stop
         id="stop4255"
         stop-color="#f7f7f8"
         offset="0" />
      <stop
         id="stop4257"
         stop-color="#dadbdb"
         offset="1" />
    </linearGradient>
    <linearGradient
       inkscape:collect="always"
       xlink:href="#Yellow"
       id="linearGradient4187"
       gradientUnits="userSpaceOnUse"
       x1="50.106998"
       y1="108.64"
       x2="23.448999"
       y2="81.911003"
       gradientTransform="matrix(0.50232806,0.07939052,-0.0795606,0.50125422,-0.51642862,-39.794676)" />
    <linearGradient
       inkscape:collect="always"
       xlink:href="#Yellow"
       id="linearGradient4189"
       gradientUnits="userSpaceOnUse"
       x1="50.106998"
       y1="108.64"
       x2="23.448999"
       y2="81.911003"
       gradientTransform="matrix(0.50232806,0.07939052,-0.0795606,0.50125422,23.483571,-39.794675)" />
    <linearGradient
       inkscape:collect="always"
       xlink:href="#Yellow"
       id="linearGradient4191"
       gradientUnits="userSpaceOnUse"
       x1="50.106998"
       y1="108.64"
       x2="23.448999"
       y2="81.911003"
       gradientTransform="matrix(0.50232806,0.07939052,-0.0795606,0.50125422,47.483571,-39.794675)" />
    <linearGradient
       inkscape:collect="always"
       xlink:href="#Yellow"
       id="linearGradient4193"
       gradientUnits="userSpaceOnUse"
       x1="50.106998"
       y1="108.64"
       x2="23.448999"
       y2="81.911003"
       gradientTransform="matrix(0.50232813,0.07939053,-0.07956061,0.50125429,71.483571,-39.794681)" />
    <linearGradient
       inkscape:collect="always"
       xlink:href="#Yellow"
       id="linearGradient4195"
       gradientUnits="userSpaceOnUse"
       x1="50.106998"
       y1="108.64"
       x2="23.448999"
       y2="81.911003" />
  </defs>
  <text
     sodipodi:linespacing="125%"
     line-height="125%"
     x="324.25217"
     y="-887.2478"
     font-size="40px"
     xml:space="preserve"
     style="font-size:40px;line-height:125%;font-family:sans-serif;letter-spacing:0px;word-spacing:0px;fill:#000000"
     id="text4190"><tspan
       y="-887.2478"
       x="324.25217"
       id="tspan4192" /></text>
  <g
     id="g4226">
    <path
       id="path4149"
       d="M 15.873306,18.350767 10.000401,15.269642 4.1266903,18.35433 5.2486857,11.827223 0.49721725,7.2056081 7.0632788,6.2537989 10.000041,0.31615199 12.936599,6.2535607 19.502755,7.2055005 14.751706,11.827209 Z"
       style="fill:url(#linearGradient4187);stroke:#ecaa33;stroke-width:1.42623663;stroke-miterlimit:0"
       inkscape:connector-curvature="0" />
    <path
       id="path4149-5"
       d="M 39.873305,18.350768 34.0004,15.269643 28.12669,18.354331 29.248685,11.827224 24.497217,7.2056081 31.063278,6.2537989 34.00004,0.31615203 36.936598,6.2535607 43.502754,7.2055005 38.751706,11.82721 Z"
       style="fill:url(#linearGradient4189);stroke:#ecaa33;stroke-width:1.42623675;stroke-miterlimit:0"
       inkscape:connector-curvature="0" />
    <path
       id="path4149-5-5"
       d="M 63.873305,18.350768 58.0004,15.269643 52.12669,18.354331 53.248685,11.827224 48.497217,7.2056081 55.063278,6.2537989 58.00004,0.31615203 60.936598,6.2535607 67.502754,7.2055005 62.751706,11.82721 Z"
       style="fill:url(#linearGradient4191);stroke:#ecaa33;stroke-width:1.42623675;stroke-miterlimit:0"
       inkscape:connector-curvature="0" />
    <path
       id="path4149-5-5-9"
       d="M 87.873307,18.35077 82.000402,15.269645 76.126691,18.354333 77.248686,11.827225 72.497217,7.2056091 79.063279,6.2537998 82.000042,0.31615211 84.9366,6.2535616 91.50275,7.2055015 86.751708,11.827211 Z"
       style="fill:url(#linearGradient4193);stroke:#ecaa33;stroke-width:1.42623687;stroke-miterlimit:0"
       inkscape:connector-curvature="0" />
    <g
       transform="matrix(0.95034905,0,0,0.95034905,-7.1054686,6.4688294e-8)"
       id="g4216">
      <path
         inkscape:connector-curvature="0"
         style="fill:url(#linearGradient4195);stroke:#ecaa33;stroke-width:2.80730009;stroke-miterlimit:0"
         transform="matrix(0.52851983,0.08353,-0.08370895,0.52739,107.94999,-41.87007)"
         d="M 49.752,108.12 37.397,103.93 26.941,111.74 27.108,98.692 16.456,91.159 28.914,87.287 32.787,74.828 40.32,85.48 53.365,85.313 45.563,95.769 Z"
         clip-path="url(#clipPath4209)"
         id="path4149-5-5-9-7" />
      <path
         id="path4149-5-5-9-3"
         clip-path="url(#clipPath4214)"
         d="M 49.752,108.12 37.397,103.93 26.941,111.74 27.108,98.692 16.456,91.159 28.914,87.287 32.787,74.828 40.32,85.48 53.365,85.313 45.563,95.769 Z"
         transform="matrix(0.52851983,0.083529,-0.08370895,0.52738,107.94998,-41.870069)"
         style="opacity:0.33000004;fill:url(#linearGradient4157-2-9-0-7);stroke:#9c9d9c;stroke-width:2.80730009;stroke-miterlimit:0"
         inkscape:connector-curvature="0" />
    </g>
  </g>
  <g
     id="g4235"
     transform="translate(0,0.13491108)">
    <path
       inkscape:connector-curvature="0"
       d="m 132.38446,8.180552 q 0,3.78576 -2.5988,6.208646 -1.859,1.72252 -3.98357,2.138954 l -0.58805,-1.533233 q 3.35758,-0.984297 4.55265,-3.993976 -0.79672,0.265003 -1.53652,0.265003 -1.80209,0 -2.94025,-0.908582 Q 124,9.2973511 124,7.2908985 q 0,-1.7603782 1.1192,-2.9150349 1.11919,-1.1735855 3.07303,-1.1735855 2.1056,0 3.20582,1.4385887 0.98641,1.306087 0.98641,3.5396852 z m -2.16251,-0.1325016 q 0,-3.4071836 -2.12456,-3.4071836 -0.98641,0 -1.49858,0.8328671 -0.4363,0.7192943 -0.4363,1.8550222 0,2.6689606 2.50395,2.6689606 0.70186,0 1.40374,-0.283932 0.15175,-0.7003655 0.15175,-1.6657343 z"
       id="path4197"
       style="fill:#29a00a;fill-opacity:1" />
    <path
       inkscape:connector-curvature="0"
       d="m 136.38909,15.089984 q 0,0.567864 -0.41732,0.984298 -0.39836,0.397504 -0.96743,0.397504 -0.58806,0 -1.00538,-0.397504 -0.39836,-0.416434 -0.39836,-0.984298 0,-0.586793 0.39836,-0.984297 0.41732,-0.416434 1.00538,-0.416434 0.56907,0 0.96743,0.416434 0.41732,0.397504 0.41732,0.984297 z"
       id="path4199"
       style="fill:#29a00a;fill-opacity:1" />
    <path
       inkscape:connector-curvature="0"
       d="m 146.37962,16.469683 -8.25167,0 4.51471,-6.4736489 q 1.17609,-1.684663 1.17609,-2.9339637 0,-2.1200254 -2.39013,-2.1200254 -1.32785,0 -2.3522,0.5300063 l -0.56908,-1.4764462 q 1.44167,-0.7382232 3.50933,-0.7382232 2.06766,0 3.20582,1.0600127 1.04331,0.9842975 1.04331,2.4986014 0,1.4575175 -1.68827,3.691116 l -3.07304,4.050762 4.87513,0 0,1.911809 z"
       id="path4201"
       style="fill:#29a00a;fill-opacity:1" />
    <path
       inkscape:connector-curvature="0"
       d="m 158.23335,0.43741165 -7.28439,19.42767735 -1.49731,-0.572323 7.28439,-19.42767708 1.49731,0.57232273 z"
       id="path4203"
       style="fill:#b8b8b8;fill-opacity:1" />
    <path
       inkscape:connector-curvature="0"
       d="m 166.03187,16.377142 -2.3522,0 0,-10.4301882 q -1.10022,0.6057216 -3.20582,0.7760808 L 160.1893,5.3412323 q 3.2248,-0.4164336 4.19223,-1.9875238 l 1.65034,0 0,13.0230135 z"
       id="path4205"
       style="fill:#b8b8b8;fill-opacity:1" />
    <path
       inkscape:connector-curvature="0"
       d="m 177.87717,9.8647944 q 0,2.7068186 -0.83465,4.4482676 -1.10022,2.252527 -3.37654,2.252527 -2.27633,0 -3.37655,-2.252527 -0.83465,-1.741449 -0.83465,-4.4482676 0,-2.7068181 0.83465,-4.4482675 1.10022,-2.252527 3.37655,-2.252527 2.27632,0 3.37654,2.252527 0.83465,1.7414494 0.83465,4.4482675 z m -2.21941,-0.018929 q 0,-5.2432771 -1.99178,-5.2432771 -1.99178,0 -1.99178,5.2432771 0,5.1864906 1.99178,5.1864906 1.99178,0 1.99178,-5.1864906 z"
       id="path4207"
       style="fill:#b8b8b8;fill-opacity:1" />
  </g>
</svg>
