<?xml version="1.0" encoding="UTF-8" standalone="no"?>
<svg
   xmlns:dc="http://purl.org/dc/elements/1.1/"
   xmlns:cc="http://creativecommons.org/ns#"
   xmlns:rdf="http://www.w3.org/1999/02/22-rdf-syntax-ns#"
   xmlns:svg="http://www.w3.org/2000/svg"
   xmlns="http://www.w3.org/2000/svg"
   xmlns:xlink="http://www.w3.org/1999/xlink"
   xmlns:sodipodi="http://sodipodi.sourceforge.net/DTD/sodipodi-0.dtd"
   xmlns:inkscape="http://www.inkscape.org/namespaces/inkscape"
   id="svg2"
   version="1.1"
   viewBox="0 0 220 40"
   inkscape:version="0.91 r13725"
   sodipodi:docname="ekomi-small-diap.svg"
   width="220"
   height="40">
  <metadata
     id="metadata4185">
    <rdf:RDF>
      <cc:Work
         rdf:about="">
        <dc:format>image/svg+xml</dc:format>
        <dc:type
           rdf:resource="http://purl.org/dc/dcmitype/StillImage" />
        <dc:title />
      </cc:Work>
    </rdf:RDF>
  </metadata>
  <sodipodi:namedview
     pagecolor="#ffffff"
     bordercolor="#666666"
     borderopacity="1"
     objecttolerance="10"
     gridtolerance="10"
     guidetolerance="10"
     inkscape:pageopacity="0"
     inkscape:pageshadow="2"
     inkscape:window-width="1920"
     inkscape:window-height="1017"
     id="namedview4183"
     showgrid="false"
     inkscape:zoom="3.9655172"
     inkscape:cx="110.26753"
     inkscape:cy="29.730435"
     inkscape:window-x="1912"
     inkscape:window-y="-8"
     inkscape:window-maximized="1"
     inkscape:current-layer="svg2" />
  <defs
     id="defs4">
    <linearGradient
       id="linearGradient4830">
      <stop
         offset="0"
         stop-color="#fcc304"
         id="stop4832" />
      <stop
         offset=".5"
         stop-color="#fcc304"
         id="stop4834" />
      <stop
         offset=".56"
         stop-color="#fce388"
         id="stop4836" />
      <stop
         offset="1"
         stop-opacity=".12549"
         stop-color="#fcf4cc"
         id="stop4838"
         style="stop-color:#ffffff;stop-opacity:1" />
    </linearGradient>
    <linearGradient
       id="linearGradient4820">
      <stop
         offset="0"
         stop-color="#fcc304"
         id="stop4822" />
      <stop
         offset=".5"
         stop-color="#fcc304"
         id="stop4824" />
      <stop
         offset=".56"
         stop-color="#fce388"
         id="stop4826" />
      <stop
         offset="1"
         stop-opacity=".12549"
         stop-color="#fcf4cc"
         id="stop4828"
         style="stop-color:#ffffff;stop-opacity:1" />
    </linearGradient>
    <linearGradient
       id="linearGradient4810">
      <stop
         offset="0"
         stop-color="#fcc304"
         id="stop4812" />
      <stop
         offset=".5"
         stop-color="#fcc304"
         id="stop4814" />
      <stop
         offset=".56"
         stop-color="#fce388"
         id="stop4816" />
      <stop
         offset="1"
         stop-opacity=".12549"
         stop-color="#fcf4cc"
         id="stop4818"
         style="stop-color:#ffffff;stop-opacity:1" />
    </linearGradient>
    <linearGradient
       id="linearGradient4800">
      <stop
         offset="0"
         stop-color="#fcc304"
         id="stop4802" />
      <stop
         offset=".5"
         stop-color="#fcc304"
         id="stop4804" />
      <stop
         offset=".56"
         stop-color="#fce388"
         id="stop4806" />
      <stop
         offset="1"
         stop-opacity=".12549"
         stop-color="#fcf4cc"
         id="stop4808"
         style="stop-color:#ffffff;stop-opacity:1" />
    </linearGradient>
    <linearGradient
       id="linearGradient4790">
      <stop
         offset="0"
         stop-color="#fcc304"
         id="stop4792" />
      <stop
         offset=".5"
         stop-color="#fcc304"
         id="stop4794" />
      <stop
         offset=".56"
         stop-color="#fce388"
         id="stop4796" />
      <stop
         offset="1"
         stop-opacity=".12549"
         stop-color="#fcf4cc"
         id="stop4798"
         style="stop-color:#ffffff;stop-opacity:1" />
    </linearGradient>
    <linearGradient
       id="Yellow">
      <stop
         id="stop4161"
         stop-color="#fcc304"
         offset="0" />
      <stop
         id="stop4167"
         stop-color="#fcc304"
         offset=".5" />
      <stop
         id="stop4165"
         stop-color="#fce388"
         offset=".56" />
      <stop
         id="stop4163"
         stop-color="#fcf4cc"
         stop-opacity=".12549"
         offset="1" />
    </linearGradient>
    <linearGradient
       id="linearGradient4157"
       y2="81.911003"
       xlink:href="#Yellow"
       gradientUnits="userSpaceOnUse"
       x2="23.448999"
       y1="108.64"
       x1="50.106998" />
    <linearGradient
       id="linearGradient4157-2-9-0-7"
       y2="81.911003"
       gradientUnits="userSpaceOnUse"
       x2="23.448999"
       y1="108.64"
       x1="50.106998">
      <stop
         id="stop4190"
         stop-color="#bcbabc"
         offset="0" />
      <stop
         id="stop4192"
         stop-color="#bcbabc"
         offset=".5" />
      <stop
         id="stop4194"
         stop-color="#e4e7e5"
         offset=".56" />
      <stop
         id="stop4196"
         stop-color="#e4e7e5"
         stop-opacity=".12549"
         offset="1" />
    </linearGradient>
    <clipPath
       id="clipPath4209"
       clipPathUnits="userSpaceOnUse">
      <rect
         id="rect4211"
         transform="matrix(0.98768916,-0.15642929,0.15642929,0.98768916,0,0)"
         height="37.456001"
         width="23.597"
         y="78.415001"
         x="1.0134" />
    </clipPath>
    <clipPath
       id="clipPath4214"
       clipPathUnits="userSpaceOnUse">
      <rect
         id="rect4216"
         transform="matrix(0.98768916,-0.15642929,0.15642929,0.98768916,0,0)"
         height="37.456001"
         width="15.731"
         y="78.415001"
         x="24.611" />
    </clipPath>
    <linearGradient
       id="linearGradient4259"
       y2="1015.4"
       gradientUnits="userSpaceOnUse"
       x2="127"
       gradientTransform="matrix(0.96639,0,0,1,0.033613,-952.36)"
       y1="952.35999"
       x1="127">
      <stop
         id="stop4255"
         stop-color="#f7f7f8"
         offset="0" />
      <stop
         id="stop4257"
         stop-color="#dadbdb"
         offset="1" />
    </linearGradient>
    <linearGradient
       inkscape:collect="always"
       xlink:href="#linearGradient4790"
       id="linearGradient4187"
       gradientUnits="userSpaceOnUse"
       x1="50.106998"
       y1="108.64"
       x2="23.448999"
       y2="81.911003"
       gradientTransform="matrix(0.52851983,0.08353,-0.08370895,0.52739,-0.28539131,-24.50022)" />
    <linearGradient
       inkscape:collect="always"
       xlink:href="#linearGradient4800"
       id="linearGradient4189"
       gradientUnits="userSpaceOnUse"
       x1="50.106998"
       y1="108.64"
       x2="23.448999"
       y2="81.911003"
       gradientTransform="matrix(0.52851983,0.08353,-0.08370895,0.52739,26.772451,-24.50022)" />
    <linearGradient
       inkscape:collect="always"
       xlink:href="#linearGradient4810"
       id="linearGradient4191"
       gradientUnits="userSpaceOnUse"
       x1="50.106998"
       y1="108.64"
       x2="23.448999"
       y2="81.911003"
       gradientTransform="matrix(0.52851983,0.08353,-0.08370895,0.52739,53.830293,-24.50022)" />
    <linearGradient
       inkscape:collect="always"
       xlink:href="#linearGradient4820"
       id="linearGradient4193"
       gradientUnits="userSpaceOnUse"
       x1="50.106998"
       y1="108.64"
       x2="23.448999"
       y2="81.911003"
       gradientTransform="matrix(0.52851983,0.08353,-0.08370895,0.52739,80.892144,-24.50022)" />
    <linearGradient
       inkscape:collect="always"
       xlink:href="#linearGradient4830"
       id="linearGradient4195"
       gradientUnits="userSpaceOnUse"
       x1="50.106998"
       y1="108.64"
       x2="23.448999"
       y2="81.911003" />
  </defs>
  <text
     sodipodi:linespacing="125%"
     line-height="125%"
     x="324.25217"
     y="-867.2478"
     font-size="40px"
     xml:space="preserve"
     style="font-size:40px;line-height:125%;font-family:sans-serif;letter-spacing:0px;word-spacing:0px;fill:#000000"
     id="text4190"><tspan
       y="-867.2478"
       x="324.25217"
       id="tspan4192" /></text>
  <path
     inkscape:connector-curvature="0"
     style="fill:url(#linearGradient4187);stroke:#ecaa33;stroke-width:1.50060177;stroke-miterlimit:0"
     d="m 16.958916,36.676971 -6.179122,-3.241777 -6.1799706,3.245526 1.1804971,-6.867435 -4.99921366,-4.86259 6.90842106,-1.001438 3.0898871,-6.24724 3.089672,6.24699 6.908521,1.001575 -4.998773,4.862688 z"
     id="path4149" />
  <path
     inkscape:connector-curvature="0"
     style="fill:url(#linearGradient4189);stroke:#ecaa33;stroke-width:1.50060177;stroke-miterlimit:0"
     d="m 44.016758,36.676971 -6.179122,-3.241777 -6.17997,3.245526 1.180497,-6.867435 -4.999214,-4.86259 6.908421,-1.001438 3.089887,-6.24724 3.089672,6.24699 6.908521,1.001575 -4.998772,4.862688 z"
     id="path4149-5" />
  <path
     inkscape:connector-curvature="0"
     style="fill:url(#linearGradient4191);stroke:#ecaa33;stroke-width:1.50060177;stroke-miterlimit:0"
     d="m 71.0746,36.676971 -6.179122,-3.241777 -6.17997,3.245526 1.180497,-6.867435 -4.999214,-4.86259 6.908421,-1.001438 3.089887,-6.24724 3.089672,6.24699 6.908521,1.001575 -4.998772,4.862688 z"
     id="path4149-5-5" />
  <path
     inkscape:connector-curvature="0"
     style="fill:url(#linearGradient4193);stroke:#ecaa33;stroke-width:1.50060177;stroke-miterlimit:0"
     d="m 98.136451,36.676971 -6.179122,-3.241777 -6.17997,3.245526 1.180497,-6.867435 -4.999214,-4.86259 6.908421,-1.001438 3.089887,-6.24724 3.089672,6.24699 6.908518,1.001575 -4.998769,4.862688 z"
     id="path4149-5-5-9" />
  <path
     inkscape:connector-curvature="0"
     style="fill:url(#linearGradient4195);stroke:#ecaa33;stroke-width:2.80730009;stroke-miterlimit:0"
     transform="matrix(0.52851983,0.08353,-0.08370895,0.52739,107.94999,-24.50022)"
     d="M 49.752,108.12 37.397,103.93 26.941,111.74 27.108,98.692 16.456,91.159 28.914,87.287 32.787,74.828 40.32,85.48 53.365,85.313 45.563,95.769 Z"
     clip-path="url(#clipPath4209)"
     id="path4149-5-5-9-7" />
  <path
     id="path4149-5-5-9-3"
     clip-path="url(#clipPath4214)"
     d="M 49.752,108.12 37.397,103.93 26.941,111.74 27.108,98.692 16.456,91.159 28.914,87.287 32.787,74.828 40.32,85.48 53.365,85.313 45.563,95.769 Z"
     transform="matrix(0.52851983,0.083529,-0.08370895,0.52738,107.94998,-24.50022)"
     style="opacity:0.33000004;fill:url(#linearGradient4157-2-9-0-7);stroke:#9c9d9c;stroke-width:2.80730009;stroke-miterlimit:0"
     inkscape:connector-curvature="0" />
  <g
     id="g4265">
    <path
       d="m 7.3901547,10.821999 -1.9388948,0 -2.6898752,-4.7415001 -0.027308,0 0,4.7415001 -1.73408203,0 0,-9.3739999 1.73408203,0 0,4.2782499 0.027308,0 2.6898752,-4.2782499 1.7750445,0 -2.9356505,4.3327499 3.0995008,5.04125 z"
       style="font-size:medium;line-height:125%;font-family:sans-serif;letter-spacing:0px;word-spacing:0px;fill:#ffffff;fill-opacity:1"
       id="path4177"
       inkscape:connector-curvature="0" />
    <path
       d="m 10.198651,10.821999 -1.6658113,0 0,-10.69562488 1.6658113,0 0,10.69562488 z"
       style="font-size:medium;line-height:125%;font-family:sans-serif;letter-spacing:0px;word-spacing:0px;fill:#ffffff;fill-opacity:1"
       id="path4179"
       inkscape:connector-curvature="0" />
    <path
       d="m 17.349606,10.426874 q -0.996756,0.531375 -2.662567,0.531375 -3.003921,0 -3.003921,-2.2345001 0,-1.33525 1.215222,-2.0028749 0.955793,-0.51775 2.894688,-0.7085 l 0,-0.395125 q 0,-1.212625 -1.460999,-1.212625 -0.91483,0 -1.843315,0.449625 l -0.382317,-0.95375 q 1.146952,-0.558625 2.526025,-0.558625 2.717184,0 2.717184,2.53425 l 0,4.55075 z m -1.556578,-0.5995001 0,-3.02475 q -1.310802,0.1635 -1.85697,0.504125 -0.682709,0.422375 -0.682709,1.3624999 0,1.3625002 1.542923,1.3625002 0.58713,0 0.996756,-0.2043751 z"
       style="font-size:medium;line-height:125%;font-family:sans-serif;letter-spacing:0px;word-spacing:0px;fill:#ffffff;fill-opacity:1"
       id="path4181"
       inkscape:connector-curvature="0" />
    <path
       d="m 24.934933,10.821999 -1.665811,0 0,-5.20475 q 0,-1.22625 -1.324456,-1.22625 -0.628093,0 -1.146952,0.204375 l 0,6.226625 -1.665811,0 0,-6.94875 q 1.133298,-0.531375 2.881034,-0.531375 1.542923,0 2.280249,0.68125 0.641747,0.57225 0.641747,1.566875 l 0,5.232 z"
       style="font-size:medium;line-height:125%;font-family:sans-serif;letter-spacing:0px;word-spacing:0px;fill:#ffffff;fill-opacity:1"
       id="path4183"
       inkscape:connector-curvature="0" />
    <path
       d="m 29.943036,10.753874 q -0.327702,0.149875 -0.846561,0.149875 -1.010409,0 -1.556577,-0.613125 -0.464243,-0.5313752 -0.464243,-1.3761251 l 0,-4.3736249 -0.819251,0 0,-1.06275 0.819251,0 0,-1.6213749 1.665812,-0.46325 0,2.0846249 1.201569,0 0,1.06275 -1.201569,0 0,4.2918749 q 0,0.9537499 0.805597,0.9537499 0.16385,0 0.395972,-0.068125 l 0,1.0355002 z"
       style="font-size:medium;line-height:125%;font-family:sans-serif;letter-spacing:0px;word-spacing:0px;fill:#ffffff;fill-opacity:1"
       id="path4185"
       inkscape:connector-curvature="0" />
    <path
       d="m 37.042679,7.1023739 -4.505882,0.654 q 0.204813,2.0437499 2.007165,2.0437499 1.065027,0 1.85697,-0.40875 l 0.395972,1.0491242 q -0.942139,0.517751 -2.430446,0.517751 -1.583886,0 -2.498717,-0.9946252 -0.91483,-0.994625 -0.91483,-2.8339998 0,-1.7848751 0.832906,-2.7795 0.846559,-1.00825 2.307557,-1.00825 1.474652,0 2.239287,0.967375 0.764635,0.95375 0.710018,2.7931249 z m -1.556577,-0.654 q 0,-2.0846249 -1.447344,-2.0846249 -0.764635,0 -1.174261,0.613125 -0.450588,0.6676249 -0.42328,1.93475 l 3.044885,-0.4632501 z"
       style="font-size:medium;line-height:125%;font-family:sans-serif;letter-spacing:0px;word-spacing:0px;fill:#ffffff;fill-opacity:1"
       id="path4187"
       inkscape:connector-curvature="0" />
    <path
       d="m 44.376154,10.821999 -1.665811,0 0,-5.20475 q 0,-1.22625 -1.324457,-1.22625 -0.628092,0 -1.146951,0.204375 l 0,6.226625 -1.665812,0 0,-6.94875 q 1.133298,-0.531375 2.881034,-0.531375 1.542923,0 2.28025,0.68125 0.641747,0.57225 0.641747,1.566875 l 0,5.232 z"
       style="font-size:medium;line-height:125%;font-family:sans-serif;letter-spacing:0px;word-spacing:0px;fill:#ffffff;fill-opacity:1"
       id="path4189"
       inkscape:connector-curvature="0" />
    <path
       d="m 56.087181,10.821999 -1.665811,0 0,-5.218375 q 0,-1.199 -1.242532,-1.199 -0.723672,0 -1.228876,0.504125 l 0,5.91325 -1.665811,0 0,-5.2592501 q 0,-1.1717499 -1.379073,-1.1717499 -0.600785,0 -1.092335,0.204375 l 0,6.226625 -1.665812,0 0,-6.94875 q 1.10599,-0.531375 2.758147,-0.531375 1.556577,0 2.293903,0.803875 0.873869,-0.803875 2.362175,-0.803875 1.228877,0 1.925241,0.694875 0.600784,0.613125 0.600784,1.55325 l 0,5.232 z"
       style="font-size:medium;line-height:125%;font-family:sans-serif;letter-spacing:0px;word-spacing:0px;fill:#ffffff;fill-opacity:1"
       id="path4191"
       inkscape:connector-curvature="0" />
    <path
       d="m 63.671014,7.1023739 -4.505883,0.654 q 0.204813,2.0437499 2.007167,2.0437499 1.065026,0 1.856969,-0.40875 l 0.395971,1.0491242 q -0.942138,0.517751 -2.430445,0.517751 -1.583886,0 -2.498716,-0.9946252 -0.914831,-0.994625 -0.914831,-2.8339998 0,-1.7848751 0.832905,-2.7795 0.84656,-1.00825 2.307558,-1.00825 1.474653,0 2.239287,0.967375 0.764635,0.95375 0.710018,2.7931249 z m -1.556577,-0.654 q 0,-2.0846249 -1.447344,-2.0846249 -0.764635,0 -1.174261,0.613125 -0.450588,0.6676249 -0.42328,1.93475 l 3.044885,-0.4632501 z"
       style="font-size:medium;line-height:125%;font-family:sans-serif;letter-spacing:0px;word-spacing:0px;fill:#ffffff;fill-opacity:1"
       id="path4193"
       inkscape:connector-curvature="0" />
    <path
       d="m 70.991154,10.821999 -1.665812,0 0,-5.20475 q 0,-1.22625 -1.324456,-1.22625 -0.628092,0 -1.146952,0.204375 l 0,6.226625 -1.66581,0 0,-6.94875 q 1.133297,-0.531375 2.881033,-0.531375 1.542924,0 2.28025,0.68125 0.641747,0.57225 0.641747,1.566875 l 0,5.232 z"
       style="font-size:medium;line-height:125%;font-family:sans-serif;letter-spacing:0px;word-spacing:0px;fill:#ffffff;fill-opacity:1"
       id="path4195"
       inkscape:connector-curvature="0" />
    <path
       d="m 74.56428,1.3934991 q 0,0.340625 -0.273083,0.585875 -0.259429,0.2316249 -0.641747,0.2316249 -0.382317,0 -0.655401,-0.2316249 -0.25943,-0.24525 -0.25943,-0.585875 0,-0.340625 0.25943,-0.58587499 0.273084,-0.24524999 0.655401,-0.24524999 0.382318,0 0.641747,0.24524999 0.273083,0.23162499 0.273083,0.58587499 z m -0.08193,9.4284999 -1.665812,0 0,-7.343875 1.665812,0 0,7.343875 z"
       style="font-size:medium;line-height:125%;font-family:sans-serif;letter-spacing:0px;word-spacing:0px;fill:#ffffff;fill-opacity:1"
       id="path4198"
       inkscape:connector-curvature="0" />
    <path
       d="m 82.11185,10.821999 -1.665812,0 0,-5.20475 q 0,-1.22625 -1.324456,-1.22625 -0.628093,0 -1.146952,0.204375 l 0,6.226625 -1.665811,0 0,-6.94875 q 1.133298,-0.531375 2.881034,-0.531375 1.542923,0 2.28025,0.68125 0.641747,0.57225 0.641747,1.566875 l 0,5.232 z"
       style="font-size:medium;line-height:125%;font-family:sans-serif;letter-spacing:0px;word-spacing:0px;fill:#ffffff;fill-opacity:1"
       id="path4200"
       inkscape:connector-curvature="0" />
    <path
       d="m 89.562773,10.930998 q 0,1.444251 -0.805596,2.20725 -0.805598,0.763 -2.211979,0.763 -1.638503,0 -2.512371,-0.517749 l 0.464243,-1.09 q 0.791943,0.436 1.76139,0.436 1.693119,0 1.693119,-1.648625 l 0,-0.46325 q -0.477896,0.2725 -1.379073,0.2725 -1.33811,0 -2.157362,-0.9673751 -0.805596,-0.9673751 -0.805596,-2.616 0,-1.8393749 0.887522,-2.8748749 0.942138,-1.09 2.676221,-1.09 1.570231,0 2.389482,0.531375 l 0,7.057749 z m -1.611194,-1.2398742 0,-5.2047498 q -0.286737,-0.1635 -0.860214,-0.1635 -1.82966,0 -1.82966,2.902125 0,2.6977499 1.747736,2.6977499 0.546167,0 0.942138,-0.2316251 z"
       style="font-size:medium;line-height:125%;font-family:sans-serif;letter-spacing:0px;word-spacing:0px;fill:#ffffff;fill-opacity:1"
       id="path4202"
       inkscape:connector-curvature="0" />
    <path
       d="m 97.166446,7.1023739 -4.505883,0.654 q 0.204813,2.0437499 2.007167,2.0437499 1.065026,0 1.856969,-0.40875 l 0.395971,1.0491242 q -0.942138,0.517751 -2.430445,0.517751 -1.583886,0 -2.498716,-0.9946252 -0.914832,-0.994625 -0.914832,-2.8339998 0,-1.7848751 0.832906,-2.7795 0.84656,-1.00825 2.307558,-1.00825 1.474653,0 2.239287,0.967375 0.764635,0.95375 0.710018,2.7931249 z m -1.556578,-0.654 q 0,-2.0846249 -1.447343,-2.0846249 -0.764635,0 -1.174261,0.613125 -0.450588,0.6676249 -0.42328,1.93475 l 3.044884,-0.4632501 z"
       style="font-size:medium;line-height:125%;font-family:sans-serif;letter-spacing:0px;word-spacing:0px;fill:#ffffff;fill-opacity:1"
       id="path4204"
       inkscape:connector-curvature="0" />
    <path
       d="m 104.48658,10.821999 -1.66581,0 0,-5.20475 q 0,-1.22625 -1.32445,-1.22625 -0.6281,0 -1.14695,0.204375 l 0,6.226625 -1.665814,0 0,-6.94875 q 1.133297,-0.531375 2.881034,-0.531375 1.54292,0 2.28025,0.68125 0.64174,0.57225 0.64174,1.566875 l 0,5.232 z"
       style="font-size:medium;line-height:125%;font-family:sans-serif;letter-spacing:0px;word-spacing:0px;fill:#ffffff;fill-opacity:1"
       id="path4206"
       inkscape:connector-curvature="0" />
    <path
       d="m 115.95845,7.0614989 q 0,1.784875 -0.88752,2.8203749 -0.88752,1.0355002 -2.34852,1.0355002 -0.72367,0 -1.10599,-0.149876 l 0,2.983876 -1.65216,0 0,-9.878125 q 0.99676,-0.531375 2.55334,-0.531375 1.6112,0 2.52602,0.981 0.91483,0.981 0.91483,2.7386249 z m -1.65215,0.0545 q 0,-2.7794999 -1.82966,-2.7794999 -0.49156,0 -0.86022,0.149875 l 0,5.3137498 q 0.28675,0.1226251 0.73733,0.1226251 1.95255,0 1.95255,-2.80675 z"
       style="font-size:medium;line-height:125%;font-family:sans-serif;letter-spacing:0px;word-spacing:0px;fill:#ffffff;fill-opacity:1"
       id="path4208"
       inkscape:connector-curvature="0" />
    <path
       d="m 123.30206,7.1568739 q 0,1.7031249 -0.75098,2.7113749 -0.81925,1.0900002 -2.30755,1.0900002 -1.48832,0 -2.30756,-1.0900002 -0.75099,-1.00825 -0.75099,-2.7113749 0,-1.71675 0.75099,-2.7249999 0.81924,-1.09 2.30756,-1.09 1.50195,0 2.30755,1.09 0.75098,1.0082499 0.75098,2.7249999 z m -1.65216,-0.013625 q 0,-2.7522499 -1.40637,-2.7522499 -1.40639,0 -1.40639,2.7522499 0,2.684125 1.40639,2.684125 1.40637,0 1.40637,-2.684125 z"
       style="font-size:medium;line-height:125%;font-family:sans-serif;letter-spacing:0px;word-spacing:0px;fill:#ffffff;fill-opacity:1"
       id="path4210"
       inkscape:connector-curvature="0" />
    <path
       d="m 134.13516,3.478124 -2.04813,7.343875 -1.50196,0 -1.26983,-4.60525 q -0.12289,-0.4496251 -0.1502,-0.940125 l -0.0273,0 q -0.041,0.340625 -0.16385,0.940125 l -1.29715,4.60525 -1.50196,0 -2.04813,-7.343875 1.67946,0 1.07869,4.7551249 q 0.12289,0.5177499 0.13654,0.967375 l 0.0273,0 q 0.0683,-0.367875 0.19117,-0.967375 l 1.29714,-4.7551249 1.39273,0 1.24253,4.7551249 q 0.10924,0.4359999 0.1775,0.967375 l 0.0273,0 q 0.0136,-0.258875 0.1502,-0.981 l 1.13329,-4.7414999 1.47466,0 z"
       style="font-size:medium;line-height:125%;font-family:sans-serif;letter-spacing:0px;word-spacing:0px;fill:#ffffff;fill-opacity:1"
       id="path4212"
       inkscape:connector-curvature="0" />
    <path
       d="m 141.03586,7.1023739 -4.50589,0.654 q 0.20482,2.0437499 2.00717,2.0437499 1.06503,0 1.85697,-0.40875 l 0.39597,1.0491242 q -0.94214,0.517751 -2.43044,0.517751 -1.58389,0 -2.49872,-0.9946252 -0.91483,-0.994625 -0.91483,-2.8339998 0,-1.7848751 0.8329,-2.7795 0.84656,-1.00825 2.30756,-1.00825 1.47465,0 2.23929,0.967375 0.76463,0.95375 0.71002,2.7931249 z m -1.55658,-0.654 q 0,-2.0846249 -1.44734,-2.0846249 -0.76464,0 -1.17427,0.613125 -0.45058,0.6676249 -0.42328,1.93475 l 3.04489,-0.4632501 z"
       style="font-size:medium;line-height:125%;font-family:sans-serif;letter-spacing:0px;word-spacing:0px;fill:#ffffff;fill-opacity:1"
       id="path4214"
       inkscape:connector-curvature="0" />
    <path
       d="m 146.10306,3.355499 -0.3277,1.212625 q -0.36866,-0.122625 -0.76463,-0.122625 -0.4779,0 -0.79194,0.177125 l 0,6.199375 -1.66582,0 0,-6.94875 q 1.21522,-0.5858749 3.55009,-0.51775 z"
       style="font-size:medium;line-height:125%;font-family:sans-serif;letter-spacing:0px;word-spacing:0px;fill:#ffffff;fill-opacity:1"
       id="path4216"
       inkscape:connector-curvature="0" />
    <path
       d="m 152.7966,7.1023739 -4.50588,0.654 q 0.20481,2.0437499 2.00717,2.0437499 1.06503,0 1.85696,-0.40875 l 0.39598,1.0491242 q -0.94214,0.517751 -2.43044,0.517751 -1.5839,0 -2.49873,-0.9946252 -0.91482,-0.994625 -0.91482,-2.8339998 0,-1.7848751 0.8329,-2.7795 0.84656,-1.00825 2.30755,-1.00825 1.47466,0 2.2393,0.967375 0.76463,0.95375 0.71001,2.7931249 z m -1.55658,-0.654 q 0,-2.0846249 -1.44733,-2.0846249 -0.76464,0 -1.17427,0.613125 -0.45059,0.6676249 -0.42328,1.93475 l 3.04488,-0.4632501 z"
       style="font-size:medium;line-height:125%;font-family:sans-serif;letter-spacing:0px;word-spacing:0px;fill:#ffffff;fill-opacity:1"
       id="path4218"
       inkscape:connector-curvature="0" />
    <path
       d="m 160.03481,10.426874 q -0.95579,0.531375 -2.56699,0.531375 -1.62484,0 -2.52603,-0.9810002 -0.90117,-0.9809999 -0.90117,-2.7386249 0,-1.7712499 0.90117,-2.8203749 0.87388,-1.0082499 2.32122,-1.0082499 0.64174,0 1.10599,0.1362499 l 0,-3.41987488 1.66581,0 0,10.30049988 z m -1.66581,-0.6948751 0,-5.2864999 q -0.3277,-0.095375 -0.73733,-0.095375 -1.93889,0 -1.93889,2.7931249 0,2.7522499 1.81601,2.7522499 0.60078,0 0.86021,-0.1634999 z"
       style="font-size:medium;line-height:125%;font-family:sans-serif;letter-spacing:0px;word-spacing:0px;fill:#ffffff;fill-opacity:1"
       id="path4220"
       inkscape:connector-curvature="0" />
    <path
       d="m 171.50859,6.9797489 q 0,1.866625 -0.92848,2.9293749 -0.92849,1.0491252 -2.63526,1.0491252 -1.61119,0 -2.43045,-0.531375 l 0,-10.30049988 1.65216,0 0,3.55612488 q 0.6554,-0.29975 1.44734,-0.29975 1.29715,0 2.0891,0.981 0.80559,0.9809999 0.80559,2.6159999 z m -1.65216,0.095375 q 0,-2.7249999 -1.69312,-2.7249999 -0.60078,0 -0.99675,0.218 l 0,5.2183748 q 0.34135,0.1498751 0.84656,0.1498751 1.84331,0 1.84331,-2.86125 z"
       style="font-size:medium;line-height:125%;font-family:sans-serif;letter-spacing:0px;word-spacing:0px;fill:#ffffff;fill-opacity:1"
       id="path4222"
       inkscape:connector-curvature="0" />
    <path
       d="m 178.63662,3.478124 -3.35893,10.27325 -1.76138,0 1.20156,-2.929375 -2.43045,-7.343875 1.77505,0 1.26984,4.7551249 q 0.13655,0.5313749 0.1502,1.0491249 l 0.0273,0 q 0.0683,-0.3951249 0.20481,-1.0491249 l 1.36542,-4.7551249 1.55657,0 z"
       style="font-size:medium;line-height:125%;font-family:sans-serif;letter-spacing:0px;word-spacing:0px;fill:#ffffff;fill-opacity:1"
       id="path4224"
       inkscape:connector-curvature="0" />
    <path
       d="m 189.33223,7.1023739 -4.50589,0.654 q 0.20482,2.0437499 2.00717,2.0437499 1.06503,0 1.85698,-0.40875 l 0.39596,1.0491242 q -0.94214,0.517751 -2.43044,0.517751 -1.58389,0 -2.49872,-0.9946252 -0.91483,-0.994625 -0.91483,-2.8339998 0,-1.7848751 0.83291,-2.7795 0.84656,-1.00825 2.30756,-1.00825 1.47465,0 2.23928,0.967375 0.76463,0.95375 0.71002,2.7931249 z m -1.55658,-0.654 q 0,-2.0846249 -1.44734,-2.0846249 -0.76464,0 -1.17427,0.613125 -0.45058,0.6676249 -0.42327,1.93475 l 3.04488,-0.4632501 z"
       style="font-size:medium;line-height:125%;font-family:sans-serif;letter-spacing:0px;word-spacing:0px;fill:#29a00a"
       id="path4226"
       inkscape:connector-curvature="0" />
    <path
       d="m 197.34873,10.821999 -1.9389,0 -2.68987,-4.7415001 -0.0273,0 0,4.7415001 -1.73409,0 0,-9.3739999 1.73409,0 0,4.2782499 0.0273,0 2.68987,-4.2782499 1.77504,0 -2.93565,4.3327499 3.09951,5.04125 z"
       style="font-size:medium;line-height:125%;font-family:sans-serif;letter-spacing:0px;word-spacing:0px;fill:#29a00a"
       id="path4228"
       inkscape:connector-curvature="0" />
    <path
       d="m 203.98712,7.1568739 q 0,1.7031249 -0.75098,2.7113749 -0.81925,1.0900002 -2.30756,1.0900002 -1.48831,0 -2.30755,-1.0900002 -0.75099,-1.00825 -0.75099,-2.7113749 0,-1.71675 0.75099,-2.7249999 0.81924,-1.09 2.30755,-1.09 1.50196,0 2.30756,1.09 0.75098,1.0082499 0.75098,2.7249999 z m -1.65216,-0.013625 q 0,-2.7522499 -1.40638,-2.7522499 -1.40638,0 -1.40638,2.7522499 0,2.684125 1.40638,2.684125 1.40638,0 1.40638,-2.684125 z"
       style="font-size:medium;line-height:125%;font-family:sans-serif;letter-spacing:0px;word-spacing:0px;fill:#29a00a"
       id="path4230"
       inkscape:connector-curvature="0" />
    <path
       d="m 215.43049,10.821999 -1.66581,0 0,-5.218375 q 0,-1.199 -1.24253,-1.199 -0.72367,0 -1.22887,0.504125 l 0,5.91325 -1.66581,0 0,-5.2592501 q 0,-1.1717499 -1.37908,-1.1717499 -0.60078,0 -1.09234,0.204375 l 0,6.226625 -1.66581,0 0,-6.94875 q 1.106,-0.531375 2.75815,-0.531375 1.55658,0 2.29391,0.803875 0.87386,-0.803875 2.36217,-0.803875 1.22888,0 1.92524,0.694875 0.60078,0.613125 0.60078,1.55325 l 0,5.232 z"
       style="font-size:medium;line-height:125%;font-family:sans-serif;letter-spacing:0px;word-spacing:0px;fill:#29a00a"
       id="path4232"
       inkscape:connector-curvature="0" />
    <path
       d="m 219.00001,1.3934991 q 0,0.340625 -0.27309,0.585875 -0.25943,0.2316249 -0.64175,0.2316249 -0.38232,0 -0.6554,-0.2316249 -0.25943,-0.24525 -0.25943,-0.585875 0,-0.340625 0.25943,-0.58587499 0.27308,-0.24524999 0.6554,-0.24524999 0.38232,0 0.64175,0.24524999 0.27309,0.23162499 0.27309,0.58587499 z m -0.0819,9.4284999 -1.66581,0 0,-7.343875 1.66581,0 0,7.343875 z"
       style="font-size:medium;line-height:125%;font-family:sans-serif;letter-spacing:0px;word-spacing:0px;fill:#29a00a"
       id="path4234"
       inkscape:connector-curvature="0" />
  </g>
  <g
     id="g4280"
     transform="translate(0,-0.358776)"
     style="fill:#e2e2e2;fill-opacity:1">
    <path
       inkscape:connector-curvature="0"
       d="m 166.17445,26.469776 q 0,4.5 -3.0891,7.38 -2.20973,2.0475 -4.73513,2.5425 l -0.69899,-1.8225 q 3.99103,-1.17 5.41157,-4.7475 -0.94703,0.315 -1.82641,0.315 -2.14208,0 -3.49497,-1.08 -1.53328,-1.26 -1.53328,-3.645 0,-2.0925 1.33035,-3.465 1.33034,-1.395 3.65281,-1.395 2.50285,0 3.81064,1.71 1.17251,1.5525 1.17251,4.2075 z m -2.5705,-0.1575 q 0,-4.05 -2.52539,-4.05 -1.17251,0 -1.78131,0.99 -0.51861,0.855 -0.51861,2.205 0,3.1725 2.97636,3.1725 0.83428,0 1.66857,-0.3375 0.18038,-0.8325 0.18038,-1.98 z"
       id="path4197"
       style="fill:#e2e2e2;fill-opacity:1" />
    <path
       inkscape:connector-curvature="0"
       d="m 170.93462,34.682776 q 0,0.675 -0.49606,1.17 -0.47351,0.4725 -1.14995,0.4725 -0.699,0 -1.19506,-0.4725 -0.47351,-0.495 -0.47351,-1.17 0,-0.6975 0.47351,-1.17 0.49606,-0.495 1.19506,-0.495 0.67644,0 1.14995,0.495 0.49606,0.4725 0.49606,1.17 z"
       id="path4199"
       style="fill:#e2e2e2;fill-opacity:1" />
    <path
       inkscape:connector-curvature="0"
       d="m 182.81001,36.322776 -9.80847,0 5.36648,-7.695 q 1.39798,-2.0025 1.39798,-3.4875 0,-2.52 -2.84107,-2.52 -1.57837,0 -2.79598,0.63 l -0.67644,-1.755 q 1.71366,-0.8775 4.17141,-0.8775 2.45776,0 3.81065,1.26 1.24015,1.17 1.24015,2.97 0,1.7325 -2.00679,4.3875 l -3.65281,4.815 5.79489,0 0,2.2725 z"
       id="path4201"
       style="fill:#e2e2e2;fill-opacity:1" />
    <path
       inkscape:connector-curvature="0"
       d="m 196.90013,17.265776 -8.65871,23.093 -1.7798,-0.6803 8.65871,-23.093 1.7798,0.6803 z"
       id="path4203"
       style="fill:#e2e2e2;fill-opacity:1" />
    <path
       inkscape:connector-curvature="0"
       d="m 206.16995,36.212776 -2.79598,0 0,-12.398 q -1.30779,0.72 -3.81064,0.9225 l -0.33823,-1.6425 q 3.8332,-0.495 4.98315,-2.3625 l 1.9617,0 0,15.48 z"
       id="path4205"
       style="fill:#e2e2e2;fill-opacity:1" />
    <path
       inkscape:connector-curvature="0"
       d="m 220.25005,28.471776 q 0,3.2175 -0.99212,5.2875 -1.3078,2.6775 -4.01358,2.6775 -2.70579,0 -4.01358,-2.6775 -0.99212,-2.07 -0.99212,-5.2875 0,-3.2175 0.99212,-5.2875 1.30779,-2.6775 4.01358,-2.6775 2.70578,0 4.01358,2.6775 0.99212,2.07 0.99212,5.2875 z m -2.63814,-0.0225 q 0,-6.2325 -2.36756,-6.2325 -2.36756,0 -2.36756,6.2325 0,6.165 2.36756,6.165 2.36756,0 2.36756,-6.165 z"
       id="path4207"
       style="fill:#e2e2e2;fill-opacity:1" />
  </g>
</svg>
