<svg xmlns="http://www.w3.org/2000/svg" width="200" height="64" viewBox="0 0 200 64"><path d="M53.573 8H10.87C9.41 8 8.223 9.186 8.223 10.65v42.7c0 1.464 1.186 2.65 2.65 2.65h42.7c1.464 0 2.65-1.186 2.65-2.65v-42.7c0-1.464-1.186-2.65-2.65-2.65" fill="#3b5998"/><path d="M47.36 37.412l.933-7.244H41.12v-4.625c0-2.098.582-3.527 3.59-3.527h3.835v-6.48c-.663-.088-2.94-.285-5.59-.285-5.53 0-9.316 3.377-9.316 9.577v5.342h-6.257v7.244h6.256V56h7.48V37.415h6.24" fill="#fff"/><text style="line-height:125%" x="62.814" y="1009.438" font-size="35.146" font-family="sans-serif" letter-spacing="0" word-spacing="0" fill="#3b5998" transform="translate(0 -988.362)"><tspan x="62.814" y="1009.438" style="-inkscape-font-specification:'Lato Bold'" font-weight="bold" font-size="17.573" font-family="Lato">bezoek ons op</tspan></text><g fill="#3b5998"><path d="M133.16 50.23c-.218 1.54-1.443 2.347-2.898 2.234-.364-.03-.693-.103-.988-.22-1.173-.672-1.527-1.8-1.63-2.507h-.003c-.08-1.094-.165-3.384.37-4.467.453-.83 1.244-1.28 2.294-1.316 1.49-.05 2.62.69 2.84 2.204.198 1.334.208 2.74.016 4.072zm-.74-10.113c-1.87-.2-3.49.367-4.857 2.012V32.04l-4.953.6V55.99h4.953v-1.387c.67.477 1.318 1.05 2.08 1.323 2.884 1.035 6.69.192 8.022-3.67.854-2.475.832-5.014.188-7.518-.713-2.782-2.565-4.318-5.433-4.623M150.184 49.98c-.017.102-.034.204-.057.306-.33 1.46-1.39 2.252-2.805 2.186-1.522-.07-2.565-.96-2.712-2.48-.106-1.11-.114-2.244-.022-3.356.144-1.754 1.24-2.713 2.887-2.68 1.352.025 2.316.792 2.66 2.092.31 1.308.08 3.634.05 3.93zm-.21-9.575c-1.72-.46-3.46-.454-5.176.003-2.572.685-4.296 2.312-4.85 4.9-.304 1.413-.365 2.914-.284 4.362.183 3.313 2.23 5.673 5.41 6.406.045.01.092.018.137.03 0 0 .01 0 .024.003.122.024.244.047.367.065l.124.01h.004c.154.03.34.05.534.066.622.067 1.414.114 2.076.036h.01l.1-.004c3.284-.17 5.775-2.24 6.502-5.417.4-1.74.4-3.492.014-5.235-.604-2.735-2.263-4.495-4.99-5.225M75.618 40.323h-3.535v-2.35c.258-2.223 3.93-1.8 3.93-1.8V32.35h-.004c-.127-.03-7.304-1.732-8.73 3.73v.004l-.01.036c-.224.683-.21 3.81-.206 4.203H64v4.182h3.254V55.88h4.74V44.504h3.623l.408-4.182h-.407M86.512 50.208c-.155 1.448-1.327 2.318-2.712 2.264-1.42-.056-2.36-.816-2.666-2.178-.368-1.938.063-4.24.1-4.427.37-1.3 1.316-1.945 2.705-1.912 1.362.03 2.413.837 2.567 2.25.144 1.32.147 2.68.005 4.003zm.407-7.884c-.06-.064-.116-.126-.166-.178l-.022-.024c-.07-.07-.117-.12-.117-.12-1.116-1.134-1.537-1.416-2.41-1.674-3.362-.99-6.635.77-7.67 4.152-.638 2.078-.647 4.217-.273 6.32.806 4.558 4.195 6.084 7.808 5.332 1.11-.23 1.932-.92 2.697-1.882 0 0 .07-.084.153-.248v2.005h4.622V40.34H86.92v1.984M105.66 54.884c-.214-.784-.458-1.558-.694-2.306l-.223-.83s-5.794 2.78-6.697-2.505c-.084-.872-.06-1.772.062-2.633.225-1.625 1.216-2.495 2.793-2.644.534-.05 1.088-.025 1.615.064.718.122 1.42.338 2.205.532.273-.836.552-1.663.813-2.495.04-.13.075-.243.1-.344h.002l.13-.5c-.032-.067-.11-.135-.217-.203-.133-.11-.36-.203-.715-.333-.14-.052-.284-.098-.426-.142l-.21-.065c-1.522-.435-3.085-.47-4.672-.3-3.346.352-5.617 2.327-6.247 5.586-.33 1.715-.315 3.45.065 5.17.568 2.577 2.13 4.24 4.668 4.986 1.657.485 3.355.51 5.043.246.71-.11 1.73-.48 2.46-.74l.278-.1-.13-.445M116.458 46.62h-5.353c.028-1.065.16-2.055 1.108-2.657 1.005-.64 2.115-.663 3.148-.09 1.046.577 1.128 1.62 1.098 2.746zm4.455 2.135c-.022-1.084-.008-2.174-.16-3.24-.424-2.922-2.203-4.77-5.08-5.254-1.1-.183-2.26-.16-3.376-.052-3.054.29-5.372 2.193-5.847 5.056-.29 1.737-.326 3.58-.092 5.324.352 2.623 1.63 4.295 3.84 5.097l.03.003c-.002 0 0 0-.002.002 1.01.302 5.946 1.593 10.3-.594l-.176-.64h-.006c-.202-.854-.444-1.7-.672-2.547l-.024-.084s-.09.032-.252.083h-.01c-.19.05-.38.108-.565.17-.034.012-.068.023-.103.033-.66.186-1.6.414-2.595.542-.835.085-1.678.088-2.53.015-1.38-.23-2.44-.97-2.39-2.72H120.317s.582-.006.606-.012v-.173l-.01-1.01M188.457 40.504h-5.254l-4.563 7.135V32.053l-4.954.6v23.353h4.954V48.86l4.563 7.157h5.254l-4.952-7.77 4.952-7.743M167.077 49.977c-.016.103-.033.204-.057.306-.33 1.46-1.39 2.25-2.805 2.186-1.52-.072-2.565-.96-2.712-2.48-.106-1.11-.115-2.245-.023-3.356.147-1.755 1.243-2.714 2.89-2.682 1.35.027 2.314.793 2.658 2.093.31 1.308.08 3.635.05 3.932zm-.21-9.574c-1.72-.46-3.46-.455-5.177.002-2.57.685-4.294 2.312-4.85 4.9-.303 1.413-.363 2.914-.282 4.363.182 3.312 2.23 5.673 5.41 6.405l.137.03s.007 0 .02.003c.124.025.247.048.37.066.04.004.082.008.123.01h.004c.155.03.34.05.533.067.623.065 1.416.112 2.076.034.005 0 .007 0 .012-.002.034 0 .067 0 .1-.003 3.284-.172 5.775-2.242 6.502-5.417.4-1.742.4-3.493.015-5.235-.607-2.736-2.265-4.496-4.992-5.225"/></g></svg>