<svg xmlns="http://www.w3.org/2000/svg" width="468" height="32" xmlns:xlink="http://www.w3.org/1999/xlink" viewBox="0 0 468 32"><defs><linearGradient id="a"><stop stop-color="#0a2855" offset="0%"/><stop stop-color="#102a83" offset="100%"/></linearGradient><linearGradient id="b" x2="1" gradientUnits="userSpaceOnUse" gradientTransform="scale(31.56412) rotate(-30 66.603 -1.67)"><stop offset="0" stop-color="#af1743"/><stop offset=".152" stop-color="#af1743"/><stop offset="1" stop-color="#e32326"/></linearGradient><linearGradient id="d" x1="66.848" x2="66.848" y1="207.505" y2="447.053" gradientUnits="userSpaceOnUse" gradientTransform="matrix(.0783 0 0 .06472 219.765 1015.18)" xlink:href="#a"/><linearGradient id="c" x1="589.963" x2="589.963" y1="181.277" y2="390.757" gradientTransform="matrix(.06842 0 0 .07407 219.765 1015.18)" gradientUnits="userSpaceOnUse" xlink:href="#a"/><linearGradient id="f" x1="457.879" x2="457.879" y1="129.968" y2="279.388" gradientTransform="matrix(.04895 0 0 .10354 219.765 1015.18)" gradientUnits="userSpaceOnUse" xlink:href="#a"/><linearGradient id="e" x1="470.51" x2="470.51" y1="161.273" y2="357.017" gradientTransform="matrix(.062 0 0 .08174 219.765 1015.18)" gradientUnits="userSpaceOnUse" xlink:href="#a"/></defs><path fill="#e2e2e2" d="M290 8h2v16h-2z"/><path fill="#fbc707" d="M467.5 8v16H395V8h72.5"/><path fill="#d91433" d="M407.75 10.873l-2.317 3.147h12.624c.64 0 .63.243.318.665-.316.43-.846 1.175-1.17 1.61-.163.222-.46.625.522.625h5.163s.832-1.133 1.53-2.08c.948-1.287.08-3.967-3.31-3.967h-13.36"/><path fill="#d91433" d="M404.496 21.126l4.653-6.322h5.772c.638 0 .63.243.318.665-.317.428-.856 1.166-1.178 1.602-.164.22-.46.624.52.624h7.735c-.643.882-2.73 3.43-6.476 3.43h-11.344M431.14 17.696l-2.522 3.43h-6.655s2.52-3.43 2.524-3.43h6.654M441.337 16.92h-16.28l4.453-6.047h6.653l-2.55 3.467h2.97l2.55-3.467h6.654l-4.45 6.047M440.765 17.696l-2.524 3.43h-6.652s2.522-3.43 2.524-3.43h6.653M395 19.05h9.804l-.535.727H395v-.728M395 17.696h10.8l-.536.728H395v-.728M395 20.402h8.81l-.534.724H395v-.724M467.5 19.777h-9.766l.536-.728h9.23v.727M467.5 21.126h-10.76l.534-.724H467.5v.724M459.264 17.696h8.236v.728h-8.77l.534-.728M455 10.873l-4.45 6.047h-7.05s4.452-6.047 4.454-6.047H455M442.93 17.696l-.723.985c-.836 1.13-.097 2.446 2.63 2.446h10.685l2.524-3.43H442.93"/><g><path fill="url(#b)" fill-rule="evenodd" d="M321.286 1020.443l-12.608 6.877 13.994 8.138c.127.074.27.222.27.382v11.99c0 .167-.148.28-.165.29l-.834.466c-.13.072-.32.08-.51-.025l-.743-.41c-.108-.06-.2-.207-.2-.362v-10.608c0-.187-.205-.276-.34-.355l-12.15-7.072v14.185c0 .313.3.672.556.822l12.622 7.446c.405.238.647.2 1.206-.08l12.473-7.364c.29-.17.574-.492.575-.846v-14.166l-8.368 4.89c-.105.06-.295.084-.405.02l-.758-.437c-.15-.087-.287-.26-.29-.443l-.017-.885c-.003-.133.086-.306.203-.374l8.95-5.21-12.604-6.866c-.197-.107-.653-.112-.858 0" transform="translate(0 -1020.362)"/><path fill="#363735" d="M352.298 21.288c-.205.046-1.558.19-2.062.106-2.056-.334-3.045-1.386-3.067-3.216-.023-1.95.788-3.365 3.196-3.465.408-.017 1.754.222 1.92.376l.012 6.198zm3.108 2.254V6.855h-3.12v5.472c-.29-.17-1.567-.4-2.568-.37-3.337.092-5.815 2.725-5.748 5.943.09 4.207 2.57 5.972 6.46 6.218 1.99.127 4.38-.48 4.976-.576M377.957 21.288c-.204.046-1.558.19-2.062.106-2.055-.334-3.045-1.386-3.066-3.216-.024-1.95.787-3.365 3.195-3.465.408-.017 1.755.222 1.92.376l.012 6.198zm3.108 2.254V6.855h-3.12v5.472c-.29-.17-1.566-.4-2.568-.37-3.336.092-5.815 2.725-5.747 5.943.088 4.207 2.57 5.972 6.458 6.218 1.992.127 4.383-.48 4.977-.576M357.158 12.935v15.67h3.157l-.01-13.627c.203-.046 1.546-.227 2.056-.197 2.083.124 3.03 1.286 3.08 3.117.03 1.17-.36 2.14-1.124 2.746-.575.456-1.376.693-2.302.72l.006 2.74c1.454.042 2.925-.264 4.092-1.016 1.51-.975 2.586-3.136 2.526-5.19-.107-3.716-2.2-5.83-6.457-5.92-1.995-.042-4.416.655-5.022.958"/></g><g><path fill="#040606" d="M4.08 27.778h5.88v-9.766H4.08zM10.405 13.13c0 1.838-1.49 3.33-3.33 3.33-1.838 0-3.328-1.492-3.328-3.33s1.49-3.33 3.33-3.33c1.837 0 3.328 1.492 3.328 3.33"/><path fill="#040606" d="M20.701 2.125c4.09 0 7.5 1.11 9.858 3.205 2.666 2.37 4.018 5.96 4.018 10.67 0 9.336-4.538 13.875-13.874 13.875H2.125V2.125h18.577zM21.1 0H0v32h21.1v-.01c4.61-.063 8.26-1.207 10.852-3.412 3.15-2.68 4.75-6.915 4.75-12.582 0-2.71-.42-5.14-1.25-7.222-.792-1.994-1.965-3.688-3.482-5.037C29.296 1.36 25.543.077 21.1.003v-.01"/><path fill="#cd0c6f" d="M20.12 27.79h-7.46V4.712h7.46-.3c6.22 0 12.843 2.455 12.843 11.568 0 9.635-6.622 11.51-12.843 11.51h.3"/><path fill="#fff" d="M12.495 11.61v3.67h.838c.314 0 .54-.017.68-.052.182-.045.333-.122.453-.23.12-.11.22-.287.294-.535.076-.25.115-.587.115-1.015 0-.43-.04-.757-.115-.987-.076-.228-.182-.407-.318-.536-.137-.128-.31-.215-.52-.26-.157-.035-.465-.053-.922-.053zm-1.12-.94h2.048c.462 0 .814.035 1.057.106.325.096.604.266.836.51.233.246.41.546.53.9.122.355.182.793.182 1.313 0 .456-.057.85-.17 1.18-.14.405-.337.732-.595.982-.194.19-.456.337-.787.443-.248.078-.578.117-.992.117h-2.11V10.67"/><path fill="#fff" d="M13.423 10.822c.446 0 .787.034 1.014.1.298.088.557.246.77.47.215.228.382.512.496.844.115.337.173.762.173 1.263 0 .437-.054.818-.162 1.132-.13.38-.317.69-.556.92-.177.173-.422.31-.73.408-.23.073-.548.11-.944.11h-1.957v-5.248h1.896zm-2.2-.304v5.856h2.26c.43 0 .778-.042 1.04-.125.35-.113.636-.275.846-.48.273-.265.485-.615.63-1.04.12-.345.18-.76.18-1.23 0-.535-.064-.993-.19-1.362-.128-.374-.317-.696-.563-.955-.25-.264-.554-.45-.904-.553-.26-.076-.62-.112-1.1-.112h-2.2"/><path fill="#fff" d="M13 11.763c.553 0 .788.027.89.05.18.04.332.113.448.222.117.11.21.27.278.474.07.212.107.528.107.938 0 .41-.037.737-.108.97-.067.22-.15.377-.25.467-.1.09-.232.156-.39.196-.126.033-.342.05-.642.05h-.686V11.76H13zm-.657-.304v3.973h.99c.33 0 .564-.02.717-.057.205-.05.38-.14.518-.265.142-.128.253-.325.338-.603.08-.265.12-.61.12-1.06 0-.448-.04-.786-.12-1.033-.085-.252-.206-.454-.36-.6-.157-.146-.356-.247-.592-.298-.17-.038-.48-.056-.954-.056h-.657M17.295 16.222V10.67h4.11v.94h-2.99v1.23h2.78v.942h-2.78v1.5h3.096v.94h-4.215"/><path fill="#fff" d="M21.253 10.822v.637h-2.99v1.532h2.782v.638h-2.782v1.803h3.097v.637h-3.913v-5.248h3.806zm-4.11-.304v5.856h4.52V15.13h-3.097v-1.196h2.782V12.69h-2.782v-.927h2.99v-1.245h-4.413M25.717 14.02l-.765-2.056-.75 2.057zm2.064 2.202h-1.218l-.485-1.26H23.86l-.46 1.26h-1.19l2.157-5.552h1.194l2.22 5.552"/><path fill="#fff" d="M25.458 10.822l2.1 5.248h-.892l-.485-1.26h-2.427l-.46 1.26h-.86c.145-.376 1.97-5.07 2.038-5.248h.988zm-1.194-.304l-2.276 5.856h1.518l.46-1.26h2.007l.484 1.26h1.55l-2.343-5.856h-1.4"/><path fill="#fff" d="M24.953 12.403l.546 1.466h-1.08c.094-.263.37-1.02.533-1.467zm-.968 1.77h1.95l-.984-2.648-.965 2.648M28.718 16.222v-5.507h1.12v4.566h2.79v.942h-3.91"/><path fill="#fff" d="M29.686 10.867v4.566h2.79v.637H28.87v-5.203h.816zm-1.12-.304v5.81h4.213V15.13h-2.79v-4.567h-1.424"/></g><g><g fill-rule="evenodd"><path fill="#f79f1a" d="M209.164 12.754c0 7.044-5.7 12.754-12.73 12.754s-12.73-5.71-12.73-12.754S189.404 0 196.434 0s12.73 5.71 12.73 12.754z"/><path fill="#ea001b" d="M193.46 12.754c0 7.044-5.7 12.754-12.73 12.754S168 19.798 168 12.754 173.7 0 180.73 0s12.73 5.71 12.73 12.754z"/><path fill="#ff5f01" d="M188.582 2.714c-2.97 2.335-4.877 5.963-4.877 10.04 0 4.075 1.907 7.706 4.877 10.04 2.97-2.334 4.877-5.965 4.877-10.04 0-4.077-1.908-7.705-4.878-10.04z"/></g><path d="M170.832 31.818h-.723v-3.372h.708v.41s.622-.5.99-.495c.72.014 1.148.625 1.148.625s.348-.624 1.134-.624c1.16 0 1.33 1.064 1.33 1.064v2.38h-.693v-2.097s.002-.637-.75-.637c-.78 0-.85.637-.85.637v2.096h-.723v-2.11s-.07-.666-.722-.666c-.848 0-.864.68-.864.68zM192.8 28.36c-.37-.005-.99.497-.99.497v-.41h-.71v3.37h.722l-.013-2.11s.015-.68.863-.68c.157 0 .28.04.376.098v-.002l.235-.657c-.142-.06-.304-.102-.485-.105zM202.976 28.36c-.37-.005-.992.497-.992.497v-.41h-.71v3.37H202l-.014-2.11s.016-.68.864-.68c.158 0 .28.04.377.098v-.002l.235-.657c-.142-.06-.303-.102-.484-.105zM177.757 28.347c-1.08 0-1.653.972-1.656 1.784-.002.833.652 1.792 1.687 1.792.604 0 1.1-.445 1.1-.445v.343h.71v-3.374h-.713v.425s-.466-.523-1.127-.523zm.138.687c.58 0 1.053.505 1.053 1.127 0 .623-.472 1.125-1.053 1.125-.58 0-1.05-.502-1.05-1.124 0-.62.47-1.126 1.05-1.126zM198.493 28.347c-1.08 0-1.653.972-1.656 1.784-.003.833.65 1.792 1.687 1.792.604 0 1.1-.445 1.1-.445l-.002.343h.71v-3.374h-.712v.425s-.466-.523-1.127-.523zm.14.687c.58 0 1.05.505 1.05 1.127 0 .623-.47 1.125-1.05 1.125-.582 0-1.05-.502-1.05-1.124 0-.62.468-1.126 1.05-1.126zM205.32 28.347c-1.08 0-1.653.972-1.656 1.784-.003.833.65 1.792 1.687 1.792.605 0 1.1-.445 1.1-.445v.343h.71v-4.707h-.713v1.758s-.466-.523-1.127-.523zm.14.687c.58 0 1.05.505 1.05 1.127 0 .623-.47 1.125-1.05 1.125-.582 0-1.05-.502-1.05-1.124 0-.62.468-1.126 1.05-1.126zM181.767 31.93c-.737 0-1.417-.452-1.417-.452l.312-.482s.643.297 1.105.297c.3 0 .8-.096.807-.396.006-.317-.843-.41-.843-.41s-1.267-.018-1.267-1.063c0-.657.634-1.077 1.445-1.077.47 0 1.346.41 1.346.41l-.354.553s-.677-.27-1.034-.283c-.302-.01-.666.134-.666.397 0 .715 2.11-.056 2.11 1.388 0 .947-.86 1.12-1.543 1.12zM184.484 27.47v.98h-.63v.71h.63v1.693S184.428 32 185.66 32c.34 0 1.01-.252 1.01-.252l-.287-.737s-.265.228-.565.22c-.57-.014-.553-.38-.553-.38v-1.69h1.174v-.71h-1.175v-.98h-.78zM188.762 28.39c-1.16 0-1.738.954-1.733 1.782.004.852.526 1.81 1.8 1.81.547 0 1.314-.478 1.314-.478l-.33-.573s-.523.372-.983.372c-.92 0-.98-.9-.98-.9h2.466s.184-2.013-1.554-2.013zm-.105.66h.086c.867 0 .86.82.86.82h-1.752s-.04-.77.807-.82zM196.094 30.922l.33.66s-.524.342-1.112.342c-1.217 0-1.893-.916-1.893-1.783 0-1.36 1.075-1.762 1.802-1.762.66 0 1.232.38 1.232.38l-.37.662s-.225-.35-.882-.35c-.655 0-1 .565-1 1.1 0 .602.4 1.113 1.01 1.113.478 0 .882-.36.882-.36z"/></g><g fill-rule="evenodd"><path fill="#009ee0" d="M61.643 9.65h6.77c3.635 0 5.003 1.838 4.792 4.546-.35 4.463-3.047 6.93-6.626 6.93H64.77c-.49 0-.82.325-.955 1.207l-.775 5.116c-.05.33-.225.527-.488.55H58.31c-.4 0-.542-.305-.438-.967l2.593-16.413c.104-.658.463-.97 1.178-.97z"/><path fill="#003d86" d="M91.03 9.345c2.286 0 4.393 1.24 4.104 4.327-.34 3.662-2.315 5.7-5.418 5.71h-2.708c-.39 0-.577.316-.68.97l-.522 3.332c-.08.503-.337.75-.72.75h-2.52c-.403 0-.543-.256-.453-.83l2.084-13.357c.102-.657.354-.902.8-.902h6.034zm-4.106 7.15l.663-4.227 1.933-.01c1.066 0 1.735.704 1.682 1.694-.086 1.605-.94 2.494-2.224 2.543h-2.054zm15.064 6.916c-.897.816-1.694 1.347-3.476 1.347-2.456 0-4.32-2.042-4.127-4.643.25-3.362 2.578-5.985 6.033-6.056 1.495-.03 2.56.413 2.98 1.403.117.28.244.233.292-.045l.09-.533c.06-.34.167-.464.39-.464h2.462c.33 0 .436.213.366.65l-1.38 8.662c-.093.583-.277.736-.654.736h-2.24c-.3 0-.43-.172-.387-.495l.082-.618c.034-.26-.202-.15-.432.06zm-1.874-1.33c1.487 0 2.876-1.186 3.093-2.64.216-1.454-.82-2.64-2.308-2.64s-2.877 1.186-3.094 2.64c-.216 1.454.82 2.64 2.308 2.64zm11.27-7.69h-2.262c-.47 0-.66.343-.51.78l2.82 8.258-2.78 3.928c-.23.327-.053.627.275.627h2.553c.38 0 .567-.097.76-.372l8.672-12.44c.267-.384.14-.785-.297-.786H118.2c-.413 0-.58.164-.817.51l-3.618 5.247-1.61-5.256c-.1-.324-.335-.492-.77-.492z"/><path fill="#009ee0" d="M129.938 9.345c2.285 0 4.392 1.24 4.103 4.327-.34 3.662-2.314 5.7-5.417 5.71h-2.708c-.39 0-.578.316-.68.97l-.522 3.332c-.08.503-.337.75-.72.75h-2.52c-.403 0-.543-.256-.453-.83l2.084-13.357c.102-.657.354-.902.8-.902h6.034zm-4.107 7.15l.664-4.227 1.933-.01c1.066 0 1.735.704 1.682 1.694-.087 1.605-.94 2.494-2.225 2.543h-2.054zm15.065 6.916c-.897.816-1.695 1.347-3.476 1.347-2.457 0-4.32-2.042-4.128-4.643.25-3.362 2.578-5.985 6.033-6.056 1.495-.03 2.56.413 2.98 1.403.117.28.244.233.292-.045l.09-.533c.06-.34.167-.464.39-.464h2.462c.33 0 .435.213.365.65l-1.38 8.662c-.093.583-.277.736-.654.736h-2.24c-.3 0-.428-.172-.386-.495l.082-.618c.034-.26-.2-.15-.43.06zm-1.874-1.33c1.488 0 2.877-1.186 3.094-2.64.216-1.454-.82-2.64-2.308-2.64-1.487 0-2.876 1.186-3.093 2.64-.216 1.454.82 2.64 2.308 2.64zm10.333 2.4h-2.586c-.205 0-.348-.16-.317-.357l2.274-14.39c.03-.196.225-.357.43-.357h2.585c.205 0 .347.16.316.357l-2.273 14.39c-.032.197-.225.358-.43.358z"/><path fill="#003d86" d="M57.41 4h6.778c1.908 0 4.172.062 5.686 1.398 1.012.892 1.543 2.313 1.42 3.84-.416 5.174-3.51 8.072-7.66 8.072H60.29c-.568 0-.945.377-1.106 1.398l-.933 5.933c-.06.386-.226.613-.53.64h-4.175c-.463 0-.628-.354-.507-1.122l3.006-19.032C56.164 4.363 56.582 4 57.41 4z"/><path fill="#003172" d="M59.28 18.11l1.185-7.49c.104-.658.463-.97 1.178-.97h6.77c1.12 0 2.026.174 2.736.496-.68 4.605-3.66 7.164-7.56 7.164h-3.343c-.44 0-.768.225-.966.8z"/></g><g><path fill="url(#c)" d="M270 1028.607c-.71 0-1.457.02-2.092.027-1.138.01-1.55.55-1.913 1.396-.364.85-5.828 13.812-5.863 14.08h4.185l.846-2.307h5.077c.14.373.22.953.305 1.354.235 1.102.082.964.64.955 1.084-.018 2.2.033 3.28-.01v-.103l-3.252-15.357c-.37-.027-.786-.037-1.213-.038zm-1.59 4.317l1.17 5.7-3.256-.015c.09-.325 1.93-5.468 2.086-5.686z" transform="translate(0 -1020.362)"/><path fill="url(#d)" d="M225 1028.88v.23c1.136.185 3.476.935 4.244 1.5.556.408.64 1.167.85 1.987l2.378 9.193c.185.734.364 1.61.6 2.303l4.225.02c.348-.673 2.907-6.912 3.252-7.745l2.422-5.8c.17-.416.728-1.568.788-1.923l-4.168-.01-4.14 10.427c-.203-.32-1.47-7.623-1.683-8.713-.364-1.863-1.57-1.717-3.453-1.716-1.693 0-3.516-.065-5.193.01l-.124.237z" transform="translate(0 -1020.362)"/><path fill="url(#e)" d="M249.67 1040.156c-.143.255-.73 3.014-.73 3.397 2.95 1.245 8.292 1.302 10.47-1.618.64-.857 1.132-2.287.844-3.698-.522-2.556-3.375-3.187-4.885-4.32-1.605-1.206-.015-2.836 3.216-2.162.732.153 1.175.39 1.796.572l.694-3.306c-1.47-.378-2.185-.664-3.924-.658-2.32.01-5.034.918-6.095 3.056-1.28 2.58-.023 4.676 2.356 5.94.856.454 2.432 1.092 2.67 1.905.418 1.433-1.496 1.902-2.703 1.85-2.28-.102-2.407-.576-3.71-.957z" transform="translate(0 -1020.362)"/><path fill="url(#f)" d="M242.177 1044.104h4l3.313-15.466h-3.988l-3.325 15.466z" transform="translate(0 -1020.362)"/></g></svg>