<?xml version="1.0" encoding="UTF-8" standalone="no"?>
<!-- Created with Inkscape (http://www.inkscape.org/) -->

<svg
   xmlns:dc="http://purl.org/dc/elements/1.1/"
   xmlns:cc="http://creativecommons.org/ns#"
   xmlns:rdf="http://www.w3.org/1999/02/22-rdf-syntax-ns#"
   xmlns:svg="http://www.w3.org/2000/svg"
   xmlns="http://www.w3.org/2000/svg"
   xmlns:sodipodi="http://sodipodi.sourceforge.net/DTD/sodipodi-0.dtd"
   xmlns:inkscape="http://www.inkscape.org/namespaces/inkscape"
   width="202"
   height="48"
   viewBox="0 0 202 48.000001"
   id="svg4216"
   version="1.1"
   inkscape:version="0.91 r13725"
   sodipodi:docname="logo-lumidora.svg">
  <defs
     id="defs4218" />
  <sodipodi:namedview
     id="base"
     pagecolor="#ffffff"
     bordercolor="#666666"
     borderopacity="1.0"
     inkscape:pageopacity="0.0"
     inkscape:pageshadow="2"
     inkscape:zoom="2.8"
     inkscape:cx="35.950255"
     inkscape:cy="68.846269"
     inkscape:document-units="px"
     inkscape:current-layer="layer1"
     showgrid="false"
     units="px"
     inkscape:window-width="1536"
     inkscape:window-height="801"
     inkscape:window-x="-8"
     inkscape:window-y="-8"
     inkscape:window-maximized="1" />
  <metadata
     id="metadata4221">
    <rdf:RDF>
      <cc:Work
         rdf:about="">
        <dc:format>image/svg+xml</dc:format>
        <dc:type
           rdf:resource="http://purl.org/dc/dcmitype/StillImage" />
        <dc:title></dc:title>
      </cc:Work>
    </rdf:RDF>
  </metadata>
  <g
     inkscape:label="Layer 1"
     inkscape:groupmode="layer"
     id="layer1"
     transform="translate(0,-1004.3622)">
    <g
       id="g4204"
       transform="matrix(0.57227749,0,0,0.57227749,-246.79467,466.89383)">
      <g
         id="g4188">
        <rect
           style="opacity:1;fill:#ed1c23;fill-opacity:1;fill-rule:nonzero;stroke:none;stroke-width:6.4289999;stroke-linecap:square;stroke-linejoin:miter;stroke-miterlimit:4;stroke-dasharray:none;stroke-opacity:1"
           id="rect4166-2"
           width="112.5"
           height="7.5"
           x="431.25"
           y="1015.5498"
           rx="4.21875"
           ry="3.75" />
        <rect
           style="opacity:1;fill:#fecb09;fill-opacity:1;fill-rule:nonzero;stroke:none;stroke-width:6.4289999;stroke-linecap:square;stroke-linejoin:miter;stroke-miterlimit:4;stroke-dasharray:none;stroke-opacity:1"
           id="rect4166-1-4"
           width="112.5"
           height="7.5"
           x="551.25"
           y="1015.5498"
           rx="4.21875"
           ry="3.75" />
        <rect
           style="opacity:1;fill:#00adef;fill-opacity:1;fill-rule:nonzero;stroke:none;stroke-width:6.4289999;stroke-linecap:square;stroke-linejoin:miter;stroke-miterlimit:4;stroke-dasharray:none;stroke-opacity:1"
           id="rect4166-1-3-4"
           width="112.5"
           height="7.5"
           x="671.25"
           y="1015.5498"
           rx="4.21875"
           ry="3.75" />
      </g>
      <g
         id="g4193">
        <rect
           style="opacity:1;fill:#ffffff;fill-opacity:1;fill-rule:nonzero;stroke:none;stroke-width:1;stroke-linecap:square;stroke-linejoin:miter;stroke-miterlimit:4;stroke-dasharray:none;stroke-opacity:0.61395347"
           id="rect4180-8"
           width="7.5"
           height="70.000008"
           x="431.25"
           y="939.17529"
           rx="3.25"
           ry="3.25" />
        <path
           style="opacity:1;fill:#ffffff;fill-opacity:1;fill-rule:nonzero;stroke:none;stroke-width:6.4289999;stroke-linecap:square;stroke-linejoin:miter;stroke-miterlimit:4;stroke-dasharray:none;stroke-opacity:1"
           d="m 448.75,959.0748 c -2.0775,0 -3.75,1.45371 -3.75,3.25781 l 0,24.3418 a 22.5,22.5 0 0 0 22.5,22.49999 22.5,22.5 0 0 0 22.5,-22.49999 l 0,-24.25 c 0,-1.8005 -1.6725,-3.25 -3.75,-3.25 -2.0775,0 -3.75,1.4495 -3.75,3.25 l 0,24.25 a 15,15 0 0 1 -15,14.99999 15,15 0 0 1 -15,-14.99999 l 0,-24.3418 c 0,-1.8041 -1.6725,-3.25781 -3.75,-3.25781 z"
           id="path4192-4"
           inkscape:connector-curvature="0" />
        <path
           style="opacity:1;fill:#ffffff;fill-opacity:1;fill-rule:nonzero;stroke:none;stroke-width:6.4289999;stroke-linecap:square;stroke-linejoin:miter;stroke-miterlimit:4;stroke-dasharray:none;stroke-opacity:1"
           d="m 515.625,959.17528 a 19.375,19.375 0 0 0 -19.375,19.375 l 0,27.37502 c 0,1.8005 1.6725,3.25 3.75,3.25 2.0775,0 3.75,-1.4495 3.75,-3.25 l 0,-27.37502 a 11.875,11.875 0 0 1 11.875,-11.875 11.875,11.875 0 0 1 11.875,11.875 l 0,27.37502 c 0,1.8005 1.6725,3.25 3.75,3.25 2.0775,0 3.75,-1.4495 3.75,-3.25 l 0,-27.37502 a 11.875,11.875 0 0 1 11.875,-11.875 11.875,11.875 0 0 1 11.875,11.875 l 0,27.37502 c 0,1.8005 1.6725,3.25 3.75,3.25 2.0775,0 3.75,-1.4495 3.75,-3.25 l 0,-27.37502 a 19.375,19.375 0 0 0 -19.375,-19.375 19.375,19.375 0 0 0 -15.62305,7.95703 19.375,19.375 0 0 0 -15.62695,-7.95703 z"
           id="rect4206-6-8"
           inkscape:connector-curvature="0" />
        <rect
           style="opacity:1;fill:#ffffff;fill-opacity:1;fill-rule:nonzero;stroke:none;stroke-width:6.4289999;stroke-linecap:square;stroke-linejoin:miter;stroke-miterlimit:4;stroke-dasharray:none;stroke-opacity:1"
           id="rect4206-5"
           width="7.5"
           height="50"
           x="573.75"
           y="959.17529"
           rx="4.875"
           ry="3.25" />
        <path
           style="opacity:1;fill:#ffffff;fill-opacity:1;fill-rule:nonzero;stroke:none;stroke-width:1;stroke-linecap:square;stroke-linejoin:miter;stroke-miterlimit:4;stroke-dasharray:none;stroke-opacity:0.61395347"
           d="m 633.5,939.17441 c -1.8005,0 -3.25,1.4495 -3.25,3.25 l 0,23.90429 a 25,25 0 0 0 -17.5,-7.15429 25,25 0 0 0 -25,25 25,25 0 0 0 25,24.99999 25,25 0 0 0 24.99609,-24.87304 l 0.004,0 0,-0.12695 0,-41.75 c 0,-1.8005 -1.4495,-3.25 -3.25,-3.25 l -1,0 z m -20.75,27.5 a 17.5,17.5 0 0 1 17.5,17.5 17.5,17.5 0 0 1 -17.5,17.49999 17.5,17.5 0 0 1 -17.5,-17.49999 17.5,17.5 0 0 1 17.5,-17.5 z"
           id="rect4180-2-0"
           inkscape:connector-curvature="0" />
        <path
           inkscape:connector-curvature="0"
           style="opacity:1;fill:#ffffff;fill-opacity:1;fill-rule:nonzero;stroke:none;stroke-width:6.4289999;stroke-linecap:square;stroke-linejoin:miter;stroke-miterlimit:4;stroke-dasharray:none;stroke-opacity:1"
           d="m 666.75,959.17528 a 25,25 0 0 0 -25,25 25,25 0 0 0 25,25.00002 25,25 0 0 0 25,-25.00002 25,25 0 0 0 -25,-25 z m 0,7.5 a 17.5,17.5 0 0 1 17.5,17.5 17.5,17.5 0 0 1 -17.5,17.50002 17.5,17.5 0 0 1 -17.5,-17.50002 17.5,17.5 0 0 1 17.5,-17.5 z"
           id="path4289-9-5" />
        <path
           style="opacity:1;fill:#ffffff;fill-opacity:1;fill-rule:nonzero;stroke:none;stroke-width:6.4289999;stroke-linecap:square;stroke-linejoin:miter;stroke-miterlimit:4;stroke-dasharray:none;stroke-opacity:1"
           d="m 758.75,959.17441 a 25,25 0 0 0 -25,25 25,25 0 0 0 25,24.99999 25,25 0 0 0 17.5,-7.1777 l 0,3.9277 c 0,1.8005 1.6725,3.25 3.75,3.25 2.0775,0 3.75,-1.4495 3.75,-3.25 l 0,-21.74999 a 25,25 0 0 0 -25,-25 z m 0,7.5 a 17.5,17.5 0 0 1 17.5,17.5 17.5,17.5 0 0 1 -17.5,17.49999 17.5,17.5 0 0 1 -17.5,-17.49999 17.5,17.5 0 0 1 17.5,-17.5 z"
           id="path4289-9-6-5"
           inkscape:connector-curvature="0" />
        <path
           style="opacity:1;fill:#ffffff;fill-opacity:1;fill-rule:nonzero;stroke:none;stroke-width:6.4289999;stroke-linecap:square;stroke-linejoin:miter;stroke-miterlimit:4;stroke-dasharray:none;stroke-opacity:1"
           d="m 720.21875,959.18222 c -8.44177,0.18914 -16.58477,4.65106 -21.11523,12.49805 -2.27641,3.94284 -3.35085,8.24677 -3.34766,12.49414 l -0.006,0 0,21.74999 c 0,1.8005 1.6725,3.25 3.75,3.25 2.0775,0 3.75,-1.4495 3.75,-3.25 l 0,-21.74999 0.0176,0 c -0.002,-2.97292 0.73868,-5.98438 2.33203,-8.74414 4.83248,-8.37012 16.19871,-11.05816 23.99219,-6.5586 3.70178,2.13722 7.3406,-4.21995 3.66211,-6.34375 -4.11033,-2.37309 -8.61328,-3.44477 -13.03516,-3.3457 z"
           id="rect4206-6-0-0"
           inkscape:connector-curvature="0" />
        <circle
           style="opacity:1;fill:#fecb09;fill-opacity:1;fill-rule:nonzero;stroke:none;stroke-width:0.64552891;stroke-linecap:square;stroke-linejoin:miter;stroke-miterlimit:2;stroke-dasharray:none;stroke-opacity:1"
           id="path4252-3"
           cx="577.5"
           cy="947.9248"
           r="6.25" />
      </g>
    </g>
  </g>
</svg>
