<svg xmlns="http://www.w3.org/2000/svg" xmlns:xlink="http://www.w3.org/1999/xlink" width="240" height="240" viewBox="0 0 240 240"><defs><linearGradient id="a"><stop offset="0" stop-color="#009036"/><stop offset=".167" stop-color="#58ab27"/><stop offset=".333" stop-color="#b1c800"/><stop offset=".5" stop-color="#ffec00"/><stop offset=".667" stop-color="#fecc00"/><stop offset=".833" stop-color="#f29400"/><stop offset="1" stop-color="#e2001a"/></linearGradient><linearGradient id="d" x1="359.59" x2="4203.4" y1="-5035.4" y2="-5035.4" gradientUnits="userSpaceOnUse" gradientTransform="matrix(.002 0 0 .0033 93.405 16.768)"><stop offset="0"/><stop stop-color="#fff" offset="1"/></linearGradient><clipPath id="c"><path d="M-85.333 0h682.67v512h-682.67z" fill-opacity=".67"/></clipPath><linearGradient xlink:href="#a" id="e" x1="144" y1="92.146" x2="180" y2="92.146" gradientUnits="userSpaceOnUse" gradientTransform="translate(0 16)"/><linearGradient id="b"><stop stop-color="#0a2855" offset="0%"/><stop stop-color="#102a83" offset="100%"/></linearGradient></defs><path fill="none" d="M64 192h32v24H64z"/><path d="M147 40l8-8 1 1-7 7 7 7-1 1zM205 40l-8-8-1 1 7 7-7 7 1 1z" fill="#484848" fill-rule="evenodd"/><path d="M47.588 162.193c-4.867 2.983-8.4 6.748-9.986 8.638l-3.886-3.045L32 169.17l6.715 6.83c1.155-2.96 4.815-8.747 9.285-12.858l-.412-.95z" fill="#29a00a"/><path d="M74.996 24L72 27l4.997 5L72 37l2.996 3 5.002-5 5 5 2.94-3-4.94-5L88 27l-3-3-5.002 5z" fill="#fff" fill-rule="evenodd"/><path d="M37 20l1-1 5 5-5 5-1-1 4-4z" fill="silver" fill-rule="evenodd"/><path d="M49.667 26L48 24.33 51.333 21 48 17.67 49.667 16 53 19.33 56.333 16 58 17.67 54.667 21 58 24.33 56.333 26 53 22.67z" fill="#ed1c23" fill-rule="evenodd"/><g transform="scale(.0313 .0234)" fill-rule="evenodd" stroke-width="1pt"><rect width="512" height="509.76" ry="0" rx="0" fill="#fff"/><rect width="512" height="169.92" y="342.08" ry="0" rx="0" fill="#21468b"/><path d="M0 0h512v169.92H0z" fill="#ae1c28"/></g><g fill-rule="evenodd" stroke-width="1pt"><path d="M16 12h5.333V0H16z"/><path d="M21.333 12h5.334V0h-5.334z" fill="#ffd90c"/><path d="M26.667 12H32V0h-5.333z" fill="#f31830"/></g><g fill-rule="evenodd" stroke-width="1pt"><path d="M32 8h16v4H32z" fill="#ffe600"/><path d="M32 0h16v4H32z"/><path d="M32 4h16v4H32z" fill="red"/></g><g fill-rule="evenodd" stroke-width="1pt"><path d="M48 12h16V0H48z" fill="#fff"/><path d="M48 12h5.333V0H48z" fill="#00267f"/><path d="M58.667 12H64V0h-5.333z" fill="#f31830"/></g><g transform="matrix(.0234 0 0 .0234 82 -.02)" clip-path="url(#c)"><g stroke-width="1pt"><path d="M-256 0H768.02v512.01H-256z" fill="#006"/><path d="M-256 0v57.244l909.535 454.768H768.02V454.77L-141.515 0H-256zM768.02 0v57.243L-141.515 512.01H-256v-57.243L653.535 0H768.02z" fill="#fff"/><path d="M170.675 0v512.01h170.67V0h-170.67zM-256 170.67v170.67H768.02V170.67H-256z" fill="#fff"/><path d="M-256 204.804v102.402H768.02V204.804H-256zM204.81 0v512.01h102.4V0h-102.4zM-256 512.01L85.34 341.34h76.324l-341.34 170.67H-256zM-256 0L85.34 170.67H9.016L-256 38.164V0zm606.356 170.67L691.696 0h76.324L426.68 170.67h-76.324zM768.02 512.01L426.68 341.34h76.324L768.02 473.848v38.162z" fill="#c00"/></g></g><path d="M64 0h16v12H64z" fill="#c60b1e"/><path d="M64 3h16v6H64z" fill="#ffc400"/><path d="M96.002.002h7.205V12h-7.205z" fill="#090" stroke="url(#d)" stroke-width=".003"/><path d="M102.192 0H112v12h-9.808z" fill="red" fill-rule="evenodd"/><path d="M104.877 6.115c0 1.492-1.21 2.702-2.706 2.702-1.49 0-2.71-1.206-2.71-2.698 0-1.493 1.21-2.704 2.705-2.707 1.495 0 2.71 1.202 2.715 2.693v.01zm.635 0c0 1.84-1.495 3.336-3.34 3.336-1.846 0-3.346-1.49-3.347-3.33-.004-1.842 1.49-3.338 3.336-3.34 1.85-.01 3.35 1.483 3.355 3.324v.01z" fill="#efef00" fill-rule="evenodd"/><g fill="#f6f6fb" fill-rule="evenodd" stroke-width="1pt"><g transform="translate(102.292 21.173) scale(.0024)"><path d="M-850.89-7147h1590.9v1171.1h-1590.9z"/><ellipse cx="2861.4" cy="4267.3" transform="matrix(1.0746 0 0 1.0635 -3130.4 -10547)" rx="740.21" ry="696.02"/></g><g transform="translate(87.855 12.808) scale(.0024)"><path d="M5478.8-3340.7h859.09v632.38H5478.8z"/><ellipse cx="2861.4" cy="4267.3" transform="matrix(.5803 0 0 .5743 4247.9 -5088.5)" rx="740.21" ry="696.02"/></g></g><g fill="red" fill-rule="evenodd" stroke-width="1pt"><g transform="translate(102.286 20.553) scale(.0023)"><path d="M-850.89-7147h1590.9v1171.1h-1590.9z"/><ellipse cx="2861.4" cy="4267.3" transform="matrix(1.0746 0 0 1.0635 -3130.4 -10547)" rx="740.21" ry="696.02"/></g><g transform="translate(88.57 12.606) scale(.0023)"><path d="M5478.8-3340.7h859.09v632.38H5478.8z"/><ellipse cx="2861.4" cy="4267.3" transform="matrix(.5803 0 0 .5743 4247.9 -5088.5)" rx="740.21" ry="696.02"/></g></g><g fill="#400" fill-rule="evenodd" stroke-width="1pt"><g transform="translate(102.237 14.966) scale(.0014)"><path d="M-850.89-7147h1590.9v1171.1h-1590.9z"/><ellipse cx="2861.4" cy="4267.3" transform="matrix(1.0746 0 0 1.0635 -3130.4 -10547)" rx="740.21" ry="696.02"/></g><g transform="translate(94.05 10.222) scale(.0014)"><path d="M5478.8-3340.7h859.09v632.38H5478.8z"/><ellipse cx="2861.4" cy="4267.3" transform="matrix(.5803 0 0 .5743 4247.9 -5088.5)" rx="740.21" ry="696.02"/></g></g><g fill="#fff" fill-rule="evenodd" stroke-width="1pt"><g transform="translate(102.225 13.725) scale(.0012)"><path d="M-850.89-7147h1590.9v1171.1h-1590.9z"/><ellipse cx="2861.4" cy="4267.3" transform="matrix(1.0746 0 0 1.0635 -3130.4 -10547)" rx="740.21" ry="696.02"/></g><g transform="translate(94.837 9.445) scale(.0012)"><path d="M5478.8-3340.7h859.09v632.38H5478.8z"/><ellipse cx="2861.4" cy="4267.3" transform="matrix(.5803 0 0 .5743 4247.9 -5088.5)" rx="740.21" ry="696.02"/></g></g><g fill-rule="evenodd"><path d="M112 0h16v12h-16z" fill="#229e45"/><path d="M120.035 10.898l7.537-4.89-7.582-4.906-7.562 4.917 7.607 4.88z" fill="#f8e509"/><path d="M123.32 6c0 1.758-1.428 3.184-3.19 3.184-1.76 0-3.188-1.426-3.188-3.184 0-1.758 1.428-3.183 3.19-3.183 1.76 0 3.187 1.424 3.187 3.182z" fill="#2b49a3"/><path d="M123.11 7.146c.048-.128.11-.32.144-.495-1.694-1.485-3.582-2.25-5.967-2.09-.086.164-.154.335-.212.52 2.827-.27 4.898.983 6.034 2.068z" fill="#fff"/></g><g transform="matrix(.75 0 0 .75 -335.99 127.753)"><ellipse cx="464" cy="11.536" rx="13.172" ry="8.707" fill="#fff"/><g transform="translate(0 -1020.36)" fill="#484848"><path d="M479.73 1031.433c-.284-.438-7.003-10.744-15.73-10.744-8.725 0-15.446 10.302-15.727 10.74-.364.566-.364 1.292 0 1.86.28.44 7.002 10.744 15.728 10.744 8.73 0 15.45-10.306 15.73-10.745.36-.565.36-1.29 0-1.857zm-6.824 4.67c-2.13 2.05-5.404 4.496-8.905 4.496-5.52 0-10.45-5.91-12.18-8.24 1.73-2.33 6.66-8.237 12.18-8.237 5.526 0 10.456 5.91 12.185 8.238-.664.895-1.798 2.317-3.276 3.74"/><circle cx="464" cy="1032.362" r="5.713"/></g></g><path d="M51.127 168.894q.43 0 .65.702.438 1.32.625 1.32.143 0 .297-.22 3.087-4.946 5.713-8 .68-.792 2.165-.792.353 0 .474.066.12.066.12.165 0 .156-.36.606-4.243 5.1-7.87 10.77-.252.396-1.033.396-.79 0-.934-.065-.373-.164-.88-1.68-.57-1.682-.57-2.11 0-.462.77-.89.472-.264.834-.264z" style="line-height:125%" font-size="40" letter-spacing="0" word-spacing="0" font-family="sans-serif" fill="#29a00a"/><path d="M106.996 24L104 27l4.997 5L104 37l2.996 3 5.002-5 5 5 2.94-3-4.94-5L120 27l-3-3-5.002 5z" fill="#ed1c23" fill-rule="evenodd"/><path fill="#e30a17" d="M128 0h16v12h-16z"/><path d="M133.666 3.334A2.667 2.667 0 0 0 131 6a2.667 2.667 0 0 0 2.666 2.666 2.667 2.667 0 0 0 2.248-1.236 2.133 2.133 0 0 1-1.58.703A2.133 2.133 0 0 1 132.2 6a2.133 2.133 0 0 1 2.134-2.133 2.133 2.133 0 0 1 1.59.715 2.667 2.667 0 0 0-2.258-1.248z" fill="#fff"/><path fill="#fff" d="M136.7 4.732v2.536l1.49-2.052-2.412.784 2.412.784"/><path d="M0 64h32l8 12.125L32 88H0z" fill="#009036"/><path d="M48 64h32l8 12.125L80 88H48z" fill="#58ab27"/><path d="M96 64h32l8 12.125L128 88H96z" fill="#b1c800"/><path d="M144 64h32l8 12.125L176 88h-32z" fill="#ffec00"/><path d="M0 96h32l8 12.125L32 120H0z" fill="#fecc00"/><path d="M48 96h32l8 12.125L80 120H48z" fill="#f29400"/><path d="M0 167.992q0-1.622.633-3.108.632-1.486 1.71-2.544 1.076-1.06 2.546-1.708 1.47-.65 3.124-.632 1.624 0 3.094.632 1.47.632 2.564 1.708t1.71 2.544q.618 1.468.618 3.108.016 1.622-.617 3.107-.632 1.484-1.71 2.56-1.076 1.076-2.563 1.707Q9.626 176 8 176q-1.623 0-3.11-.63-1.487-.63-2.547-1.708-1.06-1.076-1.71-2.56-.65-1.487-.632-3.11zm6.615-3.347l.462 4.166q.034.36.29.6.257.24.616.29.41.05.735-.203.325-.256.36-.683l.46-4.166v-.29q-.068-.598-.53-.99-.46-.393-1.076-.325-.616.07-.992.53t-.325 1.076zm.206 7.018q0 .512.38.888.376.378.87.36.497-.015.89-.356.393-.342.376-.888-.017-.546-.376-.888-.343-.34-.89-.34-.547 0-.87.34-.377.376-.377.888z" word-spacing="0" letter-spacing="0" style="line-height:125%;-inkscape-font-specification:notifications" font-family="notifications" fill="#ed1c23"/><g fill="#484848"><path d="M44 130a10 10 0 0 0-10 10h.417a7.5 7.5 0 0 1 7.5-7.5 7.5 7.5 0 0 1 7.5 7.5H54a10 10 0 0 0-10-10z" stroke="#fff" stroke-width="4" stroke-linecap="square"/><path d="M41.688 134.003a6.002 6 0 0 0-4.915 2.994 6.002 6 0 0 0 2.198 8.196 6.002 6 0 0 0 8.2-2.196 6.002 6 0 0 0-1.49-7.708l-2.11 3.65-1.483-.857 2.11-3.653a6.002 6 0 0 0-2.51-.427z" stroke="#fff" stroke-width="4" stroke-linecap="square"/><path d="M44 130a10 10 0 0 0-10 10h.417a7.5 7.5 0 0 1 7.5-7.5 7.5 7.5 0 0 1 7.5 7.5H54a10 10 0 0 0-10-10z"/><path d="M41.688 134.003a6.002 6 0 0 0-4.915 2.994 6.002 6 0 0 0 2.198 8.196 6.002 6 0 0 0 8.2-2.196 6.002 6 0 0 0-1.49-7.708l-2.11 3.65-1.483-.857 2.11-3.653a6.002 6 0 0 0-2.51-.427z"/></g><path d="M96 96h32l8 12.125L128 120H96z" fill="#e2001a"/><path d="M.37 19.55l1.51-.753L6.4 23.32l4.524-4.523 1.508.754-6.032 6.032z" fill="#484848" fill-rule="evenodd"/><path d="M15.992 19.55l1.508-.753 4.524 4.523 4.523-4.523 1.508.754-6.03 6.032z" fill="#fff" fill-rule="evenodd"/><path d="M16 188.643q0 .305-.122.794-.122.488-.244.773-.224.57-1.384 1.22-1.058.57-2.096.57-.325 0-.61-.04-.284-.04-.65-.143-.367-.102-.53-.163l-1.2-.426q-1.1-.407-1.974-.956-1.468-.896-3.014-2.44-1.546-1.548-2.44-3.013-.55-.876-.937-1.975l-.206-.57q-.163-.468-.244-.63-.08-.163-.163-.53l-.142-.65q-.06-.286-.04-.59 0-1.06.59-2.116.63-1.16 1.2-1.385.285-.123.773-.245.488-.123.793-.123.165 0 .246.04.203.062.61.876.122.205.325.61.206.41.41.714.203.306.345.612.04.04.204.284.16.245.243.408.08.162.08.325 0 .222-.324.57-.327.344-.714.61-.386.263-.692.61-.304.345-.324.51 0 .1.06.262l.082.223q.02.06.162.285.142.224.142.204.855 1.565 1.974 2.685 1.12 1.12 2.666 1.974.02 0 .204.12.184.123.286.163l.223.102q.12.06.262.04.203 0 .51-.303.304-.304.61-.71.304-.408.63-.713.326-.307.57-.327.14 0 .304.08.162.083.406.246.244.162.285.203l1.323.753q.386.223.63.345.794.388.855.59.04.082.04.245z" style="line-height:125%;-inkscape-font-specification:homepage" letter-spacing="0" word-spacing="0" font-family="homepage" fill="#00adef"/><g letter-spacing="0" word-spacing="0" font-family="homepage" fill="#00adef"><path d="M26.474 185.303l4.66 4.82h-14.25l4.678-4.766 2.438 2.29 2.474-2.346z" style="line-height:125%;-inkscape-font-specification:homepage"/><path d="M17.138 178.893h13.724L24 185.428l-6.862-6.536zm10.22 5.58l4.642-4.37v9.172l-4.64-4.803zM16 189.275V180.1l4.677 4.39L16 189.274z" style="line-height:125%;-inkscape-font-specification:homepage"/></g><path style="line-height:125%;-inkscape-font-specification:notifications" d="M16 167.992q0-1.622.632-3.108.632-1.485 1.708-2.544 1.075-1.058 2.544-1.707 1.468-.65 3.125-.632 1.62 0 3.106.633 1.486.63 2.544 1.707 1.06 1.076 1.708 2.544.65 1.47.632 3.108 0 1.622-.632 3.107t-1.708 2.56q-1.075 1.076-2.544 1.708-1.468.632-3.107.632-1.64 0-3.126-.632t-2.544-1.707q-1.06-1.075-1.708-2.56-.65-1.486-.632-3.108zm6.796-2.903q0 .494.342.785.34.29.87.29.547 0 .87-.29.326-.29.326-.786 0-.496-.325-.77-.325-.272-.87-.272-.548-.017-.872.273-.325.29-.342.77zm.086 6.863h2.254v-5.105h-2.254v5.105z" font-family="notifications" letter-spacing="0" word-spacing="0" fill="#00adef"/><path d="M144 96h32l8 12.125L176 120h-32z" fill="url(#e)"/><path d="M48 188.643q0 .305-.122.794-.122.488-.244.773-.224.57-1.384 1.22-1.058.57-2.096.57-.325 0-.61-.04-.284-.04-.65-.143-.367-.102-.53-.163l-1.2-.426q-1.1-.407-1.974-.956-1.468-.896-3.014-2.44-1.546-1.548-2.44-3.013-.55-.876-.937-1.975l-.206-.57q-.163-.468-.244-.63-.08-.163-.163-.53l-.142-.65q-.06-.286-.04-.59 0-1.06.59-2.116.63-1.16 1.2-1.385.285-.123.773-.245.488-.123.793-.123.165 0 .246.04.203.062.61.876.122.205.325.61.206.41.41.714.203.306.345.612.04.04.204.284.16.245.243.408.08.162.08.325 0 .222-.324.57-.327.344-.714.61-.386.263-.692.61-.304.345-.324.51 0 .1.06.262l.082.223q.02.06.162.285.142.224.142.204.855 1.565 1.974 2.685 1.12 1.12 2.666 1.974.02 0 .204.12.184.123.286.163l.223.102q.12.06.262.04.203 0 .51-.303.304-.304.61-.71.304-.408.63-.713.326-.307.57-.327.14 0 .304.08.162.083.406.246.244.162.285.203l1.323.753q.386.223.63.345.794.388.855.59.04.082.04.245z" style="line-height:125%;-inkscape-font-specification:homepage" letter-spacing="0" word-spacing="0" font-family="homepage" fill="#484848"/><g letter-spacing="0" word-spacing="0" font-family="homepage" fill="#484848"><path d="M58.474 185.798l4.66 4.82h-14.25l4.678-4.766 2.438 2.29 2.474-2.346z" style="line-height:125%;-inkscape-font-specification:homepage"/><path d="M49.138 179.388h13.724L56 185.923l-6.862-6.536zm10.22 5.58l4.642-4.37v9.172l-4.64-4.803zM48 189.77v-9.174l4.677 4.388L48 189.77z" style="line-height:125%;-inkscape-font-specification:homepage"/></g><g><path d="M3.06 212.834h4.41v-7.323H3.06zM7.802 201.85c0 1.38-1.118 2.497-2.496 2.497-1.38 0-2.497-1.118-2.497-2.497 0-1.378 1.117-2.496 2.496-2.496 1.378 0 2.496 1.118 2.496 2.496" fill="#040606"/><path d="M15.523 193.6c3.066 0 5.622.83 7.39 2.402 2 1.776 3.013 4.468 3.013 8 0 7-3.403 10.404-10.403 10.404H1.593V193.6h13.93zm.3-1.595H0V216h15.822v-.007c3.456-.048 6.194-.906 8.137-2.56 2.362-2.01 3.56-5.184 3.56-9.433 0-2.032-.315-3.854-.937-5.416-.594-1.495-1.473-2.765-2.61-3.777-2.006-1.78-4.82-2.745-8.15-2.8V192" fill="#040606"/><path d="M15.087 212.842H9.494V195.54h5.593-.225c4.664 0 9.63 1.84 9.63 8.673 0 7.224-4.966 8.63-9.63 8.63h.225" fill="#cd0c6f"/><path d="M9.37 200.71v2.753h.628c.235 0 .405-.013.51-.04.136-.033.25-.09.34-.172.09-.08.163-.214.22-.4.057-.186.085-.44.085-.76 0-.322-.028-.57-.085-.74-.057-.173-.137-.307-.24-.404-.102-.096-.23-.16-.39-.195-.117-.025-.347-.04-.69-.04zm-.84-.704h1.535c.347 0 .61.026.792.08.245.07.454.2.628.383.174.182.306.407.397.673.09.266.136.594.136.984 0 .343-.042.638-.127.886-.103.303-.252.548-.445.736-.146.14-.342.252-.59.33-.186.06-.434.09-.744.09H8.53v-4.164" fill="#fff"/><path d="M10.065 200.12c.334 0 .59.025.76.075.224.065.418.184.577.352.162.17.287.384.373.633.086.253.13.572.13.947 0 .33-.04.614-.122.85-.098.284-.238.516-.417.69-.133.13-.316.232-.546.306-.173.055-.412.082-.71.082H8.644v-3.935h1.422zm-1.65-.228v4.39h1.696c.32 0 .583-.03.78-.093.263-.085.477-.206.635-.36.204-.2.364-.46.473-.78.09-.26.134-.57.134-.923 0-.4-.048-.744-.142-1.02-.096-.28-.238-.522-.423-.717-.187-.197-.415-.337-.677-.414-.195-.057-.464-.084-.825-.084h-1.65" fill="#fff"/><path d="M9.748 200.825c.415 0 .59.02.666.037.137.03.25.086.337.167.09.082.16.202.21.355.053.16.08.396.08.704 0 .307-.028.552-.08.726-.05.165-.115.283-.19.35-.074.068-.173.118-.29.147-.095.024-.257.036-.482.036h-.515v-2.525h.265zm-.493-.227v2.98h.743c.247 0 .423-.015.537-.044.154-.038.285-.105.39-.198.105-.097.188-.245.252-.453.06-.198.09-.458.09-.794 0-.337-.03-.59-.09-.776-.064-.19-.154-.34-.27-.45-.117-.11-.267-.186-.444-.224-.126-.028-.36-.042-.715-.042h-.493M12.968 204.17v-4.164h3.083v.705H13.81v.923h2.086v.706h-2.086v1.123h2.322v.706h-3.162" fill="#fff"/><path d="M15.937 200.12v.478h-2.243v1.15h2.086v.477h-2.086v1.352h2.322v.478h-2.934v-3.935h2.855zm-3.082-.228v4.39h3.39v-.933H13.92v-.897h2.086v-.933h-2.086v-.695h2.242v-.933h-3.31M19.284 202.52l-.574-1.544-.563 1.543zm1.548 1.65h-.915l-.363-.946H17.89l-.344.945h-.892l1.618-4.164h.894l1.666 4.163" fill="#fff"/><path d="M19.09 200.12l1.573 3.935h-.668l-.363-.945h-1.82l-.346.945h-.646l1.53-3.935h.74zm-.896-.228l-1.707 4.39h1.138s.3-.817.345-.944h1.505l.364.945H21l-1.756-4.39h-1.05" fill="#fff"/><path d="M18.71 201.305l.41 1.1h-.81c.072-.197.28-.764.4-1.1zm-.725 1.327h1.463l-.74-1.985-.723 1.985M21.534 204.17v-4.13h.84v3.423h2.09v.706h-2.93" fill="#fff"/><path d="M22.26 200.154v3.423h2.09v.478h-2.703v-3.9h.612zm-.84-.228v4.357h3.16v-.934h-2.093v-3.424H21.42" fill="#fff"/></g><g fill-rule="evenodd"><path d="M40.643 197.648h6.77c3.635 0 5.003 1.84 4.792 4.548-.35 4.463-3.047 6.93-6.626 6.93H43.77c-.49 0-.82.325-.955 1.206l-.775 5.117c-.05.33-.225.526-.488.55H37.31c-.4 0-.542-.306-.438-.967l2.593-16.414c.104-.658.463-.972 1.178-.972z" fill="#009ee0"/><path d="M36.41 192h6.778c1.908 0 4.172.062 5.686 1.397 1.012.893 1.543 2.314 1.42 3.84-.416 5.175-3.51 8.073-7.66 8.073H39.29c-.568 0-.945.377-1.106 1.398l-.933 5.932c-.06.385-.226.612-.53.64h-4.175c-.463 0-.628-.355-.507-1.122l3.006-19.032c.12-.763.538-1.126 1.367-1.126z" fill="#003d86"/><path d="M38.28 206.11l1.185-7.49c.104-.658.463-.972 1.178-.972h6.77c1.12 0 2.026.175 2.736.498-.68 4.605-3.66 7.164-7.56 7.164h-3.343c-.44 0-.768.225-.966.8z" fill="#003172"/></g><g><path d="M66 197h20v12H66z"/><path fill="#fff" d="M67 198h18v10H67z"/><path d="M64 199h20v12H64z"/><path fill="#fff" d="M65 200h18v10H65z"/><text y="203.924" x="118.803" style="line-height:125%" font-size="28.946" font-family="sans-serif" letter-spacing="0" word-spacing="0" transform="translate(-48 5)"><tspan style="-inkscape-font-specification:'Lato Bold'" y="203.924" x="118.803" font-weight="bold" font-size="10.855" font-family="Lato">€</tspan></text></g><g style="line-height:125%" font-size="40" font-family="sans-serif" letter-spacing="0" word-spacing="0" fill="#484848"><path d="M71.27 146.534c0 .393-.143.732-.428 1.017-.285.286-.625.436-1.018.45-.394.013-.733-.137-1.018-.45-.285-.31-.434-.65-.448-1.016-.013-.367.136-.706.448-1.018.312-.312.65-.455 1.018-.428.366.028.705.17 1.018.428.312.258.454.597.427 1.018zm10.177 0c0 .393-.143.732-.428 1.017-.286.286-.625.436-1.02.45-.392.013-.738-.137-1.037-.45-.298-.31-.44-.65-.427-1.016.013-.367.156-.706.427-1.018.272-.312.618-.455 1.038-.428.422.028.76.17 1.02.428.257.258.4.597.427 1.018zm1.465-12.356V140c0 .176-.068.332-.203.468-.137.136-.286.217-.45.244l-11.866 1.384c.095.462.142.74.142.835 0 .096-.088.326-.264.693h10.442c.203 0 .38.074.53.224.148.15.216.32.203.51-.014.19-.082.358-.204.507-.122.15-.3.224-.53.224H69.092c-.19 0-.36-.074-.508-.224-.15-.15-.224-.318-.224-.508.016-.342.427-1.037.692-1.547l-1.994-9.365h-2.32c-.464.008-.735-.09-.734-.712 0-.735.34-.735.733-.733h2.91c.123 0 .232.02.327.06.204.095.29.253.366.47.104.308.146.61.203.915h13.64c.19 0 .36.075.508.224.15.15.224.318.224.508z" style="-inkscape-font-specification:rv-icons-v3" font-size="30" font-family="rv-icons-v3"/></g><path d="M10 39H4l2-2-1-2-5 5 5 5 1-2-2-2h6z" fill="#484848" fill-rule="evenodd"/></svg>