<?xml version="1.0" standalone="no"?>
<!DOCTYPE svg PUBLIC "-//W3C//DTD SVG 20010904//EN"
 "http://www.w3.org/TR/2001/REC-SVG-20010904/DTD/svg10.dtd">
<svg version="1.0" xmlns="http://www.w3.org/2000/svg"
 width="700.000000pt" height="700.000000pt" viewBox="0 0 700.000000 700.000000"
 preserveAspectRatio="xMidYMid meet">
<metadata>
Created by potrace 1.11, written by Peter Selinger 2001-2013
</metadata>
<g transform="translate(0.000000,700.000000) scale(0.100000,-0.100000)"
fill="#000000" stroke="none">
<path d="M0 3500 l0 -3500 3500 0 3500 0 0 3500 0 3500 -3500 0 -3500 0 0
-3500z m4700 2607 c507 -109 898 -477 1087 -1022 77 -223 112 -505 93 -745
-41 -510 -260 -948 -618 -1233 -180 -144 -429 -248 -649 -272 l-61 -7 151
-206 c83 -114 290 -394 460 -622 171 -228 358 -480 416 -560 119 -165 371
-544 371 -560 0 -7 -195 -10 -597 -9 l-598 0 -101 132 c-407 531 -806 1097
-1138 1616 l-136 212 0 370 0 369 523 0 c565 0 601 3 711 55 214 101 379 341
446 650 53 243 6 465 -138 656 -96 127 -238 233 -389 290 l-88 34 -532 3 -533
3 0 435 0 435 623 -4 c525 -3 634 -6 697 -20z m-1720 -2607 l0 -2620 -965 0
-965 0 0 2620 0 2620 965 0 965 0 0 -2620z"/>
</g>
</svg>
