<?xml version="1.0" encoding="UTF-8" standalone="no"?>
<svg
   xmlns:dc="http://purl.org/dc/elements/1.1/"
   xmlns:cc="http://creativecommons.org/ns#"
   xmlns:rdf="http://www.w3.org/1999/02/22-rdf-syntax-ns#"
   xmlns:svg="http://www.w3.org/2000/svg"
   xmlns="http://www.w3.org/2000/svg"
   xmlns:xlink="http://www.w3.org/1999/xlink"
   xmlns:sodipodi="http://sodipodi.sourceforge.net/DTD/sodipodi-0.dtd"
   xmlns:inkscape="http://www.inkscape.org/namespaces/inkscape"
   viewBox="0 0 240 240"
   version="1.1"
   id="svg338"
   sodipodi:docname="sprite-static.svg"
   inkscape:version="0.92.2 (5c3e80d, 2017-08-06)">
  <metadata
     id="metadata342">
    <rdf:RDF>
      <cc:Work
         rdf:about="">
        <dc:format>image/svg+xml</dc:format>
        <dc:type
           rdf:resource="http://purl.org/dc/dcmitype/StillImage" />
      </cc:Work>
    </rdf:RDF>
  </metadata>
  <sodipodi:namedview
     pagecolor="#ffffff"
     bordercolor="#666666"
     borderopacity="1"
     objecttolerance="10"
     gridtolerance="10"
     guidetolerance="10"
     inkscape:pageopacity="0"
     inkscape:pageshadow="2"
     inkscape:window-width="1920"
     inkscape:window-height="1017"
     id="namedview340"
     showgrid="true"
     inkscape:zoom="5.5625733"
     inkscape:cx="51.312709"
     inkscape:cy="68.937666"
     inkscape:window-x="-8"
     inkscape:window-y="-8"
     inkscape:window-maximized="1"
     inkscape:current-layer="svg338">
    <inkscape:grid
       type="xygrid"
       id="grid4838" />
  </sodipodi:namedview>
  <defs
     id="defs32">
    <linearGradient
       id="a">
      <stop
         offset="0"
         stop-color="#009036"
         id="stop2" />
      <stop
         offset=".167"
         stop-color="#58ab27"
         id="stop4" />
      <stop
         offset=".333"
         stop-color="#b1c800"
         id="stop6" />
      <stop
         offset=".5"
         stop-color="#ffec00"
         id="stop8" />
      <stop
         offset=".667"
         stop-color="#fecc00"
         id="stop10" />
      <stop
         offset=".833"
         stop-color="#f29400"
         id="stop12" />
      <stop
         offset="1"
         stop-color="#e2001a"
         id="stop14" />
    </linearGradient>
    <linearGradient
       id="d"
       x1="359.59"
       x2="4203.4"
       y1="-5035.4"
       y2="-5035.4"
       gradientUnits="userSpaceOnUse"
       gradientTransform="matrix(.002 0 0 .0033 93.405 16.768)">
      <stop
         offset="0"
         id="stop17" />
      <stop
         stop-color="#fff"
         offset="1"
         id="stop19" />
    </linearGradient>
    <clipPath
       id="c">
      <path
         fill-opacity=".67"
         d="M-85.333 0h682.67v512h-682.67z"
         id="path22" />
    </clipPath>
    <linearGradient
       id="e"
       x1="144"
       x2="180"
       y1="92.146"
       y2="92.146"
       xlink:href="#a"
       gradientUnits="userSpaceOnUse"
       gradientTransform="translate(0 16)" />
    <linearGradient
       id="f"
       x1="1322.585"
       x2="1322.585"
       y1="147.526"
       y2="89.126"
       xlink:href="#b"
       gradientUnits="userSpaceOnUse"
       gradientTransform="matrix(.0406 0 0 .0406 181.677 200.22)" />
    <linearGradient
       id="b">
      <stop
         offset="0"
         stop-color="#d20037"
         id="stop27" />
      <stop
         offset="1"
         stop-color="#7e1629"
         id="stop29" />
    </linearGradient>
  </defs>
  <path
     fill="none"
     d="M64 192h32v24H64z"
     id="path34" />
  <path
     fill="#484848"
     fill-rule="evenodd"
     d="M147 40l8-8 1 1-7 7 7 7-1 1zm58 0l-8-8-1 1 7 7-7 7 1 1z"
     id="path36" />
  <path
     fill="#29a00a"
     d="M47.588 162.193c-4.867 2.983-8.4 6.748-9.986 8.638l-3.886-3.044L32 169.17l6.715 6.83c1.155-2.96 4.815-8.747 9.285-12.858l-.412-.95z"
     id="path38" />
  <path
     fill="#fff"
     fill-rule="evenodd"
     d="M74.996 24L72 27l4.997 5L72 37l2.996 3 5.002-5 5 5 2.94-3-4.94-5L88 27l-3-3-5.002 5z"
     id="path40" />
  <path
     fill="silver"
     fill-rule="evenodd"
     d="M37 20l1-1 5 5-5 5-1-1 4-4z"
     id="path42" />
  <path
     fill="#ed1c23"
     fill-rule="evenodd"
     d="M49.667 26L48 24.33 51.333 21 48 17.67 49.667 16 53 19.33 56.333 16 58 17.67 54.667 21 58 24.33 56.333 26 53 22.67z"
     id="path44" />
  <g
     fill-rule="evenodd"
     stroke-width="1pt"
     transform="scale(.0313 .0234)"
     id="g52">
    <rect
       width="512"
       height="509.76"
       fill="#fff"
       ry="0"
       rx="0"
       id="rect46" />
    <rect
       width="512"
       height="169.92"
       y="342.08"
       fill="#21468b"
       ry="0"
       rx="0"
       id="rect48" />
    <path
       fill="#ae1c28"
       d="M0 0h512v169.92H0z"
       id="path50" />
  </g>
  <g
     fill-rule="evenodd"
     stroke-width="1pt"
     id="g60">
    <path
       d="M16 12h5.333V0H16z"
       id="path54" />
    <path
       fill="#ffd90c"
       d="M21.333 12h5.334V0h-5.334z"
       id="path56" />
    <path
       fill="#f31830"
       d="M26.667 12H32V0h-5.333z"
       id="path58" />
  </g>
  <g
     fill-rule="evenodd"
     stroke-width="1pt"
     id="g68">
    <path
       fill="#ffe600"
       d="M32 8h16v4H32z"
       id="path62" />
    <path
       d="M32 0h16v4H32z"
       id="path64" />
    <path
       fill="red"
       d="M32 4h16v4H32z"
       id="path66" />
  </g>
  <g
     fill-rule="evenodd"
     stroke-width="1pt"
     id="g76">
    <path
       fill="#fff"
       d="M48 12h16V0H48z"
       id="path70" />
    <path
       fill="#00267f"
       d="M48 12h5.333V0H48z"
       id="path72" />
    <path
       fill="#f31830"
       d="M58.667 12H64V0h-5.333z"
       id="path74" />
  </g>
  <g
     transform="translate(82 -.02) scale(.0234)"
     clip-path="url(#c)"
     id="g88">
    <g
       stroke-width="1pt"
       id="g86">
      <path
         fill="#006"
         d="M-256 0H768.02v512.01H-256z"
         id="path78" />
      <path
         fill="#fff"
         d="M-256 0v57.244l909.535 454.768H768.02V454.77L-141.515 0H-256zM768.02 0v57.243L-141.515 512.01H-256v-57.243L653.535 0H768.02z"
         id="path80" />
      <path
         fill="#fff"
         d="M170.675 0v512.01h170.67V0h-170.67zM-256 170.67v170.67H768.02V170.67H-256z"
         id="path82" />
      <path
         fill="#c00"
         d="M-256 204.804v102.402H768.02V204.804H-256zM204.81 0v512.01h102.4V0h-102.4zM-256 512.01L85.34 341.34h76.324l-341.34 170.67H-256zM-256 0L85.34 170.67H9.016L-256 38.164V0zm606.356 170.67L691.696 0h76.324L426.68 170.67h-76.324zM768.02 512.01L426.68 341.34h76.324L768.02 473.848v38.162z"
         id="path84" />
    </g>
  </g>
  <path
     fill="#c60b1e"
     d="M64 0h16v12H64z"
     id="path90" />
  <path
     fill="#ffc400"
     d="M64 3h16v6H64z"
     id="path92" />
  <path
     fill="#090"
     stroke="url(#d)"
     stroke-width=".003"
     d="M96.002.002h7.205V12h-7.205z"
     id="path94" />
  <path
     fill="red"
     fill-rule="evenodd"
     d="M102.192 0H112v12h-9.808z"
     id="path96" />
  <path
     fill="#efef00"
     fill-rule="evenodd"
     d="M104.877 6.115c0 1.492-1.21 2.702-2.706 2.702-1.49 0-2.71-1.206-2.71-2.698 0-1.494 1.21-2.705 2.706-2.708 1.495 0 2.71 1.202 2.715 2.693v.01zm.635 0c0 1.84-1.495 3.336-3.34 3.336-1.846 0-3.346-1.49-3.347-3.33-.004-1.84 1.49-3.337 3.336-3.34 1.85-.01 3.35 1.484 3.356 3.325v.01z"
     id="path98" />
  <g
     fill="#f6f6fb"
     fill-rule="evenodd"
     stroke-width="1pt"
     id="g112">
    <g
       transform="translate(102.292 21.173) scale(.0024)"
       id="g104">
      <path
         d="M-850.89-7147h1590.9v1171.1h-1590.9z"
         id="path100" />
      <ellipse
         cx="2861.4"
         cy="4267.3"
         ry="696.02"
         rx="740.21"
         transform="matrix(1.0746 0 0 1.0635 -3130.4 -10547)"
         id="ellipse102" />
    </g>
    <g
       transform="translate(87.855 12.808) scale(.0024)"
       id="g110">
      <path
         d="M5478.8-3340.7h859.09v632.38H5478.8z"
         id="path106" />
      <ellipse
         cx="2861.4"
         cy="4267.3"
         ry="696.02"
         rx="740.21"
         transform="matrix(.5803 0 0 .5743 4247.9 -5088.5)"
         id="ellipse108" />
    </g>
  </g>
  <g
     fill="red"
     fill-rule="evenodd"
     stroke-width="1pt"
     id="g126">
    <g
       transform="translate(102.286 20.553) scale(.0023)"
       id="g118">
      <path
         d="M-850.89-7147h1590.9v1171.1h-1590.9z"
         id="path114" />
      <ellipse
         cx="2861.4"
         cy="4267.3"
         ry="696.02"
         rx="740.21"
         transform="matrix(1.0746 0 0 1.0635 -3130.4 -10547)"
         id="ellipse116" />
    </g>
    <g
       transform="translate(88.57 12.606) scale(.0023)"
       id="g124">
      <path
         d="M5478.8-3340.7h859.09v632.38H5478.8z"
         id="path120" />
      <ellipse
         cx="2861.4"
         cy="4267.3"
         ry="696.02"
         rx="740.21"
         transform="matrix(.5803 0 0 .5743 4247.9 -5088.5)"
         id="ellipse122" />
    </g>
  </g>
  <g
     fill="#400"
     fill-rule="evenodd"
     stroke-width="1pt"
     id="g140">
    <g
       transform="translate(102.237 14.966) scale(.0014)"
       id="g132">
      <path
         d="M-850.89-7147h1590.9v1171.1h-1590.9z"
         id="path128" />
      <ellipse
         cx="2861.4"
         cy="4267.3"
         ry="696.02"
         rx="740.21"
         transform="matrix(1.0746 0 0 1.0635 -3130.4 -10547)"
         id="ellipse130" />
    </g>
    <g
       transform="translate(94.05 10.222) scale(.0014)"
       id="g138">
      <path
         d="M5478.8-3340.7h859.09v632.38H5478.8z"
         id="path134" />
      <ellipse
         cx="2861.4"
         cy="4267.3"
         ry="696.02"
         rx="740.21"
         transform="matrix(.5803 0 0 .5743 4247.9 -5088.5)"
         id="ellipse136" />
    </g>
  </g>
  <g
     fill="#fff"
     fill-rule="evenodd"
     stroke-width="1pt"
     id="g154">
    <g
       transform="translate(102.225 13.725) scale(.0012)"
       id="g146">
      <path
         d="M-850.89-7147h1590.9v1171.1h-1590.9z"
         id="path142" />
      <ellipse
         cx="2861.4"
         cy="4267.3"
         ry="696.02"
         rx="740.21"
         transform="matrix(1.0746 0 0 1.0635 -3130.4 -10547)"
         id="ellipse144" />
    </g>
    <g
       transform="translate(94.837 9.445) scale(.0012)"
       id="g152">
      <path
         d="M5478.8-3340.7h859.09v632.38H5478.8z"
         id="path148" />
      <ellipse
         cx="2861.4"
         cy="4267.3"
         ry="696.02"
         rx="740.21"
         transform="matrix(.5803 0 0 .5743 4247.9 -5088.5)"
         id="ellipse150" />
    </g>
  </g>
  <g
     fill-rule="evenodd"
     id="g164">
    <path
       fill="#229e45"
       d="M112 0h16v12h-16z"
       id="path156" />
    <path
       fill="#f8e509"
       d="M120.035 10.898l7.537-4.89-7.582-4.906-7.562 4.917 7.607 4.88z"
       id="path158" />
    <path
       fill="#2b49a3"
       d="M123.32 6c0 1.758-1.428 3.184-3.19 3.184-1.76 0-3.188-1.426-3.188-3.184 0-1.758 1.428-3.183 3.19-3.183 1.76 0 3.187 1.424 3.187 3.182z"
       id="path160" />
    <path
       fill="#fff"
       d="M123.11 7.146c.048-.128.11-.32.144-.495-1.694-1.484-3.582-2.25-5.967-2.09-.086.165-.154.336-.212.52 2.827-.27 4.898.984 6.034 2.07z"
       id="path162" />
  </g>
  <g
     transform="matrix(.75 0 0 .75 -335.99 127.75)"
     id="g174">
    <ellipse
       cx="464"
       cy="11.536"
       fill="#fff"
       rx="13.172"
       ry="8.707"
       id="ellipse166" />
    <g
       fill="#484848"
       transform="translate(0 -1020.36)"
       id="g172">
      <path
         d="M479.73 1031.433c-.284-.438-7.003-10.744-15.73-10.744-8.725 0-15.446 10.3-15.727 10.74-.364.565-.364 1.29 0 1.86.28.44 7.002 10.743 15.728 10.743 8.73 0 15.45-10.306 15.73-10.745.36-.565.36-1.29 0-1.857zm-6.824 4.67c-2.13 2.05-5.404 4.496-8.905 4.496-5.52 0-10.45-5.91-12.18-8.24 1.73-2.33 6.66-8.238 12.18-8.238 5.527 0 10.457 5.91 12.186 8.238-.664.895-1.798 2.317-3.276 3.74"
         id="path168" />
      <circle
         cx="464"
         cy="1032.362"
         r="5.713"
         id="circle170" />
    </g>
  </g>
  <path
     fill="#29a00a"
     d="M51.127 168.894q.43 0 .65.702.438 1.32.625 1.32.143 0 .297-.22 3.086-4.946 5.712-8 .68-.792 2.165-.792.353 0 .474.066.12.066.12.165 0 .156-.36.606-4.242 5.1-7.87 10.77-.25.397-1.032.397-.79 0-.934-.065-.373-.164-.88-1.68-.57-1.682-.57-2.11 0-.462.77-.89.472-.264.834-.264z"
     style="line-height:125%"
     font-size="40"
     letter-spacing="0"
     word-spacing="0"
     font-family="sans-serif"
     id="path176" />
  <path
     fill="#ed1c23"
     fill-rule="evenodd"
     d="M106.996 24L104 27l4.997 5L104 37l2.996 3 5.002-5 5 5 2.94-3-4.94-5L120 27l-3-3-5.002 5z"
     id="path178" />
  <path
     fill="#e30a17"
     d="M128 0h16v12h-16z"
     id="path180" />
  <path
     fill="#fff"
     d="M133.666 3.334A2.667 2.667 0 0 0 131 6a2.667 2.667 0 0 0 2.666 2.666 2.667 2.667 0 0 0 2.248-1.236 2.133 2.133 0 0 1-1.58.703A2.133 2.133 0 0 1 132.2 6a2.133 2.133 0 0 1 2.134-2.133 2.133 2.133 0 0 1 1.59.715 2.667 2.667 0 0 0-2.258-1.248z"
     id="path182" />
  <path
     fill="#fff"
     d="M136.7 4.732v2.536l1.49-2.052-2.412.784 2.412.784"
     id="path184" />
  <path
     fill="#009036"
     d="M0 64h32l8 12.125L32 88H0z"
     id="path186" />
  <path
     fill="#58ab27"
     d="M48 64h32l8 12.125L80 88H48z"
     id="path188" />
  <path
     fill="#b1c800"
     d="M96 64h32l8 12.125L128 88H96z"
     id="path190" />
  <path
     fill="#ffec00"
     d="M144 64h32l8 12.125L176 88h-32z"
     id="path192" />
  <path
     fill="#fecc00"
     d="M0 96h32l8 12.125L32 120H0z"
     id="path194" />
  <path
     fill="#f29400"
     d="M48 96h32l8 12.125L80 120H48z"
     id="path196" />
  <path
     fill="#ed1c23"
     d="M0 167.992q0-1.622.633-3.108.632-1.486 1.71-2.544 1.076-1.06 2.546-1.708 1.47-.65 3.123-.632 1.624 0 3.094.632 1.47.632 2.564 1.708t1.71 2.544q.62 1.468.62 3.108.015 1.622-.618 3.107-.632 1.483-1.71 2.56-1.076 1.075-2.563 1.706Q9.625 176 8 176q-1.623 0-3.11-.63-1.487-.63-2.547-1.708-1.06-1.076-1.71-2.56-.65-1.487-.632-3.11zm6.615-3.347l.462 4.166q.034.36.29.6.257.24.616.29.41.05.735-.202.325-.256.36-.683l.46-4.166v-.29q-.068-.6-.53-.99-.46-.394-1.076-.326-.616.07-.992.53t-.325 1.076zm.206 7.018q0 .512.38.888.377.38.87.36.498-.014.89-.355.394-.342.377-.888-.017-.546-.376-.888-.342-.34-.89-.34-.546 0-.87.34-.376.375-.376.887z"
     word-spacing="0"
     letter-spacing="0"
     style="line-height:125%;-inkscape-font-specification:notifications"
     font-family="notifications"
     id="path198" />
  <path
     fill="#e2001a"
     d="M96 96h32l8 12.125L128 120H96z"
     id="path200" />
  <path
     fill="#484848"
     fill-rule="evenodd"
     d="M.37 19.55l1.51-.753L6.4 23.32l4.524-4.523 1.508.754L6.4 25.584z"
     id="path202" />
  <path
     fill="#fff"
     fill-rule="evenodd"
     d="M15.992 19.55l1.508-.753 4.524 4.523 4.523-4.523 1.508.754-6.03 6.033z"
     id="path204" />
  <path
     fill="#00adef"
     d="M16 188.643q0 .305-.122.794-.122.488-.244.773-.224.57-1.384 1.22-1.058.57-2.096.57-.325 0-.61-.04-.284-.04-.65-.143-.367-.102-.53-.163l-1.2-.426q-1.1-.407-1.974-.956-1.468-.896-3.014-2.44-1.546-1.548-2.44-3.013-.55-.877-.937-1.976l-.207-.57q-.163-.468-.244-.63-.08-.163-.164-.53l-.142-.65q-.06-.286-.04-.59 0-1.06.59-2.116.63-1.16 1.2-1.385.285-.123.773-.245.488-.123.793-.123.165 0 .246.04.203.062.61.876.122.206.325.61.207.41.41.715.204.306.346.612.04.04.204.284.16.246.243.41.08.16.08.324 0 .222-.324.57-.328.344-.715.61-.386.263-.692.61-.304.345-.324.51 0 .1.06.262l.08.223q.02.06.163.284.142.224.142.204.855 1.565 1.974 2.685 1.12 1.12 2.665 1.974.02 0 .204.12.183.123.285.163l.223.102q.12.06.262.04.203 0 .51-.303.304-.305.61-.71.304-.41.63-.714.326-.307.57-.327.14 0 .304.08.162.082.406.245.244.162.285.203l1.323.753q.386.224.63.346.794.388.855.59.04.082.04.245z"
     style="line-height:125%;-inkscape-font-specification:homepage"
     letter-spacing="0"
     word-spacing="0"
     font-family="homepage"
     id="path206" />
  <g
     fill="#00adef"
     letter-spacing="0"
     word-spacing="0"
     font-family="homepage"
     id="g212">
    <path
       d="M26.474 185.303l4.66 4.82h-14.25l4.678-4.766 2.438 2.29 2.474-2.346z"
       style="line-height:125%;-inkscape-font-specification:homepage"
       id="path208" />
    <path
       d="M17.138 178.893h13.724L24 185.428l-6.862-6.536zm10.22 5.58l4.642-4.37v9.172l-4.64-4.803zM16 189.275V180.1l4.677 4.39L16 189.274z"
       style="line-height:125%;-inkscape-font-specification:homepage"
       id="path210" />
  </g>
  <path
     fill="#00adef"
     d="M16 167.992q0-1.622.632-3.108.632-1.485 1.708-2.544 1.075-1.058 2.544-1.707 1.468-.65 3.125-.632 1.62 0 3.105.634 1.486.63 2.544 1.707 1.06 1.077 1.707 2.545.65 1.47.632 3.108 0 1.622-.633 3.107t-1.708 2.56q-1.076 1.076-2.545 1.708-1.468.632-3.107.632-1.64 0-3.126-.632t-2.544-1.707q-1.06-1.074-1.708-2.56-.65-1.485-.632-3.107zm6.796-2.903q0 .493.342.784.34.29.87.29.547 0 .87-.29.326-.29.326-.786 0-.496-.325-.77-.326-.272-.87-.272-.55-.017-.873.273-.325.29-.342.77zm.086 6.862h2.254v-5.105h-2.254v5.105z"
     style="line-height:125%;-inkscape-font-specification:notifications"
     font-family="notifications"
     letter-spacing="0"
     word-spacing="0"
     id="path214" />
  <path
     fill="url(#e)"
     d="M144 96h32l8 12.125L176 120h-32z"
     id="path216" />
  <path
     fill="#484848"
     d="M48 188.643q0 .305-.122.794-.122.488-.244.773-.224.57-1.384 1.22-1.058.57-2.096.57-.325 0-.61-.04-.284-.04-.65-.143-.367-.102-.53-.163l-1.2-.426q-1.1-.407-1.974-.956-1.468-.896-3.014-2.44-1.546-1.548-2.44-3.013-.55-.877-.937-1.976l-.207-.57q-.163-.468-.244-.63-.08-.163-.164-.53l-.142-.65q-.06-.286-.04-.59 0-1.06.59-2.116.63-1.16 1.2-1.385.285-.123.773-.245.488-.123.793-.123.165 0 .246.04.203.062.61.876.122.206.325.61.207.41.41.715.204.306.346.612.04.04.204.284.16.246.243.41.08.16.08.324 0 .222-.324.57-.328.344-.715.61-.386.263-.692.61-.304.345-.324.51 0 .1.06.262l.08.223q.02.06.163.284.142.224.142.204.855 1.565 1.974 2.685 1.12 1.12 2.665 1.974.02 0 .204.12.183.123.285.163l.223.102q.12.06.262.04.203 0 .51-.303.304-.305.61-.71.304-.41.63-.714.326-.307.57-.327.14 0 .304.08.162.082.406.245.244.162.285.203l1.323.753q.386.224.63.346.794.388.855.59.04.082.04.245z"
     style="line-height:125%;-inkscape-font-specification:homepage"
     letter-spacing="0"
     word-spacing="0"
     font-family="homepage"
     id="path218" />
  <g
     fill="#484848"
     letter-spacing="0"
     word-spacing="0"
     font-family="homepage"
     id="g224">
    <path
       d="M58.474 185.798l4.66 4.82h-14.25l4.678-4.766 2.438 2.29 2.474-2.346z"
       style="line-height:125%;-inkscape-font-specification:homepage"
       id="path220" />
    <path
       d="M49.138 179.388h13.724L56 185.923l-6.862-6.536zm10.22 5.58l4.642-4.37v9.172l-4.64-4.803zM48 189.77v-9.174l4.677 4.388L48 189.77z"
       style="line-height:125%;-inkscape-font-specification:homepage"
       id="path222" />
  </g>
  <path
     fill="#040606"
     d="M3.06 212.834h4.41v-7.323H3.06zm4.742-10.984c0 1.38-1.118 2.497-2.496 2.497-1.38 0-2.497-1.118-2.497-2.497 0-1.378 1.116-2.496 2.495-2.496 1.378 0 2.496 1.118 2.496 2.496"
     id="path226" />
  <path
     fill="#040606"
     d="M15.523 193.6c3.066 0 5.622.83 7.39 2.402 2 1.776 3.013 4.468 3.013 8 0 7-3.403 10.404-10.403 10.404H1.593V193.6h13.93zm.3-1.595H0V216h15.822v-.007c3.456-.048 6.194-.906 8.137-2.56 2.36-2.01 3.56-5.184 3.56-9.433 0-2.032-.316-3.854-.938-5.416-.594-1.495-1.473-2.765-2.61-3.777-2.006-1.78-4.82-2.745-8.15-2.8V192"
     id="path228" />
  <path
     fill="#cd0c6f"
     d="M15.087 212.842H9.494V195.54h5.593-.225c4.664 0 9.63 1.84 9.63 8.673 0 7.224-4.966 8.63-9.63 8.63h.225"
     id="path230" />
  <path
     fill="#fff"
     d="M9.37 200.71v2.753h.628c.235 0 .405-.013.51-.04.136-.033.25-.09.34-.172.09-.08.163-.213.22-.4.057-.185.085-.44.085-.76s-.028-.57-.085-.74c-.057-.172-.137-.306-.24-.403-.102-.096-.23-.16-.39-.195-.117-.025-.347-.04-.69-.04zm-.84-.704h1.535c.347 0 .61.026.792.08.245.07.454.2.628.383.174.18.306.406.397.672.09.266.136.594.136.984 0 .343-.042.638-.127.886-.102.303-.25.548-.444.736-.146.14-.342.252-.59.33-.186.06-.434.09-.744.09H8.53v-4.164"
     id="path232" />
  <path
     fill="#fff"
     d="M10.065 200.12c.334 0 .59.025.76.075.224.065.418.184.577.352.162.17.287.384.373.633.086.253.13.572.13.947 0 .33-.04.614-.122.85-.098.284-.238.516-.417.69-.133.13-.316.232-.546.306-.173.055-.412.082-.71.082H8.644v-3.935h1.422zm-1.65-.228v4.39h1.696c.32 0 .584-.03.78-.093.264-.086.478-.207.636-.36.204-.2.364-.46.473-.78.09-.26.133-.57.133-.924 0-.4-.048-.744-.142-1.02-.095-.28-.237-.522-.422-.717-.187-.198-.415-.338-.677-.415-.194-.057-.463-.084-.824-.084h-1.65"
     id="path234" />
  <path
     fill="#fff"
     d="M9.748 200.825c.415 0 .59.02.666.037.137.03.25.086.337.167.09.08.16.2.21.354.054.16.08.396.08.704 0 .307-.027.552-.08.726-.05.165-.114.283-.19.35-.073.068-.172.118-.29.147-.094.025-.256.037-.48.037h-.516v-2.525h.265zm-.493-.227v2.98h.743c.247 0 .423-.015.537-.044.154-.038.285-.105.39-.198.105-.097.188-.245.252-.453.06-.198.09-.458.09-.794 0-.338-.03-.59-.09-.777-.064-.19-.154-.34-.27-.45-.117-.11-.267-.186-.444-.224-.126-.03-.36-.043-.715-.043h-.493m3.713 3.573v-4.164h3.083v.705h-2.24v.924h2.086v.706H13.81v1.123h2.322v.706H12.97"
     id="path236" />
  <path
     fill="#fff"
     d="M15.937 200.12v.478h-2.243v1.15h2.086v.477h-2.086v1.352h2.322v.478h-2.934v-3.935h2.855zm-3.082-.228v4.39h3.39v-.933H13.92v-.898h2.086v-.933H13.92v-.696h2.242v-.933h-3.31m6.432 2.63l-.574-1.544-.563 1.543zm1.548 1.65h-.915l-.363-.946H17.89l-.344.945h-.892l1.618-4.165h.894l1.666 4.163"
     id="path238" />
  <path
     fill="#fff"
     d="M19.09 200.12l1.573 3.935h-.668l-.363-.945h-1.82l-.346.945h-.646l1.53-3.935h.74zm-.896-.228l-1.707 4.39h1.138s.3-.817.345-.944h1.505l.364.945H21l-1.756-4.39h-1.05"
     id="path240" />
  <path
     fill="#fff"
     d="M18.71 201.305l.41 1.1h-.81c.072-.197.28-.764.4-1.1zm-.725 1.327h1.463l-.74-1.985-.723 1.985m3.55 1.538v-4.13h.84v3.423h2.09v.706h-2.93"
     id="path242" />
  <path
     fill="#fff"
     d="M22.26 200.154v3.423h2.09v.478h-2.703v-3.9h.612zm-.84-.228v4.357h3.16v-.934h-2.093v-3.425H21.42"
     id="path244" />
  <g
     fill-rule="evenodd"
     id="g252">
    <path
       fill="#009ee0"
       d="M56.642 197.648h6.77c3.635 0 5.003 1.84 4.792 4.548-.35 4.463-3.047 6.93-6.626 6.93h-1.81c-.49 0-.82.325-.954 1.206l-.775 5.117c-.05.33-.226.525-.49.55h-4.24c-.4 0-.543-.307-.44-.968l2.594-16.414c.104-.658.463-.972 1.178-.972z"
       id="path246" />
    <path
       fill="#003d86"
       d="M52.41 192h6.777c1.908 0 4.172.062 5.686 1.397 1.012.893 1.543 2.314 1.42 3.84-.416 5.175-3.51 8.073-7.66 8.073H55.29c-.57 0-.946.377-1.107 1.398l-.933 5.932c-.06.385-.226.612-.53.64h-4.175c-.463 0-.628-.355-.507-1.122l3.006-19.032c.12-.763.538-1.126 1.367-1.126z"
       id="path248" />
    <path
       fill="#003172"
       d="M54.28 206.11l1.184-7.49c.104-.658.463-.972 1.178-.972h6.77c1.12 0 2.026.175 2.736.498-.68 4.605-3.66 7.164-7.56 7.164h-3.343c-.44 0-.768.225-.966.8z"
       id="path250" />
  </g>
  <g
     id="g266">
    <path
       d="M98 197h20v12H98z"
       id="path254" />
    <path
       fill="#fff"
       d="M99 198h18v10H99z"
       id="path256" />
    <path
       d="M96 199h20v12H96z"
       id="path258" />
    <path
       fill="#fff"
       d="M97 200h18v10H97z"
       id="path260" />
    <text
       x="118.803"
       y="203.924"
       style="line-height:125%"
       font-size="28.946"
       letter-spacing="0"
       word-spacing="0"
       transform="translate(-16 5)"
       font-family="sans-serif"
       id="text264">
      <tspan
         x="118.803"
         y="203.924"
         style="-inkscape-font-specification:'Lato Bold'"
         font-weight="bold"
         font-size="10.855"
         font-family="Lato"
         id="tspan262">€</tspan>
    </text>
  </g>
  <g
     id="g272">
    <circle
       cx="8"
       cy="40"
       r="8"
       fill="#00adef"
       id="circle268" />
    <path
       fill="#fff"
       fill-rule="evenodd"
       d="M13 39H7l2-2-1-2-5 5 5 5 1-2-2-2h6z"
       id="path270" />
  </g>
  <g
     fill="#484848"
     id="g278">
    <path
       d="M64.736 132c-.393-.002-.732-.003-.732.732 0 .622.27.72.734.713h2.32l1.995 9.366c-.265.51-.678 1.205-.694 1.547 0 .19.074.358.224.508.148.15.318.225.508.225H80.713c.23 0 .407-.075.53-.225.12-.15.188-.318.202-.508.013-.19-.055-.36-.203-.51-.15-.15-.326-.224-.53-.224h-10.44c.175-.367.263-.595.263-.69 0-.096-.047-.375-.142-.837l11.867-1.383c.164-.027.312-.108.45-.244.134-.137.202-.294.202-.47v-5.822h.002c0-.19-.073-.358-.223-.508-.147-.15-.316-.225-.506-.225H82V136h-4v4h-4v-4h-4v-2.555h-1.457c-.057-.305-.1-.608-.203-.916-.076-.218-.16-.374-.365-.47-.095-.04-.205-.06-.328-.06h-2.91zM80 145.09c-.42-.027-.765.116-1.037.428-.27.312-.415.65-.428 1.017-.013.366.13.706.428 1.016.3.314.643.465 1.035.452.395-.014.736-.165 1.022-.45.284-.286.427-.625.427-1.017v-.002c-.027-.42-.17-.758-.427-1.015-.26-.258-.598-.4-1.02-.428zm-10.176 0c-.368-.027-.705.116-1.017.428-.312.312-.463.65-.45 1.017.014.366.165.706.45 1.016.285.314.623.465 1.017.452.393-.014.733-.165 1.018-.45.284-.286.427-.627.428-1.02.026-.42-.117-.757-.428-1.014-.313-.258-.652-.4-1.018-.428z"
       style="line-height:125%;-inkscape-font-specification:rv-icons-v3"
       font-size="30"
       font-family="rv-icons-v3"
       letter-spacing="0"
       word-spacing="0"
       id="path274" />
    <path
       fill-rule="evenodd"
       d="M75 129v4h-4v2h4v4h2v-4h4v-2h-4v-4z"
       id="path276" />
  </g>
  <path
     fill="#ee7f00"
     d="M159.875 199.653c-.657 0-1.293.15-1.89.432-.855.405-1.63 1.08-2.262 1.974-.41.58-.763 1.254-1.038 2.007-.52 1.422-.513 2.576.017 3.336.3.43.927.943 2.2.944h.004c2.317 0 4.046-1.52 5.142-4.514.29-.792.67-2.27-.027-3.27-.42-.603-1.14-.91-2.145-.91zm13.98 0c-.656 0-1.293.15-1.89.432-.855.405-1.63 1.08-2.262 1.974-.41.58-.762 1.254-1.037 2.007-.52 1.422-.514 2.576.017 3.336.3.43.926.943 2.2.944h.003c2.317 0 4.047-1.52 5.142-4.514.29-.792.67-2.27-.026-3.27-.422-.603-1.143-.91-2.147-.91zm-21.42.12c-.764 0-1.504 0-2.168.337-.664.337-1.25 1.01-1.7 2.36-.098.288-.15.538-.157.755-.007.217.03.402.114.563.1.195.266.38.47.535.208.156.454.282.72.363l.318.09.49.145c.073.023.154.052.226.096.073.043.14.1.18.182.027.053.04.112.043.174.003.063-.008.13-.033.202-.062.183-.155.3-.334.373-.178.072-.44.095-.84.098h-4.976l-.787 2.16h5.327c.5 0 1.417.002 2.298-.373.88-.374 1.725-1.12 2.083-2.618.134-.562.093-1.02-.128-1.38-.22-.36-.62-.62-1.202-.788l-.284-.082-.42-.12c-.148-.043-.262-.13-.33-.24-.067-.108-.088-.24-.05-.377.04-.14.137-.254.277-.332.14-.077.325-.12.54-.12h3.096c.022-.03.042-.066.063-.097.565-.8 1.25-1.448 2-1.905h-4.836zm13.916 0c-1.377 0-2.403.698-2.887 2.002l-2.34 6.432h2.564l1.202-3.306 2.266.003.644-1.77-2.258-.003.363-1.025c.076-.184.257-.33.522-.33h2.672c.022-.03.042-.065.063-.097.566-.8 1.367-1.447 2.117-1.905h-4.93zm11.897.005l-3.07 8.434h2.607l1.117-2.968c.055.122.714 2.968.714 2.968h2.742s-.5-2.09-.866-2.936c-.094-.217-.192-.46-.324-.664.775-.288 1.897-.906 2.362-2.158.286-.77.27-1.392-.048-1.848-.385-.554-1.168-.826-2.394-.828h-2.84zm5.35 0c.165.13.307.28.425.45.304.438.42.957.35 1.553h1.554l-2.34 6.434h2.338l2.342-6.433h3.005l.73-2h-8.403zm-3.632 1.742h.43c.788 0 1.082.23.815.95-.25.673-.7 1.09-1.555 1.09h-.446l.756-2.04zm-20.706.04c.8.002.984.467.28 2.392-.722 1.978-1.246 2.476-2.036 2.476h-.002c-.77 0-1.04-.488-.32-2.457.538-1.47 1.235-2.41 2.077-2.41zm13.98 0c.8.002.985.467.28 2.392-.72 1.978-1.246 2.476-2.035 2.476h-.002c-.77 0-1.04-.488-.32-2.457.538-1.47 1.235-2.41 2.076-2.41z"
     id="path280" />
  <g
     id="g286">
    <path
       fill="#d20037"
       d="M201.605 205.545l-2.67-1.466L192 216l23.926-12.42-15.99-11.58z"
       id="path282" />
    <path
       fill="url(#f)"
       d="M234.64 204.578l-1-.548-2.597 4.462 8.957-4.65z"
       transform="matrix(2.67 0 0 2.67 -425.19 -340.95)"
       id="path284" />
  </g>
  <g
     fill-rule="evenodd"
     clip-rule="evenodd"
     id="g310">
    <path
       fill="#2d78bb"
       d="M10.343 230.19h7.182l4.02-4.305h7.207l-6.12 6.828H0v-4.56h12.138l-1.795 2.038z"
       id="path288" />
    <path
       fill="#f8e14b"
       d="M28.752 225.885h-7.206l-4.02 4.33H10.29l6.12-6.827H39.07v4.535H26.932l1.82-2.038z"
       id="path290" />
    <path
       fill="#2d78bb"
       d="M36.162 221.707c-.33.204-.758.306-1.164.306-1.163 0-2.2-.866-2.2-2.064s.936-2.065 2.125-2.065c.43 0 .91.077 1.24.28v1.274c-.254-.23-.633-.306-1.063-.306-.405 0-.885.33-.885.866 0 .458.48.74.885.74.455 0 .733-.027 1.062-.28v1.247zm2.958-.968v.967c-1.036.764-2.225.127-2.225-.764v-1.784h-.506v-1.173h.505v-.942l1.416-.765v1.707h.81v1.07h-.733v1.656c0 .306.506.28.733.026zm-10.24-1.48l.227-1.094c1.416-.484 3.44-.204 3.44 1.07v2.7H31.23l-.05-.127c-.607.38-2.832.56-2.53-1.2.178-1.043 1.367-1.298 2.1-1.298.38 0 .53-.357.05-.382-.43-.026-1.29.025-1.92.33zm-23.873 0l.202-1.094c1.415-.484 3.44-.204 3.44 1.07v2.7H7.307l-.025-.127c-.58.38-2.883.56-2.53-1.2.178-1.043 1.342-1.298 2.075-1.298.38 0 .53-.357.076-.382-.43-.026-1.315.025-1.897.33zm16.21.74c0 1.197-.987 2.038-2.175 2.038-1.19 0-2.2-.892-2.2-2.09 0-1.17 1.01-2.088 2.175-2.088 1.213 0 2.2.917 2.2 2.14zm7.18.74v.967c-1.06.764-2.224.127-2.224-.764v-1.784h-.506v-1.173h.506v-.942l1.44-.765v1.707h.785v1.07h-.758v1.656c0 .306.53.28.758.026z"
       id="path292" />
    <path
       fill="#2d78bb"
       d="M2.655 216c1.315 0 2.276 1.758 1.062 2.853 1.518.943.835 3.032-.86 3.058H.026V216h2.63zm13.934 5.707c-.33.204-.71.306-1.14.306-1.188 0-2.2-.866-2.2-2.064s.936-2.065 2.1-2.065c.43 0 .91.077 1.24.28v1.274c-.28-.23-.608-.306-1.038-.306-.43 0-.91.33-.91.866 0 .458.505.74.91.74.43 0 .708-.027 1.037-.28v1.247zm-3.617-2.344v2.573h-1.416v-2.216c0-.79-1.138-.765-1.138 0v2.216H9.002v-3.95h1.44v.332c1.19-.89 2.53-.076 2.53 1.045zm12.492 0v2.573H24.05v-2.216c0-.79-1.14-.765-1.14 0v2.216h-1.415v-3.95h1.416v.332c1.215-.89 2.555-.076 2.555 1.045zm5.336-.433c.48.025.33.382-.05.382-.733 0-1.922.255-2.1 1.3-.302 1.758 1.923 1.58 2.53 1.197l.05.126h1.316v-2.7c0-1.274-2.023-1.555-3.44-1.07l-.227 1.095c.63-.305 1.49-.356 1.92-.33z"
       id="path294" />
    <path
       fill="#2d78bb"
       d="M6.904 218.93c.455.025.303.382-.076.382-.734 0-1.897.255-2.074 1.3-.354 1.758 1.947 1.58 2.53 1.197l.024.126h1.34v-2.7c0-1.274-2.023-1.555-3.44-1.07l-.2 1.095c.58-.305 1.466-.356 1.896-.33zm12.113-1.07c-1.164 0-2.175.917-2.175 2.09 0 1.197 1.01 2.088 2.2 2.088 1.188 0 2.175-.84 2.175-2.038 0-1.223-.987-2.14-2.2-2.14zm8.623 2.853v-1.656h.758v-1.07h-.784v-1.707l-1.44.765v.942h-.507v1.172h.506v1.783c0 .89 1.163 1.528 2.225.764v-.968c-.227.254-.758.28-.758-.027z"
       id="path296" />
    <path
       fill="#2d78bb"
       d="M.025 216v5.91h2.832c1.695-.025 2.378-2.114.86-3.057C4.93 217.758 3.97 216 2.655 216H.025zm16.564 4.46c-.33.253-.608.28-1.038.28-.405 0-.91-.28-.91-.74 0-.535.48-.866.91-.866.43 0 .76.076 1.037.305v-1.274c-.33-.204-.81-.28-1.24-.28-1.164 0-2.1.866-2.1 2.063s1.012 2.063 2.2 2.063c.43 0 .81-.102 1.14-.306v-1.248zm-6.146-2.142v-.33H9.002v3.948h1.416v-2.216c0-.765 1.138-.79 1.138 0v2.216h1.416v-2.573c0-1.12-1.34-1.936-2.528-1.045zm12.467 0v-.33h-1.415v3.948h1.416v-2.216c0-.765 1.14-.79 1.14 0v2.216h1.415v-2.573c0-1.12-1.34-1.936-2.554-1.045zm13.252 2.14c-.33.255-.607.28-1.062.28-.405 0-.885-.28-.885-.738 0-.535.48-.866.885-.866.43 0 .81.076 1.062.305v-1.274c-.33-.204-.81-.28-1.24-.28-1.188 0-2.124.866-2.124 2.063s1.037 2.063 2.2 2.063c.406 0 .835-.102 1.164-.306v-1.248zm2.225.255v-1.656h.733v-1.07h-.81v-1.707l-1.415.765v.942h-.506v1.172h.505v1.783c0 .89 1.19 1.528 2.225.764v-.968c-.227.254-.733.28-.733-.027zM19.85 220c0 .433-.378.79-.808.79-.43 0-.784-.357-.784-.84 0-.51.354-.79.784-.79.43 0 .81.28.81.84z"
       id="path298" />
    <path
       fill="#2d78bb"
       d="M1.644 219.54h.632c.784 0 .86 1.2.025 1.2h-.656v-1.2zm5.588.664v.484c0 .535-1.062.688-1.062.127 0-.51.76-.662 1.062-.61zm23.898 0v.484c0 .535-1.037.688-1.037.127 0-.51.758-.662 1.037-.61zm-28.854-3.007c.733.332.48 1.12.025 1.12h-.656v-1.12c0-.025.455-.05.632 0z"
       id="path300" />
    <path
       fill="#fff"
       d="M19.042 219.16c-.43 0-.784.28-.784.79 0 .483.354.84.784.84.43 0 .81-.357.81-.79 0-.56-.38-.84-.81-.84zm11.05 1.655c0 .56 1.038.408 1.038-.127v-.484c-.28-.05-1.037.102-1.037.61zm-28.448-3.618v1.12H2.3c.456 0 .71-.788-.024-1.12-.177-.05-.632-.025-.632 0zm4.526 3.618c0 .56 1.062.408 1.062-.127v-.484c-.303-.05-1.062.102-1.062.61zm-4.526-.076H2.3c.836 0 .76-1.2-.024-1.2h-.632v1.2z"
       id="path302" />
    <path
       fill="#2d78bb"
       d="M17.6 238.038c0-1.376-.556-2.268-1.947-2.268-1.315 0-2.1.994-2.1 2.115 0 1.223.937 2.115 2.252 2.115 1.138 0 1.72-.46 1.72-.46v-1.17c-.48.254-1.012.407-1.392.407-.758 0-1.163-.204-1.163-.74h2.63zm-14.844.204l1.163-1.682v3.338h1.517l.025-5.784H3.92l-1.164 1.733-1.188-1.733H.025l.026 5.784H1.57v-3.338l1.188 1.682zm16.488-.663c.152-.332.48-.612.91-.612.228 0 .48.102.658.23v-1.25c-.127-.152-.33-.203-.53-.203-.355 0-.836.204-1.038.46v-.41H17.88v4.103h1.364v-2.32zm-11.632 2.063c.48.204 1.062.28 1.44.28 1.468 0 1.898-.764 1.898-1.4 0-.74-.76-1.147-1.442-1.25-.1 0-.38-.076-.38-.204 0-.102.077-.23.405-.23.28 0 .784.102 1.037.23l-.05-1.07c-.38-.128-.91-.23-1.315-.23-.835 0-1.568.51-1.568 1.325 0 .637.455.968 1.188 1.12.304.027.582.154.582.307 0 .204-.202.255-.405.255-.177 0-.632.05-1.39-.255v1.12z"
       id="path304" />
    <path
       fill="#2d78bb"
       d="M12.796 238.65v-1.682h.784v-1.095h-.835v-1.76l-1.44.766v.993h-.507v1.172h.506v1.834c0 .916 1.188 1.528 2.276.764v-.994c-.228.23-.784.28-.784 0zm-5.437 1.197v-3.974H5.84v3.974h1.52zm-.76-4.102c.455 0 .835-.382.835-.84 0-.434-.38-.79-.835-.79-.43 0-.784.356-.784.79 0 .458.354.84.784.84zm24.934 3.898c.48.204 1.062.28 1.442.28 1.467 0 1.92-.764 1.92-1.4 0-.74-.757-1.147-1.465-1.25-.1 0-.38-.076-.38-.204 0-.102.077-.23.43-.23.28 0 .76.102 1.038.23l-.076-1.07c-.38-.128-.91-.23-1.315-.23-.834 0-1.568.51-1.568 1.325 0 .637.454.968 1.188 1.12.303.027.582.154.582.307 0 .204-.203.255-.405.255-.177 0-.632.05-1.39-.255v1.12zm-4.45-1.427c-.48.357-.86.433-1.493.433-.96 0-1.82-.79-1.82-1.605 0-.892.48-1.733 1.82-1.733.61 0 1.114.102 1.494.458v-1.375c-.48-.28-1.138-.357-1.72-.357-1.745 0-3.085 1.248-3.085 2.956 0 1.68 1.466 2.955 3.185 2.955.582 0 1.138-.13 1.62-.41v-1.324zm2.427-1.452c.482.026.33.408-.05.408-.758 0-1.972.255-2.124 1.3-.33 1.783 1.948 1.63 2.554 1.248l.05.102h1.366v-2.752c0-1.3-2.073-1.554-3.54-1.07l-.202 1.095c.632-.305 1.518-.356 1.947-.33zm7.006-.586v-2.063H35.1v5.783h1.416v-2.268c0-.764 1.163-.79 1.163 0v2.268h1.44v-2.624c0-1.172-1.365-1.988-2.604-1.096z"
       id="path306" />
    <path
       fill="#fff"
       d="M14.92 237.248c.076-.382.38-.51.657-.51.28 0 .633.128.633.51h-1.29zm14.92.816v.484c0 .56-1.062.688-1.062.127 0-.51.783-.637 1.062-.61z"
       id="path308" />
  </g>
  <g
     fill="#fff"
     id="g318">
    <path
       d="M44 128a9 9 0 0 0-9 9h18a9 9 0 0 0-9-9z"
       id="path312" />
    <path
       d="M49 137a6 6 0 0 1-6 6 6 6 0 0 1-6-6 6 6 0 0 1 6-6 6 6 0 0 1 6 6z"
       id="path314" />
    <path
       d="M35 137h18v1H35z"
       id="path316" />
  </g>
  <g
     fill="none"
     stroke="#fff"
     stroke-width="4"
     font-weight="bold"
     font-size="7.5"
     font-family="Lato"
     letter-spacing="0"
     word-spacing="0"
     id="g322">
    <path
       stroke-width="2"
       d="M41.666 148q0 .66-.22 1.212-.22.552-.618.95-.398.398-.958.618-.56.22-1.24.22h-2.29v-6h2.29q.68 0 1.24.224.56.22.958.62.398.393.618.945.22.55.22 1.21zm-1.14 0q0-.494-.134-.884-.132-.394-.377-.664-.245-.273-.598-.42-.348-.144-.788-.144h-1.167v4.224h1.166q.44 0 .787-.145.353-.145.598-.415.245-.274.377-.664.133-.394.133-.888zM43.803 151h-1.12v-6h1.12v6zM48.168 148.51c.047.09.09.182.13.278.04.095.08-.81.12-.713.038-.1.078.802.12.705.04-.097.085-.19.132-.278l1.776-3.323c.022-.043.044-.076.066-.1.025-.026.05-.044.08-.055.03-.01.063-.018.1-.02.034-.004.077-.005.127-.005h.84v6h-.982v-3.876c0-.072.002-.15.005-.236.005-.086.012-.173.02-.262l-1.813 3.403c-.04.076-.095.137-.162.18-.066.043-.143.064-.232.064h-.153c-.09 0-.166-.02-.233-.063-.066-.043-.12-.104-.162-.18l-1.838-3.416c.01.09.018.18.02.27.007.085.01.166.01.24V151h-.984v-6H46c.05 0 .09 0 .127.004.036.003.068.01.096.02.03.012.058.03.083.055.025.024.048.057.07.1l1.793 3.33z"
       style="line-height:125%;-inkscape-font-specification:'Lato Bold'"
       id="path320" />
  </g>
  <path
     fill="#484848"
     d="M44 129a8 8 0 0 0-8 8h.5a6.5 6.5 0 0 1 6.5-6.5 6.5 6.5 0 0 1 6.5 6.5H52a8 8 0 0 0-8-8z"
     id="path324" />
  <path
     fill="#484848"
     d="M41.666 148q0 .66-.22 1.212-.22.552-.618.95-.398.398-.958.618-.56.22-1.24.22h-2.29v-6h2.29q.68 0 1.24.224.56.22.958.62.398.393.618.945.22.55.22 1.21zm-1.14 0q0-.494-.134-.884-.132-.394-.377-.664-.245-.273-.598-.42-.348-.144-.788-.144h-1.167v4.224h1.166q.44 0 .787-.145.353-.145.598-.415.245-.274.377-.664.133-.394.133-.888zM43.803 151h-1.12v-6h1.12v6zM48.168 148.51q.07.133.13.278l.12.287q.057-.15.12-.295.06-.145.132-.278l1.776-3.323q.033-.064.066-.1.037-.038.08-.055.045-.017.1-.02.052-.006.127-.006h.84v6h-.982v-3.876q0-.108.005-.237.007-.128.02-.26l-1.813 3.4q-.062.117-.162.184-.1.063-.232.063h-.153q-.133 0-.233-.062-.1-.066-.162-.182l-1.838-3.415q.017.137.02.27.01.13.01.24V151h-.984v-6H46q.073 0 .127.003.054.004.096.02.045.018.083.055.037.037.07.1l1.793 3.33z"
     style="line-height:125%;-inkscape-font-specification:'Lato Bold'"
     font-weight="bold"
     font-size="7.5"
     font-family="Lato"
     letter-spacing="0"
     word-spacing="0"
     id="path326" />
  <path
     fill="#484848"
     d="M47.207 134.258l-2.05 2.05-1.414-1.414 2.047-2.047a5 5 0 0 0-6.29.632 5 5 0 0 0 0 7.07 5 5 0 0 0 7.07 0 5 5 0 0 0 .637-6.292z"
     id="path328" />
  <g
     id="g336">
    <path
       fill="#484848"
       stroke="#fff"
       stroke-width="2"
       d="M97.75 129c-.415 0-.75.335-.75.75v20.5c0 .415.335.75.75.75s.75-.335.75-.75v-5.066c1.853-1.07 2.996-3.045 3-5.184-.006-2.138-1.15-4.11-3-5.18v-5.07c0-.415-.335-.75-.75-.75z"
       stroke-linecap="round"
       id="path330" />
    <path
       fill="#fff"
       stroke="#fff"
       stroke-width="2"
       d="M109.454 129.393a15 15 0 0 0 0 21.214l1.06-1.06a13.5 13.5 0 0 1 0-19.093l-1.06-1.06zm2.122 2.122a12 12 0 0 0 0 16.97l1.06-1.06a10.5 10.5 0 0 1 0-14.85l-1.06-1.06zm2.12 2.12a9 9 0 0 0 0 12.73l1.062-1.062a7.5 7.5 0 0 1 0-10.606l-1.06-1.06zm2.122 2.122a6 6 0 0 0 0 8.486l1.06-1.06a4.5 4.5 0 0 1 0-6.365l-1.06-1.06zm2.122 2.122a3 3 0 0 0 0 4.24l1.06-1.06a1.5 1.5 0 0 1 0-2.12l-1.06-1.06z"
       stroke-linecap="round"
       stroke-linejoin="round"
       id="path332" />
    <path
       fill="#484848"
       d="M109.454 129.393a15 15 0 0 0 0 21.214l1.06-1.06a13.5 13.5 0 0 1 0-19.093l-1.06-1.06zm2.122 2.122a12 12 0 0 0 0 16.97l1.06-1.06a10.5 10.5 0 0 1 0-14.85l-1.06-1.06zm2.12 2.12a9 9 0 0 0 0 12.73l1.062-1.062a7.5 7.5 0 0 1 0-10.606l-1.06-1.06zm2.122 2.122a6 6 0 0 0 0 8.486l1.06-1.06a4.5 4.5 0 0 1 0-6.365l-1.06-1.06zm2.122 2.122a3 3 0 0 0 0 4.24l1.06-1.06a1.5 1.5 0 0 1 0-2.12l-1.06-1.06zM97.75 129c-.415 0-.75.335-.75.75v20.5c0 .415.335.75.75.75s.75-.335.75-.75v-5.066c1.853-1.07 2.996-3.045 3-5.184-.006-2.138-1.15-4.11-3-5.18v-5.07c0-.415-.335-.75-.75-.75z"
       id="path334" />
  </g>
  <path
     inkscape:connector-curvature="0"
     style="fill:#ffffff;fill-opacity:1;fill-rule:evenodd"
     d="m 37,36 1,-1 5,5 -5,5 -1,-1 4,-4 z"
     id="path42-8" />
  <path
     inkscape:connector-curvature="0"
     style="fill:#ffffff;fill-opacity:1"
     d="m 79.588,162.193 c -4.867,2.983 -8.4,6.748 -9.986,8.638 L 65.716,167.787 64,169.17 70.715,176 C 71.87,173.04 75.53,167.253 80,163.142 l -0.412,-0.95 z"
     id="path38-4" />
</svg>
